<svg width="205" height="282" viewBox="0 0 205 282" fill="none" xmlns="http://www.w3.org/2000/svg">
<path d="M136.196 228.825C105.986 255.57 75.1476 255.764 49.6184 230.998C36.3434 218.12 28.5227 193.473 24.584 166.806C20.9919 142.488 20.4632 116.612 19.6814 100.432C18.0414 66.5121 12.1635 36.1681 16.2929 29.2179C21.6019 20.2823 47.0851 42.5713 90.4035 58.1144C133.749 73.6676 170.856 74.2266 178.584 110.104C186.312 145.981 166.406 202.08 136.196 228.825ZM199.752 80.165C192.83 63.6501 168.258 63.3666 136.725 59.596C116.772 57.2119 95.6751 52.3083 76.4877 44.2101C26.7324 23.2124 3.89975 -2.85714 0.637109 0.254303C-3.16858 3.88365 11.2507 27.6912 12.8648 94.1124C14.4803 160.612 -3.63395 260.422 75.7072 280.246C110.239 288.873 143.908 264.714 167.89 229.002C197.466 184.961 213.94 114.014 199.752 80.165" fill="#E6E6AF"/>
</svg>
