<svg width="28" height="27" viewBox="0 0 28 27" fill="none" xmlns="http://www.w3.org/2000/svg">
<path d="M24.8064 19.5787C22.679 22.517 19.0263 24.4383 14.932 24.4383C8.38919 24.4383 3.0506 19.5409 3.0506 13.4758C3.0506 7.41055 7.90759 2.28714 14.6109 1.98576C19.2671 1.75973 22.8797 4.32144 24.8064 7.52356H26.9339V0.0644898H24.0438L25.3283 6.09202H24.7261C23.8832 4.58514 22.8396 3.37963 21.6755 2.43783C17.7017 -0.726623 12.1623 -0.613609 7.66674 1.64672C3.09078 3.94471 0 8.39002 0 13.5135C0 20.9725 6.70334 27 14.9722 27C20.0699 27 24.5655 24.7021 27.255 21.1986L24.8064 19.5787Z" fill="black"/>
</svg>
