<svg width="46" height="46" viewBox="0 0 46 46" fill="none" xmlns="http://www.w3.org/2000/svg">
<path d="M46 23C46 35.7025 35.7025 46 23 46C10.2975 46 0 35.7025 0 23C0 10.2975 10.2975 0 23 0C35.7025 0 46 10.2975 46 23Z" fill="black"/>
<path d="M26.6697 19.8793V25.7653C26.6697 26.5068 26.8508 27.0691 27.213 27.4524C27.5751 27.8273 28.0796 28.0147 28.7263 28.0147C29.7179 28.0147 30.494 27.6107 31.0545 26.8025C31.6236 25.9944 31.9082 24.8947 31.9082 23.5034C31.9082 21.8788 31.5115 20.4375 30.7182 19.1795C29.9249 17.9215 28.8125 16.9468 27.3811 16.2553C25.9583 15.5638 24.3329 15.2181 22.5048 15.2181C20.6078 15.2181 18.9177 15.6013 17.4345 16.3678C15.96 17.1342 14.8088 18.2214 13.981 19.6294C13.1618 21.029 12.7522 22.637 12.7522 24.4531C12.7522 26.311 13.1661 27.9272 13.9939 29.3019C14.8304 30.6682 15.9945 31.7096 17.4862 32.4261C18.9866 33.1342 20.7199 33.4883 22.6859 33.4883C24.9969 33.4883 27.1354 33.0009 29.1014 32.0262V33.8757C28.3167 34.2672 27.3337 34.5797 26.1523 34.8129C24.971 35.0545 23.7724 35.1753 22.5566 35.1753C20.2973 35.2003 18.2709 34.763 16.4774 33.8632C14.6838 32.9634 13.2869 31.6929 12.2866 30.0517C11.2863 28.4104 10.7991 26.5526 10.825 24.4781C10.7905 22.3787 11.2648 20.4917 12.2478 18.8171C13.2394 17.1342 14.632 15.8262 16.4256 14.8931C18.2192 13.9517 20.2456 13.4977 22.5048 13.531C24.1173 13.5143 25.6263 13.7518 27.0319 14.2433C28.4461 14.7349 29.6533 15.4138 30.6535 16.2803C31.6538 17.1467 32.4342 18.1881 32.9947 19.4045C33.5638 20.6125 33.8397 21.9038 33.8225 23.2785C33.8225 25.1863 33.3482 26.7234 32.3997 27.8897C31.4512 29.0478 30.2095 29.6268 28.6746 29.6268C27.7433 29.6268 26.9586 29.4227 26.3205 29.0145C25.691 28.6062 25.2944 28.0605 25.1305 27.3774C24.777 27.9189 24.2639 28.3438 23.5913 28.652C22.9273 28.9603 22.1944 29.1144 21.3925 29.1144C20.0042 29.1144 18.8702 28.6729 17.9907 27.7898C17.1198 26.8983 16.6843 25.7695 16.6843 24.4032C16.6843 23.0202 17.1284 21.8913 18.0166 21.0165C18.9134 20.1334 20.0214 19.6919 21.3407 19.6919C22.0392 19.6919 22.7118 19.821 23.3585 20.0793C24.0138 20.3376 24.514 20.6875 24.8589 21.129L24.9494 19.8793H26.6697ZM24.8589 24.2532C24.8589 23.4201 24.5398 22.7161 23.9017 22.1413C23.2636 21.5664 22.4876 21.279 21.5735 21.279C20.6768 21.279 19.9438 21.5747 19.3747 22.1662C18.8142 22.7494 18.5339 23.4951 18.5339 24.4032C18.5339 25.2946 18.8185 26.0361 19.3876 26.6276C19.9567 27.2108 20.6854 27.5023 21.5735 27.5023C22.4876 27.5023 23.2636 27.2149 23.9017 26.6401C24.5398 26.0652 24.8589 25.3612 24.8589 24.5281V24.2532Z" fill="white"/>
</svg>
