<svg width="850" height="748" viewBox="0 0 850 748" fill="none" xmlns="http://www.w3.org/2000/svg">
<path d="M455.136 732.735L476.169 675.003C443.362 650.862 419.249 590.123 426.291 510.204L391.109 521.615C383.954 627.056 418.176 705.54 455.136 732.735Z" fill="#D29696"/>
<path d="M457.524 83.4728L478.478 26.5332C391.311 -37.6053 247.482 13.4404 176.943 191.623C156.022 244.261 145.524 293.897 142.488 338.675L177.914 327.188C180.864 293.847 189.23 257.189 204.658 218.462C263.332 70.4035 381.765 27.7282 457.524 83.4728Z" fill="#D29696"/>
<path d="M330.187 640.797C382.845 679.542 492.603 652.13 554.604 469.51C617.353 285.598 558.994 85.7773 478.477 26.5313L457.522 83.4735C533.282 139.218 575.441 300.058 523.36 452.968C477.18 589.322 397.985 617.474 351.389 583.188L330.187 640.797Z" fill="#D29696"/>
<path d="M679.553 561.45C742.277 377.515 689.306 181.664 602.141 117.526L581.187 174.465C656.944 230.21 700.188 391.85 648.107 544.757C601.923 681.109 522.689 709.232 476.171 675.003L455.137 732.737C507.795 771.482 617.555 744.068 679.553 561.45Z" fill="#D29696"/>
<path d="M330.187 640.797C277.529 602.052 230.415 459.207 300.606 282.617C371.143 104.432 514.975 53.3868 602.141 117.525L581.187 174.467C505.428 118.723 386.801 161.257 328.127 309.313C275.65 441.034 304.791 548.899 351.389 583.188L330.187 640.797Z" fill="#D29696"/>
</svg>
