<svg width="576" height="792" viewBox="0 0 576 792" fill="none" xmlns="http://www.w3.org/2000/svg">
<path d="M382.508 642.657C297.662 717.77 211.053 718.316 139.354 648.759C102.071 612.593 80.1064 543.371 69.0443 468.478C58.956 400.179 57.4712 327.505 55.2754 282.065C50.6696 186.8 34.1614 101.578 45.7587 82.0588C60.669 56.963 132.239 119.562 253.899 163.215C375.634 206.896 479.851 208.466 501.555 309.229C523.261 409.989 467.352 567.544 382.508 642.657ZM561.006 225.144C541.565 178.762 472.554 177.966 383.993 167.376C327.956 160.68 268.704 146.908 214.816 124.165C75.0784 65.1923 10.9525 -8.02435 1.78933 0.714172C-8.89899 10.9072 31.5978 77.7711 36.1309 264.315C40.6681 451.079 -10.206 731.398 212.625 787.073C309.607 811.302 404.168 743.451 471.52 643.155C554.584 519.465 600.852 320.21 561.006 225.144Z" fill="#E6E6AF"/>
</svg>
