<?xml version="1.0" standalone="no"?>
<!DOCTYPE svg PUBLIC "-//W3C//DTD SVG 20010904//EN"
 "http://www.w3.org/TR/2001/REC-SVG-20010904/DTD/svg10.dtd">
<svg version="1.0" xmlns="http://www.w3.org/2000/svg"
 width="351.000000pt" height="351.000000pt" viewBox="0 0 351.000000 351.000000"
 preserveAspectRatio="xMidYMid meet">
<metadata>
Created by potrace 1.14, written by Peter Selinger 2001-2017
</metadata>
<g transform="translate(0.000000,351.000000) scale(0.100000,-0.100000)"
fill="#000000" stroke="none">
<path d="M1536 3378 c3 -4 11 -5 18 -2 8 3 17 1 20 -4 3 -5 -8 -8 -25 -6 -21
3 -28 0 -24 -9 4 -6 -1 -3 -9 7 -14 18 -16 18 -16 3 0 -15 -4 -16 -20 -7 -16
9 -20 8 -21 -7 0 -11 -3 -13 -6 -5 -2 6 -9 12 -14 12 -6 0 -7 -6 -3 -12 5 -8
0 -7 -11 2 -17 14 -17 13 -11 -10 4 -14 4 -20 -1 -15 -12 15 -33 17 -33 3 0
-10 -3 -9 -9 1 -6 9 -10 10 -16 2 -5 -9 -10 -9 -20 -1 -10 9 -16 7 -24 -8 -6
-11 -7 -23 -3 -27 4 -5 1 -5 -6 -1 -7 4 -9 13 -5 19 4 8 1 7 -9 -1 -9 -7 -30
-14 -46 -14 -20 -1 -29 -5 -25 -13 2 -7 -1 -16 -8 -21 -7 -4 -10 -3 -5 4 4 7
-1 10 -14 9 -11 -1 -20 -5 -20 -10 0 -5 -6 -4 -14 2 -10 9 -17 7 -27 -6 -13
-16 -12 -17 4 -4 11 9 17 10 17 2 0 -11 -55 -28 -72 -23 -5 1 -8 -3 -8 -9 0
-6 -7 -8 -16 -5 -8 3 -12 2 -9 -4 3 -6 -1 -11 -9 -11 -9 -1 -20 -2 -25 -3 -6
0 -19 -11 -31 -23 -25 -27 -38 -31 -19 -5 13 16 13 16 -7 -1 -11 -9 -23 -15
-26 -11 -3 3 -15 -7 -27 -22 -12 -15 -24 -24 -28 -21 -3 4 -12 -1 -20 -11 -9
-10 -12 -11 -7 -2 4 8 -4 4 -18 -10 -40 -39 -52 -47 -65 -43 -6 2 -14 -6 -18
-18 -5 -15 -9 -18 -15 -9 -5 9 -9 9 -14 1 -4 -6 -4 -11 1 -11 9 0 -58 -44 -69
-45 -3 0 -10 -4 -15 -9 -5 -5 -3 -6 5 -2 6 4 12 3 12 -3 0 -6 -11 -13 -25 -17
-14 -3 -22 -10 -19 -15 3 -5 -2 -9 -11 -9 -9 0 -13 -4 -10 -10 3 -6 -4 -10
-17 -10 -18 0 -20 -2 -8 -10 13 -8 12 -10 -2 -10 -10 0 -18 -4 -18 -9 0 -5 -9
-12 -19 -16 -12 -4 -18 -12 -14 -21 3 -9 -1 -14 -12 -14 -9 0 -13 -4 -10 -10
3 -5 -1 -10 -10 -10 -9 0 -14 -4 -11 -9 3 -5 -1 -12 -10 -15 -8 -3 -12 -11 -8
-17 4 -8 3 -9 -4 -5 -7 4 -12 2 -12 -4 0 -7 -7 -10 -15 -6 -13 4 -14 2 -5 -14
8 -16 8 -20 -2 -18 -7 2 -12 -5 -12 -14 1 -10 -2 -16 -6 -13 -4 3 -16 -3 -27
-13 -10 -9 -13 -13 -6 -8 10 6 12 5 7 -7 -3 -8 -12 -18 -20 -21 -8 -3 -14 -11
-14 -17 0 -6 -10 -20 -22 -30 -12 -11 -16 -19 -8 -19 8 0 4 -8 -8 -19 -12 -10
-22 -26 -22 -35 0 -11 -5 -14 -12 -10 -7 5 -9 2 -5 -9 3 -9 -1 -18 -10 -21 -9
-4 -13 -9 -10 -13 4 -3 -1 -12 -11 -20 -9 -8 -11 -12 -4 -8 6 3 12 2 12 -3 0
-6 -7 -13 -16 -16 -8 -3 -13 -10 -10 -15 4 -5 -1 -16 -9 -25 -11 -10 -12 -17
-4 -22 8 -5 4 -13 -12 -26 -13 -11 -17 -17 -9 -13 10 4 9 1 -3 -8 -20 -16 -23
-31 -4 -22 6 4 3 -1 -7 -9 -15 -12 -16 -16 -5 -16 11 -1 10 -4 -3 -14 -13 -10
-15 -15 -6 -24 9 -9 9 -15 -1 -24 -10 -11 -11 -10 -6 5 4 9 4 17 1 17 -13 0
-24 -45 -14 -57 6 -7 5 -14 -3 -19 -8 -5 -9 -3 -4 6 5 9 4 11 -3 6 -9 -5 -9
-13 -2 -26 7 -13 7 -21 -2 -26 -7 -5 -8 -3 -3 6 6 9 4 11 -4 6 -7 -5 -10 -10
-7 -13 3 -3 1 -14 -4 -24 -8 -13 -6 -19 8 -22 15 -4 15 -5 -2 -6 -15 -1 -16
-4 -7 -15 10 -12 8 -17 -8 -26 -26 -14 -29 -52 -4 -44 17 5 17 5 0 -6 -19 -12
-24 -35 -4 -24 10 6 10 4 0 -7 -18 -19 -18 -359 -1 -378 7 -8 8 -11 2 -8 -6 3
-11 -1 -11 -9 0 -8 6 -13 12 -10 8 3 12 -12 11 -49 -1 -30 3 -51 8 -47 5 3 7
-2 3 -11 -5 -13 -1 -17 16 -18 12 0 16 -3 10 -6 -7 -2 -13 -11 -13 -19 0 -9 5
-12 10 -9 13 8 8 -18 -5 -27 -6 -5 -5 -8 4 -8 7 0 11 -6 7 -15 -3 -9 0 -15 9
-15 8 0 15 -4 15 -10 0 -5 -8 -7 -17 -3 -12 4 -10 -1 7 -16 14 -12 19 -20 13
-16 -19 9 -16 -6 5 -22 9 -8 12 -12 5 -9 -6 4 -15 1 -19 -6 -4 -7 -4 -10 1 -6
4 4 14 0 22 -10 8 -9 11 -11 7 -3 -5 10 -3 12 5 6 9 -5 9 -11 3 -17 -12 -12
-4 -41 8 -33 11 7 23 -31 15 -44 -3 -5 6 -21 20 -35 14 -14 21 -26 15 -26 -6
0 -1 -10 10 -22 11 -12 18 -28 16 -35 -3 -7 2 -13 10 -13 8 0 12 -4 9 -10 -3
-5 -1 -10 4 -10 6 0 10 -6 9 -12 -2 -7 2 -12 9 -11 7 2 10 -6 8 -17 -2 -11 1
-20 6 -20 6 0 7 -6 3 -12 -5 -9 -2 -9 9 1 15 12 17 11 17 -14 0 -19 4 -26 14
-22 10 4 12 -1 9 -16 -4 -18 -3 -20 7 -7 10 13 11 11 7 -7 -3 -12 -2 -22 2
-21 25 3 32 -4 26 -24 -5 -18 -4 -20 4 -8 8 11 11 12 11 2 0 -7 4 -10 10 -7 6
3 7 -1 4 -9 -4 -11 0 -16 10 -16 9 0 16 -8 16 -20 0 -11 6 -19 13 -18 6 2 11
-3 9 -9 -1 -7 4 -13 10 -13 14 0 88 -77 88 -92 0 -5 4 -7 9 -4 5 3 11 -1 15
-9 3 -8 12 -15 20 -15 8 0 17 -9 21 -19 3 -11 12 -18 19 -15 8 3 16 -4 19 -15
4 -15 10 -19 23 -14 12 4 15 3 10 -5 -5 -8 0 -12 13 -12 12 0 21 -5 21 -10 0
-6 11 -15 25 -22 13 -6 21 -16 18 -22 -4 -6 1 -5 11 3 9 8 16 10 15 5 -3 -19
1 -34 12 -34 5 0 7 5 4 10 -3 6 -2 10 4 10 5 0 13 -9 16 -20 4 -11 15 -20 26
-20 11 0 17 -4 14 -10 -3 -6 1 -7 9 -4 9 4 18 -1 22 -10 3 -9 10 -16 16 -16 5
0 6 5 2 12 -4 7 -3 8 4 4 7 -4 12 -15 12 -24 0 -15 2 -15 10 -2 6 10 10 11 10
3 0 -7 9 -13 19 -13 11 0 23 -4 26 -10 3 -5 16 -15 28 -22 21 -11 21 -10 7 8
-14 18 -14 18 3 5 9 -7 17 -21 17 -30 0 -9 3 -12 8 -6 4 6 14 10 22 10 17 -1
60 -24 45 -25 -6 0 -17 6 -25 13 -12 10 -12 9 -1 -5 16 -21 37 -23 44 -5 3 6
6 3 6 -8 1 -17 3 -17 11 -5 7 12 10 12 10 1 0 -7 6 -11 14 -8 10 4 13 1 10 -7
-3 -8 0 -17 7 -22 7 -4 10 -3 6 3 -4 6 4 11 18 11 14 0 25 -4 25 -8 0 -4 7
-11 16 -14 8 -3 12 -2 9 3 -3 5 -1 13 5 16 6 4 10 3 9 -2 -1 -4 -1 -15 0 -23
1 -13 2 -13 11 0 8 12 10 12 10 1 0 -8 3 -11 7 -8 3 4 13 1 21 -6 13 -10 15
-9 8 7 -7 19 -6 19 14 1 11 -10 20 -14 20 -9 0 5 4 5 8 -1 4 -5 18 -16 32 -24
24 -14 24 -13 10 5 -15 18 -14 18 14 0 16 -10 25 -13 22 -7 -4 6 -2 11 3 11 6
0 11 -6 11 -12 0 -10 2 -10 9 0 7 11 9 11 14 -1 4 -12 14 -13 42 -7 28 6 38 5
42 -6 3 -8 12 -14 20 -14 9 0 11 5 7 13 -6 9 -4 9 8 -1 23 -18 414 -13 410 6
-1 8 2 11 8 7 6 -3 8 -11 5 -16 -4 -5 -2 -9 4 -9 5 0 12 6 14 13 4 9 6 9 6 0
1 -16 31 -17 31 -2 0 5 -5 7 -12 3 -7 -5 -8 -3 -4 5 6 9 13 8 29 -6 12 -10 19
-14 15 -9 -4 4 -2 14 5 21 9 10 14 10 22 0 8 -9 15 -9 35 1 14 8 19 14 11 14
-8 0 -11 3 -8 7 4 3 16 -2 27 -12 20 -18 21 -18 14 1 -7 17 -6 17 9 5 15 -12
17 -12 11 2 -4 12 0 15 21 13 20 -3 25 0 21 13 -4 11 -2 10 9 -3 8 -11 15 -14
15 -8 0 10 5 10 23 1 21 -12 21 -11 7 6 -8 10 -10 16 -3 12 6 -4 14 -3 18 2 3
6 12 8 20 4 9 -3 15 1 15 8 0 12 2 12 9 1 6 -11 10 -10 15 3 5 13 9 15 20 6
10 -9 15 -8 20 4 3 9 10 13 16 10 5 -3 10 -1 10 4 0 6 5 11 11 11 5 0 7 -5 4
-10 -3 -6 -1 -10 5 -10 6 0 13 7 16 15 4 8 14 15 23 15 9 0 23 6 30 13 11 10
13 9 7 -3 -6 -12 -5 -12 6 1 7 9 19 14 27 11 8 -2 11 0 8 5 -3 5 4 10 15 10
11 1 27 10 35 20 8 10 12 13 9 6 -4 -6 21 2 54 19 33 16 60 32 60 34 0 3 -5 2
-12 -2 -7 -4 -8 -3 -4 5 6 9 11 9 22 0 12 -10 13 -9 7 7 -6 17 -5 18 12 4 11
-9 16 -10 11 -2 -4 7 -2 12 4 12 6 0 8 5 4 13 -5 7 0 6 11 -3 10 -8 16 -10 12
-4 -6 11 19 29 36 26 4 -1 6 4 5 10 -2 7 4 13 12 13 24 0 53 32 44 47 -6 11
-5 11 8 0 13 -10 17 -10 22 3 3 9 10 13 16 10 5 -3 10 -1 10 4 0 6 6 10 13 9
6 -2 11 2 10 8 -1 7 8 20 20 30 21 19 21 19 7 -1 -14 -19 -14 -19 3 -6 10 8
16 20 13 27 -3 9 0 11 11 7 11 -4 14 -2 9 5 -5 8 0 12 13 12 11 0 22 9 26 20
3 11 10 20 15 20 4 0 10 9 13 20 3 13 10 18 21 14 12 -4 16 0 16 16 0 11 5 18
10 15 6 -3 10 1 10 10 0 9 4 14 9 11 5 -3 12 5 15 19 4 14 13 25 22 25 9 0 12
5 8 13 -5 8 -2 7 9 -2 15 -12 17 -12 11 4 -5 13 -4 16 4 11 16 -10 15 6 0 23
-7 8 -8 11 -2 8 6 -3 11 0 11 8 0 10 -5 11 -16 5 -18 -9 -51 9 -51 29 0 6 -5
11 -11 11 -5 0 -7 -6 -3 -12 4 -7 -2 -4 -13 7 -11 11 -18 25 -15 30 3 6 -2 4
-11 -4 -15 -12 -17 -12 -11 4 5 13 4 16 -4 11 -7 -4 -12 -2 -12 4 0 6 -4 9 -9
6 -5 -3 -17 2 -28 12 -10 9 -12 13 -3 7 13 -9 13 -8 2 7 -8 9 -20 14 -28 11
-8 -3 -14 0 -14 7 0 6 -4 8 -10 5 -5 -3 -10 -1 -10 4 0 6 -7 11 -16 11 -8 0
-13 4 -9 9 3 5 -8 9 -25 9 -18 -1 -30 -6 -30 -14 0 -7 -9 -18 -21 -24 -11 -7
-18 -14 -15 -17 2 -3 -5 -15 -18 -27 -18 -17 -18 -18 -1 -6 20 15 20 15 1 -7
-10 -12 -27 -25 -37 -28 -10 -4 -18 -9 -18 -13 3 -20 -2 -25 -11 -12 -8 13
-10 12 -11 -5 -1 -11 -1 -23 0 -27 0 -4 -6 -5 -14 -2 -10 4 -15 0 -15 -12 0
-9 -3 -14 -7 -11 -3 4 -13 -3 -21 -14 -12 -17 -16 -18 -24 -8 -7 10 -8 8 -5
-9 3 -12 1 -20 -4 -16 -5 3 -9 0 -9 -7 0 -8 -5 -8 -17 2 -10 7 -15 10 -11 5
11 -13 -12 -48 -27 -42 -8 3 -17 0 -21 -6 -5 -7 -2 -8 7 -3 12 7 12 6 1 -7 -8
-9 -20 -14 -28 -11 -7 3 -17 -2 -20 -11 -3 -9 -10 -13 -15 -10 -5 3 -9 -1 -9
-9 0 -8 -8 -14 -17 -13 -10 0 -17 -4 -16 -9 1 -6 -7 -12 -18 -13 -42 -4 -48
-6 -43 -14 3 -4 -2 -16 -12 -25 -16 -16 -16 -16 -9 6 6 20 3 19 -24 -10 -17
-19 -31 -28 -31 -21 0 6 5 12 10 12 6 0 10 5 10 12 0 6 -11 1 -24 -11 -14 -13
-29 -20 -35 -16 -6 3 -11 -1 -11 -9 0 -17 -9 -20 -47 -16 -13 1 -23 -3 -23 -9
0 -6 -5 -11 -11 -11 -5 0 -7 5 -3 12 4 7 3 8 -5 4 -6 -4 -9 -11 -6 -16 3 -5 1
-11 -5 -15 -5 -3 -10 -1 -10 6 0 8 -6 7 -18 -4 -13 -12 -22 -13 -36 -5 -13 7
-17 7 -12 0 3 -6 2 -13 -4 -17 -5 -3 -10 0 -10 7 0 10 -2 10 -9 -1 -5 -7 -14
-10 -20 -7 -6 4 -11 2 -11 -5 0 -9 -3 -9 -14 0 -11 9 -21 6 -45 -15 -22 -18
-35 -24 -42 -17 -7 7 -7 13 2 18 8 5 10 4 5 -3 -4 -7 -3 -12 3 -12 5 0 13 5
16 10 3 6 1 10 -5 10 -6 0 -8 6 -4 13 4 6 -2 4 -13 -6 -11 -9 -23 -14 -27 -10
-4 5 -7 3 -6 -2 5 -23 -1 -28 -13 -10 -11 14 -16 15 -22 5 -6 -9 -4 -11 5 -5
9 5 11 4 6 -4 -6 -8 -12 -9 -20 -2 -9 7 -16 7 -25 -2 -9 -9 -14 -9 -21 3 -9
13 -10 13 -10 0 0 -13 -1 -13 -10 0 -5 8 -10 10 -10 5 0 -6 -12 -11 -27 -11
-16 -1 -42 -4 -60 -7 -17 -3 -42 1 -56 8 -14 7 -30 9 -38 5 -7 -5 -22 -4 -32
2 -16 8 -19 7 -14 -5 4 -11 0 -13 -14 -10 -10 3 -19 9 -19 15 0 5 -8 4 -19 -2
-14 -7 -22 -7 -26 0 -4 6 -12 10 -18 9 -7 -1 -21 -1 -32 0 -17 1 -18 3 -5 11
8 5 10 10 4 10 -6 0 -14 -3 -18 -7 -9 -9 -46 -11 -40 -2 7 12 -19 17 -38 7
-14 -7 -16 -5 -11 8 5 14 3 15 -17 4 -12 -7 -20 -8 -16 -2 3 5 -1 12 -8 15 -8
3 -17 1 -20 -6 -2 -7 -5 -4 -5 6 -1 9 -6 17 -12 17 -5 0 -8 -4 -5 -9 8 -13
-19 -8 -36 7 -8 6 -18 9 -21 5 -4 -3 -7 -1 -7 6 0 8 -8 11 -19 8 -15 -4 -18
-1 -13 12 5 14 4 14 -13 1 -10 -8 -16 -10 -12 -4 4 7 -1 15 -11 19 -29 13 -42
14 -36 3 4 -7 2 -8 -4 -4 -7 4 -12 15 -12 24 0 15 -2 15 -10 2 -7 -11 -10 -11
-10 -2 0 7 -4 10 -10 7 -5 -3 -10 2 -10 11 0 14 -3 15 -12 6 -7 -7 -16 -12
-22 -12 -5 0 -7 3 -3 6 3 4 0 13 -8 20 -17 17 -28 18 -20 2 3 -7 -2 -3 -11 9
-9 13 -25 23 -35 23 -10 0 -24 9 -31 19 -10 16 -15 18 -27 8 -12 -9 -13 -9 -7
1 4 7 2 12 -4 12 -6 0 -9 3 -7 8 2 4 -10 18 -27 32 l-31 24 20 -24 20 -24 -26
20 c-15 10 -24 25 -22 32 4 8 0 10 -11 6 -9 -3 -16 -1 -16 6 0 6 -5 8 -12 4
-10 -6 -10 -4 0 8 11 14 10 16 -13 14 -14 -2 -28 1 -32 7 -3 6 -1 7 5 3 16
-10 15 2 -2 19 -7 8 -16 11 -20 8 -6 -6 -10 13 -7 31 1 5 -6 3 -15 -5 -12 -9
-15 -9 -10 -1 4 6 3 12 -2 12 -5 0 -15 13 -22 30 -7 16 -16 27 -21 25 -4 -3
-13 4 -20 16 -6 13 -22 33 -35 46 -14 14 -21 30 -18 36 4 7 4 9 -1 5 -9 -8
-35 15 -35 31 0 6 -6 11 -12 11 -9 0 -8 4 2 10 13 8 13 10 -2 10 -12 0 -16 5
-11 17 3 10 3 15 -2 11 -4 -4 -14 -1 -21 7 -19 19 -18 26 4 18 9 -4 3 6 -15
21 -21 18 -30 32 -26 43 5 12 3 14 -8 8 -11 -7 -11 -5 1 10 9 11 10 16 2 11
-7 -4 -12 -2 -12 4 0 6 -5 8 -12 4 -9 -5 -9 -2 1 9 12 15 9 21 -12 18 -4 0 -6
2 -6 6 1 5 0 11 -1 16 -5 15 -8 27 -9 43 0 8 -5 13 -9 10 -4 -2 -8 4 -8 14 0
14 3 16 13 8 10 -8 12 -7 7 6 -3 9 -10 16 -16 16 -5 0 -6 9 -3 20 5 15 2 20
-11 20 -10 0 -14 3 -11 7 4 3 1 13 -6 21 -10 13 -9 15 6 9 17 -6 16 -4 -2 19
-16 21 -18 30 -10 40 9 11 8 14 -1 14 -9 0 -9 4 1 17 12 14 12 16 0 8 -11 -6
-13 -4 -8 8 3 10 2 17 -3 17 -6 0 -10 5 -10 11 0 5 4 8 8 5 10 -6 8 36 -2 52
-4 7 -2 12 3 12 6 0 11 4 11 10 0 5 -8 6 -17 3 -15 -6 -16 -4 -6 8 10 12 10
18 0 29 -10 10 -8 12 8 6 16 -5 15 -3 -5 14 -14 11 -18 18 -8 14 12 -4 17 0
17 13 0 10 1 32 3 50 2 17 0 31 -5 30 -5 -1 -12 4 -15 12 -3 9 0 11 7 7 8 -5
10 3 8 28 -2 20 -1 36 3 36 4 0 11 7 14 16 3 8 2 12 -4 9 -6 -3 -10 -2 -10 4
0 5 5 13 11 17 8 4 7 9 -2 15 -12 7 -12 10 0 21 11 11 13 11 6 -1 -6 -10 -4
-12 4 -7 9 6 9 11 0 22 -10 12 -9 13 7 7 17 -6 17 -5 5 10 -11 14 -11 17 0 17
8 0 5 6 -7 15 -18 14 -18 14 3 10 17 -3 21 1 18 16 -2 10 -7 24 -11 31 -5 7
-3 8 6 3 10 -6 12 -3 8 13 -4 12 -2 20 2 17 5 -3 10 5 12 17 2 13 9 22 16 20
10 -2 10 2 2 18 -10 19 -4 26 23 21 5 -1 6 3 2 9 -3 6 -12 7 -18 3 -8 -5 -8
-2 0 9 7 8 10 18 6 21 -6 7 12 11 30 8 5 -1 6 3 2 9 -3 6 -12 8 -18 4 -7 -3
-3 2 8 11 11 9 20 19 20 23 0 4 3 6 6 5 3 -1 4 10 1 24 -3 18 -1 24 7 19 10
-7 16 13 12 38 -1 5 5 6 14 2 9 -3 13 -2 10 3 -3 5 0 13 6 16 5 4 8 14 5 22
-5 11 -2 13 10 9 12 -4 14 -1 9 13 -3 11 0 23 6 27 8 5 9 3 4 -6 -5 -9 -4 -11
3 -6 7 4 12 17 12 28 0 12 3 18 7 15 3 -4 11 3 18 16 6 12 19 21 28 21 14 -2
15 1 7 11 -8 10 -6 15 9 20 12 3 21 15 21 26 0 10 5 19 11 19 5 0 7 -6 3 -12
-6 -10 -3 -9 8 0 9 8 15 19 12 26 -3 7 13 29 35 49 39 36 59 47 46 27 -3 -5
-4 -10 0 -10 3 0 10 12 16 27 8 22 12 24 19 13 8 -13 10 -12 10 3 0 9 5 17 11
17 5 0 7 5 3 12 -4 6 -3 8 4 4 6 -3 13 -2 17 4 4 6 12 7 18 3 7 -4 6 1 -2 10
-12 15 -12 17 4 11 12 -5 16 -4 12 3 -4 6 1 10 11 9 10 0 16 5 14 15 -1 9 4
16 13 16 8 0 12 -4 9 -9 -3 -4 2 -5 10 -2 9 3 15 9 14 12 -2 19 4 23 17 12 13
-11 14 -10 10 3 -4 8 -1 18 6 23 8 4 10 3 5 -4 -5 -8 -2 -10 8 -6 9 3 14 11
13 17 -1 7 8 11 21 11 18 -1 20 1 11 12 -16 20 -4 17 16 -2 15 -16 16 -16 13
2 -2 12 2 18 11 16 7 -1 20 5 28 15 8 10 12 12 8 6 -10 -20 27 -3 47 22 10 11
17 15 18 8 0 -7 -4 -13 -10 -13 -5 0 -10 -5 -10 -10 0 -6 11 -3 24 7 13 10 21
23 18 28 -3 6 1 4 10 -3 13 -10 18 -10 24 -1 5 8 3 10 -7 4 -8 -5 -11 -4 -6 1
9 9 14 11 48 13 13 1 18 5 13 14 -6 8 -3 8 9 -1 18 -15 41 -7 30 11 -4 7 2 5
12 -3 11 -9 16 -10 11 -2 -4 6 -4 12 1 13 4 0 26 2 48 4 58 4 57 4 49 18 -5 7
0 6 11 -3 11 -9 16 -10 11 -2 -4 6 -2 12 3 12 6 0 11 -5 11 -11 0 -5 5 -7 10
-4 6 4 8 10 6 14 -3 4 1 8 9 8 8 0 15 -5 15 -11 0 -6 5 -4 10 4 5 8 10 11 10
6 0 -5 8 -2 17 5 14 12 16 12 8 0 -6 -11 -4 -13 7 -8 9 3 21 0 27 -6 9 -9 11
-7 5 8 -4 11 -4 17 1 13 4 -4 15 -2 23 5 13 9 14 9 8 0 -4 -7 -3 -13 3 -13 5
0 12 3 14 8 4 6 36 7 80 3 5 -1 5 -5 2 -11 -3 -6 1 -7 9 -4 9 3 14 10 11 14
-3 5 0 12 6 16 8 4 9 3 5 -4 -4 -7 -2 -12 4 -12 6 0 8 -4 5 -10 -3 -6 1 -7 9
-4 9 3 14 9 12 13 -3 4 4 7 14 7 10 0 17 -3 14 -7 -2 -4 3 -9 11 -12 9 -4 12
-1 9 8 -4 9 1 12 13 10 10 -2 22 -4 26 -4 5 -1 5 -7 1 -13 -5 -9 -2 -9 9 1 13
10 17 10 17 1 0 -10 3 -10 15 0 8 7 15 8 15 3 0 -5 22 -9 49 -9 39 1 47 -2 43
-14 -5 -13 -4 -13 13 0 11 9 16 10 11 3 -4 -7 -2 -14 3 -14 14 -2 30 -6 34 -8
1 -2 13 -4 27 -7 19 -3 21 -2 10 6 -25 16 3 11 30 -6 18 -11 19 -14 5 -9 -16
5 -18 4 -7 -6 9 -10 15 -10 24 -1 9 9 14 7 23 -5 13 -17 49 -28 39 -12 -3 5 0
9 5 9 6 0 11 -7 11 -17 0 -9 3 -13 7 -10 3 4 13 1 21 -6 13 -10 14 -9 7 3 -8
13 -7 13 9 1 13 -11 14 -16 4 -22 -7 -5 -8 -9 -3 -9 6 0 16 5 23 12 9 9 12 9
12 0 0 -6 7 -9 15 -6 11 5 13 2 9 -9 -4 -12 -1 -15 15 -12 14 3 21 -1 22 -13
0 -10 3 -12 6 -5 6 15 33 -8 34 -29 0 -7 4 -4 9 7 8 18 9 19 9 1 1 -12 6 -16
17 -12 8 3 13 2 11 -2 -3 -4 1 -13 9 -20 8 -7 14 -9 14 -5 1 4 7 -3 16 -17
l15 -25 -6 25 c-5 24 -5 24 10 -3 11 -18 22 -26 31 -23 9 3 12 1 9 -4 -3 -6
-1 -10 4 -10 6 0 11 -8 12 -17 0 -10 3 -13 6 -6 3 8 12 5 27 -10 13 -12 21
-25 19 -29 -2 -5 3 -8 11 -8 9 0 16 -4 16 -10 0 -5 6 -10 14 -10 10 0 13 -7
11 -21 -4 -18 -2 -19 13 -8 9 7 14 9 10 5 -5 -5 1 -15 12 -23 11 -8 20 -18 20
-23 0 -15 33 -50 47 -50 7 0 12 -3 12 -7 -3 -21 3 -33 17 -33 8 0 12 -4 9 -10
-3 -5 -1 -10 4 -10 6 0 11 -5 11 -11 0 -5 -5 -7 -12 -3 -7 4 -8 3 -4 -5 4 -6
12 -8 18 -5 7 5 9 1 5 -9 -4 -12 -2 -14 10 -10 11 4 14 2 9 -5 -4 -7 -2 -12 3
-12 6 0 11 -6 11 -13 0 -7 9 -18 21 -25 12 -8 18 -9 15 -3 -4 7 -1 8 8 5 9 -3
14 -9 11 -13 -2 -4 2 -8 10 -8 8 0 12 4 10 8 -3 4 2 10 11 13 8 3 12 2 9 -3
-3 -5 -1 -12 4 -15 5 -3 12 1 15 10 4 11 10 13 19 6 6 -5 22 -8 35 -7 12 1 22
-3 22 -9 0 -6 5 -4 10 4 8 12 12 13 19 2 7 -11 9 -11 14 2 4 9 12 16 19 15 10
0 10 -2 1 -6 -19 -7 -16 -19 5 -19 13 0 18 7 16 22 -1 14 2 21 10 18 8 -3 12
8 12 31 0 36 -4 41 -22 28 -5 -5 -1 0 9 10 11 9 14 17 8 17 -7 0 -9 5 -6 10 4
6 11 7 17 4 7 -4 8 -2 4 5 -4 6 -12 9 -17 6 -13 -9 -11 9 3 23 13 13 -2 17
-18 5 -5 -5 -1 0 9 10 11 9 14 17 8 17 -7 0 -9 5 -6 10 4 6 11 7 17 4 7 -4 8
-2 4 5 -4 6 -11 9 -16 6 -4 -3 -11 2 -14 11 -3 8 -2 12 3 9 5 -3 12 -1 16 5 3
5 0 10 -7 10 -9 0 -9 3 2 10 12 8 12 10 -5 11 l-20 0 20 9 c11 5 14 9 7 9 -8
1 -10 6 -5 14 11 18 12 37 2 37 -5 0 -9 5 -9 11 0 5 5 7 12 3 7 -4 8 -3 4 4
-4 7 -1 12 6 12 8 0 6 5 -5 11 -18 10 -18 11 0 25 17 13 17 14 -1 7 -14 -4
-17 -2 -14 8 3 8 11 13 17 11 7 -1 10 2 6 8 -3 6 -11 7 -17 4 -7 -5 -8 -2 -2
7 13 21 14 39 1 39 -7 0 -5 5 3 10 12 8 12 10 -5 10 -16 0 -17 2 -6 9 8 5 15
19 16 30 2 22 -5 26 -21 14 -5 -5 -1 0 9 10 11 9 14 17 8 17 -7 0 -9 5 -6 10
4 6 11 7 17 4 7 -4 8 -2 4 5 -4 6 -12 9 -17 6 -13 -9 -11 9 3 23 13 13 -2 17
-18 5 -5 -5 -1 0 9 10 11 9 14 17 8 17 -7 0 -9 5 -6 10 4 6 11 7 17 4 7 -4 8
-2 4 5 -4 6 -11 9 -16 6 -4 -3 -11 2 -14 11 -3 8 -2 12 3 9 5 -3 12 -1 16 5 3
5 0 10 -7 10 -9 0 -9 3 2 10 12 8 12 10 -5 11 l-20 0 20 9 c11 5 14 9 6 9 -11
1 -11 4 0 18 12 15 12 16 -6 10 -18 -6 -18 -6 -3 6 15 12 15 14 0 25 -15 10
-15 11 2 5 15 -5 17 -3 10 8 -13 21 -14 40 -1 33 7 -3 1 4 -11 15 -24 21 -45
23 -71 7 -10 -6 -12 -5 -7 2 9 15 -121 17 -159 2 -17 -7 -24 -7 -20 0 4 6 -8
10 -30 10 -20 0 -34 -4 -31 -9 4 -5 -3 -7 -14 -4 -18 5 -19 3 -11 -20 9 -22 8
-25 -7 -21 -15 5 -15 4 -2 -8 9 -8 15 -30 15 -54 0 -30 3 -40 13 -37 7 3 12 2
11 -3 -1 -5 0 -11 1 -14 6 -17 7 -40 1 -40 -9 0 -6 -48 4 -57 4 -5 4 -1 0 7
-8 13 -6 13 8 1 15 -12 15 -31 1 -31 -3 0 -2 5 2 12 4 7 3 8 -5 4 -6 -4 -8
-13 -4 -19 4 -7 8 -16 8 -22 1 -5 6 -9 12 -8 6 1 9 -12 6 -32 -2 -24 1 -35 9
-35 9 0 8 -3 -2 -10 -8 -5 -10 -10 -5 -10 9 0 15 -21 18 -67 0 -7 5 -13 11
-13 6 0 4 -5 -4 -10 -12 -8 -12 -10 -1 -10 11 0 11 -3 0 -17 -12 -14 -12 -16
0 -8 11 6 13 3 8 -14 -3 -12 1 -27 8 -35 11 -10 11 -16 2 -26 -9 -10 -9 -12 3
-8 12 4 15 -4 14 -43 -1 -43 0 -48 14 -37 13 11 14 10 4 -7 -13 -25 -58 -30
-78 -10 -9 8 -12 15 -8 15 4 0 -1 7 -12 16 -10 8 -13 12 -5 8 9 -5 12 -3 7 4
-4 7 -15 12 -24 13 -14 0 -13 2 3 9 14 6 16 9 5 10 -8 2 -18 2 -22 1 -5 0 -7
2 -7 7 4 24 -3 42 -17 42 -8 0 -12 5 -9 10 3 6 1 10 -5 10 -6 0 -8 5 -5 10 3
6 -1 10 -10 10 -9 0 -13 5 -10 10 3 6 1 10 -6 10 -7 0 -9 3 -6 6 7 8 -31 44
-46 44 -5 0 -4 7 3 15 10 12 8 14 -9 10 -11 -2 -20 -1 -20 3 3 20 -2 32 -11
27 -5 -3 -10 0 -10 8 0 8 -7 18 -16 21 -8 3 -12 11 -8 17 4 7 -1 7 -16 -1 -12
-7 -20 -7 -16 -2 3 6 0 17 -8 25 -8 8 -12 18 -8 21 3 4 -1 4 -11 0 -12 -4 -17
-1 -17 10 0 15 -12 21 -34 17 -5 -1 -3 6 5 15 12 15 12 17 0 9 -9 -5 -19 -2
-28 10 -7 11 -13 15 -13 11 0 -4 -7 0 -16 8 -8 9 -21 13 -27 9 -7 -4 -6 1 2
10 12 15 12 17 -3 11 -11 -4 -24 2 -39 19 -12 13 -30 23 -39 22 -10 -2 -18 1
-18 7 0 6 -7 7 -16 4 -8 -3 -12 -2 -9 4 3 6 -1 10 -9 10 -8 0 -18 5 -22 12 -5
7 -3 8 6 3 9 -5 11 -4 6 4 -6 9 -11 9 -21 1 -10 -8 -15 -8 -21 1 -5 8 -3 9 6
4 8 -5 11 -4 7 3 -4 5 -15 9 -25 8 -9 -2 -22 5 -29 14 -12 17 -39 20 -60 7 -8
-5 -11 -1 -8 11 2 11 -3 19 -10 19 -8 0 -12 -4 -9 -9 8 -13 -6 -9 -22 7 -8 8
-22 11 -31 8 -11 -4 -14 -3 -9 5 4 7 1 12 -9 12 -10 0 -13 -5 -9 -12 5 -7 3
-8 -7 -2 -14 9 -19 10 -40 13 -5 0 -8 5 -5 10 3 4 -9 7 -27 6 -48 -2 -60 4
-45 24 8 10 3 8 -11 -4 -18 -15 -23 -16 -19 -5 5 12 -1 16 -26 15 -17 0 -37
-4 -45 -9 -10 -6 -12 -5 -7 2 11 18 -355 17 -373 0 -8 -8 -11 -8 -8 -2 5 8 -5
11 -27 11 -19 -1 -33 -5 -30 -9z m1558 -726 c3 -5 -1 -9 -9 -9 -8 0 -12 4 -9
9 3 4 7 8 9 8 2 0 6 -4 9 -8z m223 -117 c0 -8 -4 -12 -9 -9 -5 3 -6 10 -3 15
9 13 12 11 12 -6z m-3227 -539 c0 -3 -4 -8 -10 -11 -5 -3 -10 -1 -10 4 0 6 5
11 10 11 6 0 10 -2 10 -4z"/>
<path d="M2978 3213 c6 -2 9 -10 6 -15 -4 -7 -2 -8 5 -4 13 9 5 26 -12 25 -9
0 -8 -2 1 -6z"/>
<path d="M849 2719 l-24 -20 28 17 c15 9 27 18 27 20 0 8 -8 4 -31 -17z"/>
<path d="M65 1499 c-4 -6 -5 -12 -2 -15 2 -3 7 2 10 11 7 17 1 20 -8 4z"/>
<path d="M525 1310 c3 -5 8 -10 11 -10 2 0 4 5 4 10 0 6 -5 10 -11 10 -5 0 -7
-4 -4 -10z"/>
<path d="M180 1129 c0 -5 5 -7 10 -4 6 3 10 8 10 11 0 2 -4 4 -10 4 -5 0 -10
-5 -10 -11z"/>
<path d="M1600 130 c-13 -8 -12 -10 3 -10 9 0 17 5 17 10 0 12 -1 12 -20 0z"/>
</g>
</svg>
