<svg width="850" height="748" viewBox="0 0 850 748" fill="none" xmlns="http://www.w3.org/2000/svg">
<path d="M513.014 602.782C434.488 672.3 354.331 672.805 287.973 608.43C253.467 574.958 233.139 510.893 222.901 441.578C213.564 378.368 212.19 311.108 210.158 269.053C205.895 180.884 190.617 102.011 201.35 83.9459C215.15 60.7195 281.388 118.655 393.985 159.056C506.651 199.484 603.104 200.936 623.191 294.193C643.28 387.447 591.537 533.265 513.014 602.782ZM678.214 216.372C660.221 173.445 596.351 172.708 514.388 162.907C462.525 156.71 407.687 143.964 357.814 122.915C228.485 68.3358 169.137 0.573425 160.656 8.66095C150.764 18.0947 188.244 79.9775 192.439 252.625C196.639 425.476 149.554 684.913 355.785 736.44C445.543 758.864 533.06 696.068 595.394 603.243C672.271 488.768 715.092 304.356 678.214 216.372Z" fill="#E6E6AF"/>
</svg>
