<svg width="940" height="401" viewBox="0 0 940 401" fill="none" xmlns="http://www.w3.org/2000/svg">
<path d="M-46 224.74V224.74C25.1743 224.74 92.7042 256.22 138.467 310.732L174.513 353.67C190.388 372.579 211.834 385.987 235.786 391.976L237.031 392.288C271.596 400.931 308.216 392.99 336.095 370.803V370.803C350.611 359.251 362.103 344.345 369.581 327.366L416.855 220.031C442.54 161.713 511.557 136.438 568.831 164.375V164.375C574.644 167.21 580.692 169.539 586.907 171.333L597.239 174.316C671.273 195.694 750.669 167.171 794.175 103.569V103.569L844.55 27.8124C851.493 17.3713 862.005 9.82024 874.116 6.57416V6.57416C893.604 1.35105 914.347 7.98256 927.19 23.5419L979 86.3059" stroke="#1053FF" stroke-width="9.25753"/>
</svg>
