<svg width="405" height="366" viewBox="0 0 405 366" fill="none" xmlns="http://www.w3.org/2000/svg">
<rect x="0.320808" y="324.679" width="230.358" height="31.3583" rx="7.37859" transform="rotate(-90 0.320808 324.679)" fill="#1053FF" stroke="#1053FF" stroke-width="0.641616"/>
<rect x="34" y="325" width="168" height="33" rx="7.6994" transform="rotate(-90 34 325)" fill="#2E2E2E"/>
<rect x="69" y="325" width="190" height="28" rx="7.6994" transform="rotate(-90 69 325)" fill="#2E2E2E"/>
<rect x="99.3208" y="324.679" width="250.358" height="33.3583" rx="7.37859" transform="rotate(-90 99.3208 324.679)" fill="#1053FF" stroke="#1053FF" stroke-width="0.641616"/>
<rect x="135" y="325" width="231" height="33.9999" rx="7.6994" transform="rotate(-90 135 325)" fill="#2E2E2E"/>
<rect x="171.321" y="324.679" width="269.358" height="30.3583" rx="7.37859" transform="rotate(-90 171.321 324.679)" fill="#1053FF" stroke="#1053FF" stroke-width="0.641616"/>
<rect x="204.321" y="324.679" width="283.358" height="30.3583" rx="7.37859" transform="rotate(-90 204.321 324.679)" fill="#1053FF" stroke="#1053FF" stroke-width="0.641616"/>
<rect x="237.321" y="324.679" width="324.358" height="33.3583" rx="7.37859" transform="rotate(-90 237.321 324.679)" fill="#1053FF" stroke="#1053FF" stroke-width="0.641616"/>
<rect x="273" y="325" width="251" height="30.9999" rx="7.6994" transform="rotate(-90 273 325)" fill="#2E2E2E"/>
<rect x="306.321" y="324.679" width="283.358" height="31.3583" rx="7.37859" transform="rotate(-90 306.321 324.679)" fill="#1053FF" stroke="#1053FF" stroke-width="0.641616"/>
<rect x="340.321" y="324.679" width="305.358" height="30.3583" rx="7.37859" transform="rotate(-90 340.321 324.679)" fill="#1053FF" stroke="#1053FF" stroke-width="0.641616"/>
<rect x="373" y="325" width="270" height="31.9999" rx="7.6994" transform="rotate(-90 373 325)" fill="#2E2E2E"/>
<path d="M97.7431 364.89L97.7431 365.856H96.4971C95.6851 365.856 95.0831 365.679 94.6911 365.324C94.2991 364.969 94.1031 364.414 94.1031 363.658L94.1031 362.538H95.1951L95.1951 363.644C95.1951 364.101 95.2931 364.423 95.4891 364.61C95.6945 364.797 96.0351 364.89 96.5111 364.89H97.7431ZM94.6351 363.112C93.7298 363.112 92.9085 362.897 92.1711 362.468C91.4431 362.029 90.8691 361.432 90.4491 360.676C90.0385 359.911 89.8331 359.052 89.8331 358.1C89.8331 357.148 90.0385 356.294 90.4491 355.538C90.8691 354.773 91.4431 354.175 92.1711 353.746C92.9085 353.307 93.7298 353.088 94.6351 353.088C95.5405 353.088 96.3618 353.307 97.0991 353.746C97.8365 354.175 98.4105 354.773 98.8211 355.538C99.2411 356.294 99.4511 357.148 99.4511 358.1C99.4511 359.052 99.2411 359.911 98.8211 360.676C98.4105 361.432 97.8365 362.029 97.0991 362.468C96.3618 362.897 95.5405 363.112 94.6351 363.112ZM94.6351 362.034C95.3071 362.034 95.9138 361.866 96.4551 361.53C97.0058 361.185 97.4351 360.713 97.7431 360.116C98.0605 359.519 98.2191 358.847 98.2191 358.1C98.2191 357.353 98.0605 356.681 97.7431 356.084C97.4351 355.487 97.0058 355.02 96.4551 354.684C95.9138 354.339 95.3071 354.166 94.6351 354.166C93.9631 354.166 93.3518 354.339 92.8011 354.684C92.2598 355.02 91.8351 355.487 91.5271 356.084C91.2191 356.681 91.0651 357.353 91.0651 358.1C91.0651 358.847 91.2191 359.519 91.5271 360.116C91.8351 360.713 92.2598 361.185 92.8011 361.53C93.3518 361.866 93.9631 362.034 94.6351 362.034ZM104.33 363.112C103.668 363.112 103.07 362.981 102.538 362.72C102.006 362.449 101.586 362.076 101.278 361.6C100.97 361.115 100.816 360.555 100.816 359.92H101.992C101.992 360.34 102.095 360.709 102.3 361.026C102.506 361.343 102.786 361.591 103.14 361.768C103.495 361.945 103.892 362.034 104.33 362.034C105.012 362.034 105.553 361.875 105.954 361.558C106.356 361.241 106.556 360.793 106.556 360.214C106.556 359.654 106.356 359.22 105.954 358.912C105.562 358.604 105.021 358.45 104.33 358.45H103.532L103.532 357.4H104.316C104.886 357.4 105.338 357.241 105.674 356.924C106.01 356.607 106.178 356.201 106.178 355.706C106.178 355.221 106.006 354.843 105.66 354.572C105.315 354.301 104.844 354.166 104.246 354.166C103.686 354.166 103.234 354.325 102.888 354.642C102.543 354.959 102.356 355.407 102.328 355.986H101.166C101.185 355.407 101.33 354.899 101.6 354.46C101.871 354.021 102.235 353.685 102.692 353.452C103.159 353.209 103.682 353.088 104.26 353.088C104.858 353.088 105.394 353.2 105.87 353.424C106.346 353.639 106.72 353.942 106.99 354.334C107.261 354.726 107.396 355.169 107.396 355.664C107.396 356.149 107.261 356.588 106.99 356.98C106.72 357.372 106.384 357.661 105.982 357.848C106.514 358.025 106.948 358.324 107.284 358.744C107.62 359.164 107.788 359.659 107.788 360.228C107.788 360.835 107.63 361.357 107.312 361.796C107.004 362.225 106.584 362.552 106.052 362.776C105.53 363 104.956 363.112 104.33 363.112ZM112.727 356.378C112.708 355.715 112.825 355.137 113.077 354.642C113.338 354.147 113.716 353.765 114.211 353.494C114.705 353.223 115.289 353.088 115.961 353.088C116.577 353.088 117.123 353.209 117.599 353.452C118.084 353.695 118.462 354.04 118.733 354.488C119.003 354.927 119.139 355.435 119.139 356.014C119.139 356.658 118.943 357.241 118.551 357.764C118.168 358.287 117.603 358.735 116.857 359.108L115.457 359.822C115.419 359.841 115.382 359.859 115.345 359.878C115.307 359.897 115.275 359.915 115.247 359.934C114.817 360.177 114.463 360.471 114.183 360.816C113.903 361.152 113.763 361.521 113.763 361.922H119.195L119.195 363H112.601L112.601 362.146C112.601 361.362 112.834 360.695 113.301 360.144C113.777 359.584 114.332 359.141 114.967 358.814L116.465 358.044C116.978 357.792 117.347 357.498 117.571 357.162C117.795 356.826 117.907 356.439 117.907 356C117.907 355.44 117.725 354.992 117.361 354.656C116.997 354.311 116.53 354.138 115.961 354.138C115.335 354.138 114.836 354.343 114.463 354.754C114.099 355.165 113.931 355.706 113.959 356.378H112.727ZM123.696 363.112C122.539 363.112 121.694 362.729 121.162 361.964C120.63 361.189 120.364 360.032 120.364 358.492L120.364 357.708C120.364 356.168 120.63 355.015 121.162 354.25C121.694 353.475 122.539 353.088 123.696 353.088H124.186C125.353 353.088 126.202 353.475 126.734 354.25C127.266 355.015 127.532 356.168 127.532 357.708L127.532 358.492C127.532 360.032 127.266 361.189 126.734 361.964C126.202 362.729 125.353 363.112 124.186 363.112H123.696ZM124.172 362.034C124.919 362.034 125.465 361.759 125.81 361.208C126.165 360.648 126.342 359.789 126.342 358.632L126.342 357.568C126.342 356.411 126.165 355.557 125.81 355.006C125.465 354.446 124.919 354.166 124.172 354.166H123.738C122.982 354.166 122.432 354.446 122.086 355.006C121.741 355.557 121.568 356.411 121.568 357.568L121.568 358.632C121.568 359.789 121.741 360.648 122.086 361.208C122.432 361.759 122.982 362.034 123.738 362.034H124.172ZM128.942 356.378C128.923 355.715 129.04 355.137 129.292 354.642C129.553 354.147 129.931 353.765 130.426 353.494C130.92 353.223 131.504 353.088 132.176 353.088C132.792 353.088 133.338 353.209 133.814 353.452C134.299 353.695 134.677 354.04 134.948 354.488C135.218 354.927 135.354 355.435 135.354 356.014C135.354 356.658 135.158 357.241 134.766 357.764C134.383 358.287 133.818 358.735 133.072 359.108L131.672 359.822C131.634 359.841 131.597 359.859 131.56 359.878C131.522 359.897 131.49 359.915 131.462 359.934C131.032 360.177 130.678 360.471 130.398 360.816C130.118 361.152 129.978 361.521 129.978 361.922H135.41L135.41 363H128.816L128.816 362.146C128.816 361.362 129.049 360.695 129.516 360.144C129.992 359.584 130.547 359.141 131.182 358.814L132.68 358.044C133.193 357.792 133.562 357.498 133.786 357.162C134.01 356.826 134.122 356.439 134.122 356C134.122 355.44 133.94 354.992 133.576 354.656C133.212 354.311 132.745 354.138 132.176 354.138C131.55 354.138 131.051 354.343 130.678 354.754C130.314 355.165 130.146 355.706 130.174 356.378H128.942ZM136.789 356.378C136.771 355.715 136.887 355.137 137.139 354.642C137.401 354.147 137.779 353.765 138.273 353.494C138.768 353.223 139.351 353.088 140.023 353.088C140.639 353.088 141.185 353.209 141.661 353.452C142.147 353.695 142.525 354.04 142.795 354.488C143.066 354.927 143.201 355.435 143.201 356.014C143.201 356.658 143.005 357.241 142.613 357.764C142.231 358.287 141.666 358.735 140.919 359.108L139.519 359.822C139.482 359.841 139.445 359.859 139.407 359.878C139.37 359.897 139.337 359.915 139.309 359.934C138.88 360.177 138.525 360.471 138.245 360.816C137.965 361.152 137.825 361.521 137.825 361.922H143.257L143.257 363H136.663L136.663 362.146C136.663 361.362 136.897 360.695 137.363 360.144C137.839 359.584 138.395 359.141 139.029 358.814L140.527 358.044C141.041 357.792 141.409 357.498 141.633 357.162C141.857 356.826 141.969 356.439 141.969 356C141.969 355.44 141.787 354.992 141.423 354.656C141.059 354.311 140.593 354.138 140.023 354.138C139.398 354.138 138.899 354.343 138.525 354.754C138.161 355.165 137.993 355.706 138.021 356.378H136.789Z" fill="white"/>
<path d="M304.538 364.89L304.538 365.856H303.292C302.48 365.856 301.878 365.679 301.486 365.324C301.094 364.969 300.898 364.414 300.898 363.658L300.898 362.538H301.99L301.99 363.644C301.99 364.101 302.088 364.423 302.284 364.61C302.489 364.797 302.83 364.89 303.306 364.89H304.538ZM301.43 363.112C300.525 363.112 299.703 362.897 298.966 362.468C298.238 362.029 297.664 361.432 297.244 360.676C296.833 359.911 296.628 359.052 296.628 358.1C296.628 357.148 296.833 356.294 297.244 355.538C297.664 354.773 298.238 354.175 298.966 353.746C299.703 353.307 300.525 353.088 301.43 353.088C302.335 353.088 303.157 353.307 303.894 353.746C304.631 354.175 305.205 354.773 305.616 355.538C306.036 356.294 306.246 357.148 306.246 358.1C306.246 359.052 306.036 359.911 305.616 360.676C305.205 361.432 304.631 362.029 303.894 362.468C303.157 362.897 302.335 363.112 301.43 363.112ZM301.43 362.034C302.102 362.034 302.709 361.866 303.25 361.53C303.801 361.185 304.23 360.713 304.538 360.116C304.855 359.519 305.014 358.847 305.014 358.1C305.014 357.353 304.855 356.681 304.538 356.084C304.23 355.487 303.801 355.02 303.25 354.684C302.709 354.339 302.102 354.166 301.43 354.166C300.758 354.166 300.147 354.339 299.596 354.684C299.055 355.02 298.63 355.487 298.322 356.084C298.014 356.681 297.86 357.353 297.86 358.1C297.86 358.847 298.014 359.519 298.322 360.116C298.63 360.713 299.055 361.185 299.596 361.53C300.147 361.866 300.758 362.034 301.43 362.034ZM312.539 363L312.539 360.564H307.289L307.289 359.472L312.343 353.2H313.743L313.743 359.472H315.269L315.269 360.564H313.743L313.743 363H312.539ZM308.563 359.472H312.553L312.553 354.516L308.563 359.472ZM319.932 356.378C319.913 355.715 320.03 355.137 320.282 354.642C320.543 354.147 320.921 353.765 321.416 353.494C321.91 353.223 322.494 353.088 323.166 353.088C323.782 353.088 324.328 353.209 324.804 353.452C325.289 353.695 325.667 354.04 325.938 354.488C326.208 354.927 326.344 355.435 326.344 356.014C326.344 356.658 326.148 357.241 325.756 357.764C325.373 358.287 324.808 358.735 324.062 359.108L322.662 359.822C322.624 359.841 322.587 359.859 322.55 359.878C322.512 359.897 322.48 359.915 322.452 359.934C322.022 360.177 321.668 360.471 321.388 360.816C321.108 361.152 320.968 361.521 320.968 361.922H326.4L326.4 363H319.806L319.806 362.146C319.806 361.362 320.039 360.695 320.506 360.144C320.982 359.584 321.537 359.141 322.172 358.814L323.67 358.044C324.183 357.792 324.552 357.498 324.776 357.162C325 356.826 325.112 356.439 325.112 356C325.112 355.44 324.93 354.992 324.566 354.656C324.202 354.311 323.735 354.138 323.166 354.138C322.54 354.138 322.041 354.343 321.668 354.754C321.304 355.165 321.136 355.706 321.164 356.378H319.932ZM330.901 363.112C329.744 363.112 328.899 362.729 328.367 361.964C327.835 361.189 327.569 360.032 327.569 358.492L327.569 357.708C327.569 356.168 327.835 355.015 328.367 354.25C328.899 353.475 329.744 353.088 330.901 353.088H331.391C332.558 353.088 333.407 353.475 333.939 354.25C334.471 355.015 334.737 356.168 334.737 357.708L334.737 358.492C334.737 360.032 334.471 361.189 333.939 361.964C333.407 362.729 332.558 363.112 331.391 363.112H330.901ZM331.377 362.034C332.124 362.034 332.67 361.759 333.015 361.208C333.37 360.648 333.547 359.789 333.547 358.632L333.547 357.568C333.547 356.411 333.37 355.557 333.015 355.006C332.67 354.446 332.124 354.166 331.377 354.166H330.943C330.187 354.166 329.637 354.446 329.291 355.006C328.946 355.557 328.773 356.411 328.773 357.568L328.773 358.632C328.773 359.789 328.946 360.648 329.291 361.208C329.637 361.759 330.187 362.034 330.943 362.034H331.377ZM336.147 356.378C336.128 355.715 336.245 355.137 336.497 354.642C336.758 354.147 337.136 353.765 337.631 353.494C338.125 353.223 338.709 353.088 339.381 353.088C339.997 353.088 340.543 353.209 341.019 353.452C341.504 353.695 341.882 354.04 342.153 354.488C342.423 354.927 342.559 355.435 342.559 356.014C342.559 356.658 342.363 357.241 341.971 357.764C341.588 358.287 341.023 358.735 340.277 359.108L338.877 359.822C338.839 359.841 338.802 359.859 338.765 359.878C338.727 359.897 338.695 359.915 338.667 359.934C338.237 360.177 337.883 360.471 337.603 360.816C337.323 361.152 337.183 361.521 337.183 361.922H342.615L342.615 363H336.021L336.021 362.146C336.021 361.362 336.254 360.695 336.721 360.144C337.197 359.584 337.752 359.141 338.387 358.814L339.885 358.044C340.398 357.792 340.767 357.498 340.991 357.162C341.215 356.826 341.327 356.439 341.327 356C341.327 355.44 341.145 354.992 340.781 354.656C340.417 354.311 339.95 354.138 339.381 354.138C338.755 354.138 338.256 354.343 337.883 354.754C337.519 355.165 337.351 355.706 337.379 356.378H336.147ZM343.994 356.378C343.976 355.715 344.092 355.137 344.344 354.642C344.606 354.147 344.984 353.765 345.478 353.494C345.973 353.223 346.556 353.088 347.228 353.088C347.844 353.088 348.39 353.209 348.866 353.452C349.352 353.695 349.73 354.04 350 354.488C350.271 354.927 350.406 355.435 350.406 356.014C350.406 356.658 350.21 357.241 349.818 357.764C349.436 358.287 348.871 358.735 348.124 359.108L346.724 359.822C346.687 359.841 346.65 359.859 346.612 359.878C346.575 359.897 346.542 359.915 346.514 359.934C346.085 360.177 345.73 360.471 345.45 360.816C345.17 361.152 345.03 361.521 345.03 361.922H350.462L350.462 363H343.868L343.868 362.146C343.868 361.362 344.102 360.695 344.568 360.144C345.044 359.584 345.6 359.141 346.234 358.814L347.732 358.044C348.246 357.792 348.614 357.498 348.838 357.162C349.062 356.826 349.174 356.439 349.174 356C349.174 355.44 348.992 354.992 348.628 354.656C348.264 354.311 347.798 354.138 347.228 354.138C346.603 354.138 346.104 354.343 345.73 354.754C345.366 355.165 345.198 355.706 345.226 356.378H343.994Z" fill="white"/>
<path d="M116 331V338" stroke="white" stroke-width="0.634337" stroke-linecap="round"/>
<path d="M16 331V338" stroke="white" stroke-width="0.634337" stroke-linecap="round"/>
<path d="M51 333V337" stroke="white" stroke-width="0.634337" stroke-linecap="round"/>
<path d="M83 333V337" stroke="white" stroke-width="0.634337" stroke-linecap="round"/>
<path d="M322 331V338" stroke="white" stroke-width="0.634337" stroke-linecap="round"/>
<path d="M220 333V337" stroke="white" stroke-width="0.634337" stroke-linecap="round"/>
<path d="M254 333V337" stroke="white" stroke-width="0.634337" stroke-linecap="round"/>
<path d="M290 333V337" stroke="white" stroke-width="0.634337" stroke-linecap="round"/>
<path d="M153 333V337" stroke="white" stroke-width="0.634337" stroke-linecap="round"/>
<path d="M187 333V337" stroke="white" stroke-width="0.634337" stroke-linecap="round"/>
<path d="M356 333V337" stroke="white" stroke-width="0.634337" stroke-linecap="round"/>
<path d="M389 333V337" stroke="white" stroke-width="0.634337" stroke-linecap="round"/>
</svg>
