<svg width="228" height="26" viewBox="0 0 228 26" fill="none" xmlns="http://www.w3.org/2000/svg">
<path d="M125.149 5.74866C122.543 5.74866 120.776 7.78598 119.815 10.2017C119.102 7.17478 116.9 5.74866 114.512 5.74866C112.061 5.74866 110.201 7.46583 109.457 9.70693H109.023L109.457 5.9815H107.224V21.1742H109.457V12.2099C109.457 9.18302 111.348 7.58225 113.922 7.58225C116.341 7.58225 117.923 9.2412 117.923 11.6278V21.1742H120.156V11.6278C120.156 9.29947 122.234 7.58225 124.714 7.58225C127.165 7.58225 128.684 8.89193 128.684 12.0062V21.1742H130.917V12.0062C130.979 7.8733 128.653 5.74866 125.149 5.74866Z" fill="black"/>
<path d="M170.921 10.4637C169.867 7.52415 166.89 5.77786 164.068 5.77786C159.385 5.77786 155.54 9.15402 155.54 13.5779C155.54 18.0019 159.385 21.378 164.068 21.378C166.859 21.378 169.836 19.6317 170.921 16.6922H171.355L170.921 21.2034H173.154V5.9816H170.921L171.355 10.4637H170.921ZM164.44 19.5444C160.719 19.5444 157.835 16.8959 157.835 13.5197C157.835 10.1727 160.688 7.58236 164.44 7.58236C168.131 7.58236 170.89 10.2018 170.89 13.5197C170.921 16.8959 168.161 19.5444 164.44 19.5444Z" fill="black"/>
<path d="M100.774 10.4637C99.7202 7.52415 96.7433 5.77786 93.9208 5.77786C89.2383 5.77786 85.3929 9.15402 85.3929 13.5779C85.3929 18.0019 89.2383 21.378 93.9208 21.378C96.7119 21.378 99.6888 19.6317 100.774 16.6922H101.209L100.774 21.2034H103.008V5.9816H100.774L101.209 10.4637H100.774ZM94.3245 19.5444C90.6029 19.5444 87.7185 16.8959 87.7185 13.5197C87.7185 10.1727 90.5716 7.58236 94.3245 7.58236C98.0146 7.58236 100.774 10.2018 100.774 13.5197C100.774 16.8959 98.0146 19.5444 94.3245 19.5444Z" fill="black"/>
<path d="M16.2994 10.4637C15.245 7.52415 12.2679 5.77786 9.44592 5.77786C4.76323 5.77786 0.917847 9.15402 0.917847 13.5779C0.917847 18.0019 4.76323 21.378 9.44592 21.378C12.2369 21.378 15.214 19.6317 16.2994 16.6922H16.7335L16.2994 21.2034H18.5322V5.9816H16.2994L16.7335 10.4637H16.2994ZM9.84903 19.5444C6.12773 19.5444 3.24369 16.8959 3.24369 13.5197C3.24369 10.1727 6.09671 7.58236 9.84903 7.58236C13.5394 7.58236 16.2994 10.2018 16.2994 13.5197C16.2994 16.8959 13.5394 19.5444 9.84903 19.5444Z" fill="black"/>
<path d="M37.6665 10.4644C36.6121 7.52488 33.635 5.77861 30.813 5.77861C26.1303 5.77861 22.2849 9.15473 22.2849 13.5787C22.2849 18.0026 26.1303 21.3787 30.813 21.3787C33.604 21.3787 36.5811 19.6324 37.6665 16.6929H38.1006L37.6665 21.2041H39.8993V0.627075H37.6665L38.1006 10.4644H37.6665ZM31.1851 19.5451C27.4638 19.5451 24.5797 16.8966 24.5797 13.5204C24.5797 10.1734 27.4328 7.58309 31.1851 7.58309C34.8755 7.58309 37.6355 10.2026 37.6355 13.5204C37.6665 16.8966 34.9065 19.5451 31.1851 19.5451Z" fill="black"/>
<path d="M144.282 5.77786C141.492 5.77786 138.514 7.52415 137.43 10.4637H136.995L137.43 5.9816H135.196V25.4235H137.43L136.995 16.6922H137.43C138.484 19.6317 141.461 21.378 144.282 21.378C148.966 21.378 152.811 18.0019 152.811 13.5779C152.811 9.15402 148.966 5.77786 144.282 5.77786ZM143.911 19.5444C140.22 19.5444 137.46 16.8959 137.46 13.5197C137.46 10.2018 140.251 7.58236 143.911 7.58236C147.632 7.58236 150.516 10.1727 150.516 13.5197C150.485 16.925 147.632 19.5444 143.911 19.5444Z" fill="black"/>
<path d="M225.408 17.0705C223.671 19.0497 221.81 19.6026 219.857 19.6026C216.538 19.6026 213.964 17.4198 213.809 14.422V14.0436C215.174 14.4511 220.322 15.7899 224.105 14.3929C227.827 13.025 227.114 8.60103 223.981 6.82567C222.803 6.15627 221.314 5.7197 219.67 5.7197C214.957 5.7197 211.639 9.12494 211.639 13.5198C211.639 17.9436 214.957 21.378 219.857 21.378C222.647 21.378 225.098 20.4175 227.082 18.0601L225.408 17.0705ZM219.732 7.58239C220.973 7.58239 222.121 7.93165 222.989 8.45552C224.974 9.61972 225.47 12.3556 222.803 13.4033C219.67 14.6548 215.019 13.8399 213.809 13.578V13.3743C213.996 9.99805 216.446 7.58239 219.732 7.58239Z" fill="black"/>
<path d="M208.972 12.7338V21.1741H206.708V12.0644C206.523 9.03745 205.22 7.05836 201.56 7.52403C198.707 7.87329 196.288 10.2599 196.041 12.9084V21.2032H193.777V5.98149H196.041L195.606 10.6091H196.041C196.537 9.09571 197.498 7.87329 198.553 7.00015C199.576 6.15611 200.94 5.74865 202.181 5.71955C206.864 5.51581 208.972 8.30984 208.972 12.7338Z" fill="black"/>
<path d="M82.6637 12.7346V21.175H80.431V12.0652C80.2449 9.03836 78.9425 7.05921 75.2831 7.52488C72.4301 7.87414 70.0112 10.2607 69.7631 12.9093V21.2041H67.5303V0.627075H69.7631L69.329 10.61H69.7631C70.2593 9.09655 71.2206 7.87414 72.275 7.001C73.2984 6.15697 74.6629 5.7495 75.9033 5.7204C80.555 5.51667 82.6637 8.31068 82.6637 12.7346Z" fill="black"/>
<path d="M62.4443 15.7025C60.8008 17.9726 57.9787 19.4569 54.8156 19.4569C49.7607 19.4569 45.6363 15.6734 45.6363 10.9875C45.6363 6.30166 49.3887 2.34341 54.5675 2.11058C58.1648 1.93595 60.9558 3.91507 62.4443 6.38897H64.088V0.62624H61.8551L62.8475 5.28299H62.3823C61.7311 4.1188 60.9248 3.18745 60.0255 2.45983C56.9554 0.015042 52.6758 0.102354 49.2026 1.84864C45.6673 3.62402 43.2794 7.05837 43.2794 11.0166C43.2794 16.7794 48.4583 21.4361 54.8466 21.4361C58.785 21.4361 62.2583 19.6607 64.3361 16.954L62.4443 15.7025Z" fill="black"/>
<path d="M191.203 20.7376C190.552 19.7481 189.436 19.166 187.916 18.8458C185.652 18.3802 182.644 19.0496 180.319 20.3302H179.884L182.055 17.3033C182.52 17.3906 183.016 17.4488 183.513 17.4488C187.234 17.4488 190.242 14.8003 190.242 11.5115C190.242 9.47416 189.095 7.69877 187.358 6.62189L190.056 2.54724H187.823L185.9 5.92338C185.156 5.69054 184.381 5.54502 183.544 5.54502C179.822 5.54502 176.814 8.19352 176.814 11.4824C176.814 13.7817 178.303 15.7898 180.474 16.7794L177.683 21.0869H179.915C184.753 19.1078 188.444 19.6026 189.622 21.378C190.862 23.2407 186.18 25.8019 177.093 22.0474L176.256 23.328C179.853 24.7832 183.14 25.4235 185.497 25.4235C187.823 25.4235 189.498 24.8705 190.49 24.1138C191.668 23.1533 191.948 21.8728 191.203 20.7376ZM179.016 11.5115C179.016 9.27039 181 7.43683 183.451 7.43683C185.9 7.43683 187.885 9.27039 187.885 11.5115C187.885 13.7525 185.9 15.5862 183.451 15.5862C181 15.5862 179.016 13.7525 179.016 11.5115Z" fill="black"/>
</svg>
