<?xml version="1.0" encoding="utf-8"?>
<!-- Generator: Adobe Illustrator 26.0.1, SVG Export Plug-In . SVG Version: 6.00 Build 0)  -->
<svg version="1.1" id="Слой_1" xmlns="http://www.w3.org/2000/svg" xmlns:xlink="http://www.w3.org/1999/xlink" x="0px" y="0px"
	 viewBox="0 0 277 150" style="enable-background:new 0 0 277 150;" xml:space="preserve">
<style type="text/css">
	.st0{fill:#FFFFFF;}
	.st1{display:none;fill:#FFFFFF;}
</style>
<path class="st0" d="M190,55.3c1.3,0.8,1.3,2.7,0,3.5l-75.8,43.7c-1.3,0.8-3-0.2-3-1.7V13.3c0-1.5,1.7-2.5,3-1.7L190,55.3z"/>
<path class="st1" d="M36.1,134.7c1.4,0,2.6,0.4,3.6,1.1c1,0.7,1.6,1.7,1.8,2.9h-1.9c-0.2-0.8-0.6-1.3-1.3-1.8
	c-0.6-0.4-1.4-0.6-2.3-0.6c-1.2,0-2.2,0.4-2.9,1.2c-0.7,0.8-1.1,1.8-1.1,3.1c0,1.3,0.4,2.4,1.1,3.2c0.7,0.8,1.7,1.2,2.9,1.2
	c0.9,0,1.6-0.2,2.3-0.7c0.6-0.4,1.1-1,1.3-1.8h1.9c-0.2,1.2-0.8,2.2-1.8,2.9c-1,0.7-2.2,1.1-3.6,1.1c-1.1,0-2.1-0.2-3-0.7
	c-0.9-0.5-1.6-1.2-2.1-2.1c-0.5-0.9-0.7-1.9-0.7-3.1c0-1.2,0.2-2.2,0.7-3.1c0.5-0.9,1.2-1.6,2-2.1C34,135,35,134.7,36.1,134.7z
	 M47,134.9h2l4.2,6.7l4.1-6.7h1.9v11.6h-1.7v-3.6c0-1.7,0-3.6,0.1-5.6l-4.1,6.5h-0.9l-4.1-6.5c0.1,2.1,0.1,4,0.1,5.6v3.6H47V134.9z
	 M70.7,134.7c0.9,0,1.7,0.1,2.4,0.4c0.7,0.3,1.4,0.7,1.9,1.2c0.5,0.5,0.9,1.2,1.2,1.9c0.3,0.7,0.4,1.5,0.4,2.4
	c0,0.9-0.1,1.7-0.4,2.4c-0.3,0.7-0.7,1.4-1.2,1.9c-0.5,0.5-1.2,0.9-1.9,1.2c-0.7,0.3-1.5,0.4-2.4,0.4c-0.9,0-1.7-0.1-2.4-0.4
	c-0.7-0.3-1.4-0.7-1.9-1.2c-0.5-0.5-0.9-1.2-1.2-1.9c-0.3-0.7-0.4-1.5-0.4-2.4c0-0.9,0.1-1.7,0.4-2.4c0.3-0.7,0.7-1.4,1.2-1.9
	c0.5-0.5,1.2-0.9,1.9-1.2C69,134.9,69.8,134.7,70.7,134.7z M70.7,145.1c1.2,0,2.2-0.4,3-1.2c0.8-0.8,1.2-1.9,1.2-3.1
	c0-1.3-0.4-2.3-1.2-3.1c-0.8-0.8-1.8-1.2-3-1.2c-1.2,0-2.2,0.4-3,1.2c-0.8,0.8-1.2,1.9-1.2,3.1c0,1.3,0.4,2.3,1.1,3.1
	C68.5,144.7,69.5,145.1,70.7,145.1z M89.7,136.4h-3.6v10.1h-1.7v-10.1h-3.7v-1.5h9V136.4z M103.6,138.6c0,1.2-0.4,2.1-1.1,2.7
	c-0.8,0.7-1.8,1-3.1,1h-3v4.2h-1.7v-11.6h4.8c1.3,0,2.3,0.3,3.1,1C103.3,136.6,103.6,137.5,103.6,138.6z M101.8,138.6
	c0-0.7-0.2-1.2-0.7-1.6c-0.4-0.4-1.1-0.5-1.8-0.5h-3v4.2h3c0.8,0,1.4-0.2,1.9-0.6C101.6,139.8,101.8,139.3,101.8,138.6z
	 M108.8,134.9h8.2v1.6h-6.5v3.5h6v1.5h-6v3.5h6.5v1.6h-8.2V134.9z M130.6,136.4H127v10.1h-1.7v-10.1h-3.7v-1.5h9V136.4z
	 M143.9,142.8c0,1.1-0.4,2-1.1,2.7c-0.7,0.7-1.6,1-2.8,1h-4.6v-11.6h1.7v4.3h2.8c1.2,0,2.1,0.3,2.8,1
	C143.5,140.8,143.9,141.7,143.9,142.8z M142.1,142.9c0-0.7-0.2-1.2-0.6-1.6c-0.4-0.4-0.9-0.6-1.6-0.6h-2.6v4.2h2.6
	c0.7,0,1.2-0.2,1.6-0.5C141.9,144,142.1,143.5,142.1,142.9z M155.9,134.9h1.7v10h4.4v-10h1.7v10h4.4v-10h1.7v11.6h-14V134.9z
	 M181.3,134.7c0.9,0,1.7,0.1,2.4,0.4c0.7,0.3,1.4,0.7,1.9,1.2s0.9,1.2,1.2,1.9c0.3,0.7,0.4,1.5,0.4,2.4c0,0.9-0.1,1.7-0.4,2.4
	c-0.3,0.7-0.7,1.4-1.2,1.9c-0.5,0.5-1.2,0.9-1.9,1.2c-0.7,0.3-1.5,0.4-2.4,0.4c-0.9,0-1.7-0.1-2.4-0.4c-0.7-0.3-1.4-0.7-1.9-1.2
	c-0.5-0.5-0.9-1.2-1.2-1.9c-0.3-0.7-0.4-1.5-0.4-2.4c0-0.9,0.1-1.7,0.4-2.4c0.3-0.7,0.7-1.4,1.2-1.9c0.5-0.5,1.2-0.9,1.9-1.2
	C179.6,134.9,180.4,134.7,181.3,134.7z M181.3,145.1c1.2,0,2.2-0.4,3-1.2c0.8-0.8,1.2-1.9,1.2-3.1c0-1.3-0.4-2.3-1.2-3.1
	c-0.8-0.8-1.8-1.2-3-1.2c-1.2,0-2.2,0.4-3,1.2c-0.8,0.8-1.2,1.9-1.2,3.1c0,1.3,0.4,2.3,1.1,3.1C179.1,144.7,180.1,145.1,181.3,145.1
	z M193.1,134.9l3.2,5.7l3.1-5.7h1.9l-6.4,11.6H193l2.3-4.1l-4.2-7.5H193.1z M215,138.6c0,1.2-0.4,2.1-1.1,2.7c-0.8,0.7-1.8,1-3.1,1
	h-3v4.2H206v-11.6h4.8c1.3,0,2.3,0.3,3.1,1C214.7,136.6,215,137.5,215,138.6z M213.2,138.6c0-0.7-0.2-1.2-0.7-1.6
	c-0.4-0.4-1-0.5-1.8-0.5h-3v4.2h3c0.8,0,1.4-0.2,1.9-0.6C213,139.8,213.2,139.3,213.2,138.6z M229.8,134.9v11.6h-1.7v-8.9l-6.1,8.9
	h-1.8v-11.6h1.7v8.8l6.1-8.8H229.8z M234.9,146.5v-1.4h0.6c0.9,0,1.3-0.4,1.3-1.2v-9.1h8.9v11.6h-1.7v-10.1h-5.4v7.6
	c0,1.7-0.9,2.5-2.6,2.5C235.4,146.6,235.1,146.6,234.9,146.5z"/>
<g>
	<path class="st0" d="M62.4,138.3c0,1.2-0.4,2.2-1.2,2.9c-0.8,0.7-1.9,1-3.3,1h-3.2v4.5h-1.9v-12.3h5.1c1.4,0,2.5,0.4,3.3,1.1
		C62,136.1,62.4,137.1,62.4,138.3z M60.4,138.3c0-0.7-0.2-1.3-0.7-1.7c-0.5-0.4-1.1-0.6-2-0.6h-3.1v4.5h3.1c0.9,0,1.5-0.2,2-0.6
		S60.4,139,60.4,138.3z"/>
	<path class="st0" d="M66.9,134.3h1.9V145h6.6v1.7h-8.4V134.3z"/>
	<path class="st0" d="M87.9,143.9h-5.7l-1,2.8h-2l4.8-12.3h2.2l4.9,12.3h-2.1L87.9,143.9z M87.4,142.4l-2.3-6.2l-2.3,6.2H87.4z"/>
	<path class="st0" d="M103.6,134.3l-4.6,6.9v5.5h-1.9v-5.5l-4.6-6.9h2.1l3.4,5.3l3.4-5.3H103.6z"/>
	<path class="st0" d="M113,143.1h1.9c0.1,0.7,0.4,1.2,0.9,1.6c0.5,0.4,1.3,0.6,2.1,0.6c0.8,0,1.5-0.2,2-0.5s0.7-0.9,0.7-1.5
		c0-0.6-0.2-1-0.6-1.3c-0.4-0.2-0.8-0.4-1.3-0.5l-2.3-0.4c-1.1-0.2-2-0.6-2.5-1.1c-0.6-0.6-0.8-1.3-0.8-2.1c0-1.1,0.4-2,1.3-2.7
		c0.8-0.7,1.9-1,3.3-1s2.5,0.3,3.3,1c0.8,0.7,1.3,1.6,1.3,2.7h-1.9c0-0.7-0.3-1.2-0.8-1.6s-1.2-0.6-2-0.6c-0.8,0-1.4,0.2-1.8,0.5
		s-0.7,0.8-0.7,1.4c0,0.9,0.7,1.5,2,1.7l2.3,0.4c1.1,0.2,1.9,0.6,2.5,1.2c0.6,0.6,0.8,1.3,0.8,2.2c0,1.1-0.4,2-1.3,2.7s-2,1-3.4,1
		c-1.4,0-2.6-0.3-3.4-1S113.1,144.2,113,143.1z"/>
	<path class="st0" d="M127.4,134.3h1.9v5.2h6.3v-5.2h1.8v12.3h-1.8v-5.5h-6.3v5.5h-1.9V134.3z"/>
	<path class="st0" d="M148.5,134.1c0.9,0,1.8,0.1,2.5,0.5c0.8,0.3,1.5,0.8,2,1.3s1,1.2,1.3,2c0.3,0.8,0.5,1.6,0.5,2.5
		c0,0.9-0.1,1.8-0.5,2.6c-0.3,0.8-0.8,1.5-1.3,2c-0.6,0.6-1.2,1-2,1.3c-0.8,0.3-1.6,0.5-2.5,0.5c-0.9,0-1.8-0.2-2.6-0.5
		c-0.8-0.3-1.5-0.7-2-1.3s-1-1.2-1.3-2c-0.3-0.8-0.5-1.6-0.5-2.6c0-0.9,0.1-1.8,0.5-2.5c0.3-0.8,0.7-1.5,1.3-2c0.6-0.6,1.2-1,2-1.3
		C146.8,134.3,147.6,134.1,148.5,134.1z M148.5,145.1c1.3,0,2.4-0.4,3.2-1.3c0.8-0.9,1.2-2,1.2-3.3c0-1.4-0.4-2.5-1.2-3.3
		c-0.8-0.9-1.9-1.3-3.2-1.3c-1.3,0-2.3,0.4-3.2,1.3c-0.8,0.9-1.2,2-1.2,3.3c0,1.4,0.4,2.5,1.2,3.3
		C146.2,144.7,147.3,145.1,148.5,145.1z"/>
	<path class="st0" d="M160.3,134.3l2.5,10.3l2.7-10.3h2.1l2.8,10.3l2.4-10.3h2l-3,12.3h-2.6l-2.6-9.8l-2.5,9.8h-2.5l-3.2-12.3H160.3
		z"/>
	<path class="st0" d="M189.3,146.7H187l-4-4.7h-2.1v4.7H179v-12.3h5.6c1.3,0,2.3,0.3,3.1,1c0.8,0.7,1.1,1.6,1.1,2.7
		c0,1.1-0.3,1.9-1,2.6s-1.6,1-2.7,1.1L189.3,146.7z M184.5,140.4c0.8,0,1.4-0.2,1.8-0.6c0.4-0.4,0.6-0.9,0.6-1.6
		c0-0.7-0.2-1.2-0.7-1.6c-0.4-0.4-1-0.6-1.8-0.6h-3.6v4.3H184.5z"/>
	<path class="st0" d="M193.6,134.3h8.7v1.7h-6.9v3.7h6.3v1.6h-6.3v3.7h6.9v1.7h-8.7V134.3z"/>
	<path class="st0" d="M207.2,134.3h8.7v1.7h-6.9v3.7h6.3v1.6h-6.3v3.7h6.9v1.7h-8.7V134.3z"/>
	<path class="st0" d="M220.8,134.3h1.9V145h6.6v1.7h-8.4V134.3z"/>
</g>
</svg>
