<svg width="850" height="748" viewBox="0 0 850 748" fill="none" xmlns="http://www.w3.org/2000/svg">
<path d="M485.166 748C477.003 588.832 564.531 429.664 577.683 405.66C590.835 381.659 646.037 288.368 664.759 312.812C672.014 322.288 673.152 361.813 618.953 450.506C528.249 598.939 430.744 628.623 380.857 615.36C317.585 598.536 288.041 470.813 340.04 325.444C397.281 165.426 471.146 118.766 501.946 146.064C528.996 170.037 519.152 297.858 415.323 398.083C283.804 525.037 177.989 430.682 181.31 286.286C185.392 108.8 281.537 3.95123 334.598 0.161499C387.661 -3.63043 398.09 60.1643 393.556 105.642L370.427 120.167C374.508 70.9023 360.449 50.691 343.216 45.0052C282.274 24.9041 194.804 184.373 214.87 308.391C236.639 442.927 332.993 431.516 372.694 403.767C491.968 320.394 501.04 207.332 481.992 189.017C445.416 153.843 379.497 273.652 360.903 346.92C342.308 420.188 331.878 546.513 397.637 574.304C511.965 622.622 662.944 384.818 641.629 358.921C621.789 334.818 501.04 564.829 518.726 710.736L485.166 748Z" fill="#D29BD2"/>
</svg>
