<svg width="1249" height="421" viewBox="0 0 1249 421" fill="none" xmlns="http://www.w3.org/2000/svg">
<path d="M2 194.81C53.2597 190.643 106.578 193.334 154.298 204.191C181.996 210.492 206.55 219.673 229.736 229.548C267.89 245.797 302.708 263.991 339.664 280.927C428.062 321.439 532.068 352.91 639.875 378.028C713.225 395.119 788.229 407.915 868.026 414.43C930.179 419.504 996.2 420.738 1058.01 413.734C1126.28 405.999 1205.46 386.454 1236.62 352.339C1257.46 329.534 1242.44 305.522 1230.46 282.743C1219.44 261.778 1202.3 240.494 1157.33 233.723C1126.61 229.097 1091.52 231.068 1060.38 233.118C991.829 237.632 925.068 248.202 860.737 260.835C806.735 271.441 753.748 283.964 697.594 291.427C627.323 300.767 556.201 300.437 485.088 293.636C401.257 285.619 319.33 270.604 243.188 251.092C206.397 241.664 171.004 230.83 138.12 218.17C106.881 206.143 75.1318 192.236 56.3414 174.355C47.5262 165.967 41.7293 156.214 44.4302 146.577C48.3279 132.67 68.6629 120.884 88.9937 112.264C149.301 86.6946 232.321 74.9986 308.493 69.7196C395.662 63.6785 485.802 64.3157 573.445 66.8148C661.851 69.3357 749.42 77.0478 837.804 79.2815C888.829 80.571 961.385 79.4101 976.116 48.0239C979.516 40.7813 980.028 32.9331 980.028 25.5112C980.028 20.3318 980.868 13.8149 976.946 8.89905C974.185 5.43812 968.544 4.09288 963.079 2" stroke="#EBFF00" stroke-width="3" stroke-linecap="round"/>
</svg>
