<svg width="19" height="15" viewBox="0 0 19 15" fill="none" xmlns="http://www.w3.org/2000/svg">
<path fill-rule="evenodd" clip-rule="evenodd" d="M2.71429 1.35709C2.71429 0.607561 3.3219 -5.23158e-05 4.07143 -5.23158e-05H17.6429C18.3924 -5.23158e-05 19 0.607561 19 1.35709C19 2.10662 18.3924 2.71423 17.6429 2.71423H4.07143C3.3219 2.71423 2.71429 2.10662 2.71429 1.35709ZM0 7.46423C0 6.7147 0.607614 6.10709 1.35714 6.10709H11.5357C12.2852 6.10709 12.8929 6.7147 12.8929 7.46423C12.8929 8.21376 12.2852 8.82138 11.5357 8.82138H1.35714C0.607614 8.82138 0 8.21376 0 7.46423ZM7.46429 12.2142C6.71476 12.2142 6.10714 12.8218 6.10714 13.5714C6.10714 14.3209 6.71476 14.9285 7.46429 14.9285H17.6429C18.3924 14.9285 19 14.3209 19 13.5714C19 12.8218 18.3924 12.2142 17.6429 12.2142H7.46429Z" fill="#1E1E1E"/>
</svg>
