<svg width="614" height="87" viewBox="0 0 614 87" fill="none" xmlns="http://www.w3.org/2000/svg">
<path d="M97.5748 26.8779C96.0814 24.474 93.9678 22.519 91.457 21.2194C88.7464 19.8019 85.7298 19.0734 82.6722 19.0976C78.3838 19.0085 74.1527 20.0954 70.4362 22.2411C67.0176 24.3421 64.2902 27.4027 62.5925 31.0432C60.72 34.9658 59.78 39.27 59.847 43.6177C59.782 47.9904 60.7216 52.3195 62.5925 56.2706C64.3142 59.8745 67.0378 62.9037 70.4362 64.9942C74.1645 67.181 78.4326 68.2704 82.7507 68.1378C85.7571 68.1523 88.7205 67.4235 91.3785 66.0159C93.9394 64.7591 96.0889 62.796 97.5748 60.3574V67.4305H107.066V0H97.8889L97.5748 26.8779ZM94.3592 55.642C92.9844 57.0632 91.3386 58.1932 89.5196 58.9649C87.7006 59.7366 85.7458 60.1341 83.7704 60.1341C81.7951 60.1341 79.8398 59.7366 78.0208 58.9649C76.2018 58.1932 74.556 57.0632 73.1812 55.642C70.4041 52.2705 68.9781 47.9844 69.1809 43.6177C68.9672 39.2734 70.3956 35.0078 73.1812 31.6718C74.5445 30.2307 76.1864 29.0829 78.0069 28.2985C79.8275 27.5141 81.7887 27.1096 83.7704 27.1096C85.7522 27.1096 87.7129 27.5141 89.5335 28.2985C91.354 29.0829 92.9959 30.2307 94.3592 31.6718C97.1447 35.0078 98.5732 39.2734 98.3595 43.6177C98.5623 47.9844 97.1363 52.2705 94.3592 55.642Z" fill="white"/>
<path d="M135.225 12.2601C138.728 10.2383 142.712 9.20644 146.754 9.27392C151.157 9.17142 155.476 10.4942 159.069 13.0461C160.709 14.1181 162.103 15.5273 163.158 17.1804C164.213 18.8335 164.904 20.6926 165.187 22.6341H175.462C174.898 18.4415 173.218 14.4783 170.599 11.16C167.9 7.76933 164.431 5.07469 160.481 3.301C156.17 1.44973 151.523 0.51312 146.833 0.550294C141.369 0.532496 135.983 1.8545 131.146 4.40113C126.168 6.96205 122.07 10.9588 119.38 15.8755C116.255 21.5149 114.71 27.8964 114.909 34.344C114.731 40.7796 116.246 47.149 119.302 52.8127C122.014 57.712 126.106 61.7028 131.067 64.287C136.042 66.8327 141.561 68.1272 147.147 68.0592C151.863 68.105 156.537 67.1682 160.873 65.3085C164.836 63.5564 168.31 60.858 170.992 57.4495C173.583 54.1759 175.164 50.2154 175.54 46.0541H165.657C165.336 48.5864 164.272 50.9661 162.599 52.8914C160.802 54.9936 158.51 56.6143 155.931 57.6068C152.655 58.9254 149.129 59.5034 145.604 59.2996C142.079 59.0958 138.642 58.1154 135.538 56.428C132.139 54.4081 129.411 51.428 127.695 47.8615C125.73 43.6072 124.79 38.9504 124.949 34.2655C124.792 29.5555 125.732 24.8734 127.695 20.5907C129.356 17.1485 131.97 14.2571 135.225 12.2601Z" fill="white"/>
<path d="M206.366 19.0976C203.099 19.018 199.871 19.833 197.032 21.4552C194.371 23.0203 192.302 25.4247 191.149 28.2925V0H181.972V67.4305H191.149V41.6529C191.014 37.9018 192.272 34.2336 194.679 31.3576C195.82 30.0545 197.235 29.0196 198.821 28.3268C200.407 27.634 202.127 27.3002 203.856 27.3495C205.338 27.3103 206.809 27.5999 208.165 28.1978C209.521 28.7956 210.728 29.6869 211.7 30.8074C213.814 33.3604 214.904 36.61 214.759 39.9239V67.4305H223.936V38.1949C224.141 33.1307 222.401 28.1803 219.073 24.363C217.443 22.6402 215.469 21.281 213.279 20.3738C211.09 19.4665 208.734 19.0317 206.366 19.0976Z" fill="white"/>
<path d="M267.468 26.1707C265.801 23.971 263.619 22.2166 261.115 21.0624C258.395 19.7664 255.421 19.0952 252.409 19.0976C248.147 19.0228 243.944 20.1093 240.251 22.2412C236.846 24.3246 234.121 27.3556 232.407 30.9646C230.646 34.9633 229.736 39.2862 229.736 43.657C229.736 48.0278 230.646 52.3505 232.407 56.3493C234.145 59.9217 236.866 62.9214 240.251 64.9942C243.979 67.181 248.247 68.2704 252.565 68.1378C255.692 68.19 258.785 67.4892 261.586 66.0944C264.058 65.0938 266.128 63.2965 267.468 60.986V67.4305H276.645V19.8833H267.468V26.1707ZM264.174 55.642C262.799 57.0632 261.153 58.1932 259.335 58.9649C257.516 59.7366 255.56 60.1341 253.585 60.1341C251.61 60.1341 249.654 59.7366 247.835 58.9649C246.016 58.1932 244.371 57.0632 242.996 55.642C240.28 52.2414 238.886 47.9692 239.074 43.6177C238.869 39.2878 240.266 35.0341 242.996 31.6718C244.359 30.2307 246.001 29.0829 247.822 28.2985C249.642 27.5141 251.603 27.1096 253.585 27.1096C255.567 27.1096 257.527 27.5141 259.348 28.2985C261.168 29.0829 262.811 30.2307 264.174 31.6718C266.96 35.0078 268.388 39.2734 268.174 43.6177C268.311 48.0153 266.8 52.305 263.939 55.642H264.174Z" fill="white"/>
<path d="M338.924 19.0976C335.473 19.0543 332.088 20.039 329.198 21.9267C326.536 23.4852 324.509 25.9342 323.472 28.8427C322.616 25.8462 320.652 23.2889 317.981 21.691C315.011 19.8777 311.575 18.9762 308.098 19.0976C304.972 19.0274 301.902 19.9337 299.313 21.691C296.882 23.2846 295.037 25.6303 294.058 28.3712V19.8833H284.959V67.4305H294.058V39.7666C293.907 36.4145 295.028 33.1296 297.195 30.5717C298.27 29.4107 299.585 28.4995 301.049 27.9021C302.512 27.3047 304.088 27.0356 305.667 27.1137C307.069 27.0705 308.461 27.3614 309.729 27.9625C310.997 28.5637 312.105 29.458 312.961 30.5717C314.872 33.2415 315.814 36.4864 315.628 39.7666V67.4305H324.805V39.7666C324.632 36.4249 325.725 33.1412 327.864 30.5717C328.948 29.4233 330.265 28.5206 331.726 27.9241C333.187 27.3277 334.759 27.0514 336.335 27.1137C337.751 27.0513 339.162 27.3333 340.446 27.9354C341.729 28.5376 342.849 29.442 343.708 30.5717C345.647 33.2313 346.616 36.4771 346.454 39.7666V67.4305H355.552V37.409C355.824 32.594 354.221 27.8611 351.081 24.2059C349.546 22.5216 347.664 21.1921 345.564 20.31C343.465 19.4279 341.199 19.0142 338.924 19.0976Z" fill="white"/>
<path d="M399.947 22.2411C396.289 20.0931 392.107 19.0049 387.868 19.0975C384.76 19.073 381.693 19.8009 378.926 21.2194C376.376 22.5289 374.234 24.5131 372.73 26.9565V19.8832H363.631V86.6849H372.73V60.986C374.188 63.3319 376.283 65.213 378.769 66.4087C381.43 67.8015 384.396 68.504 387.397 68.4521C391.689 68.5742 395.929 67.4847 399.633 65.3083C403.007 63.1878 405.723 60.167 407.477 56.5849C409.348 52.6339 410.287 48.3046 410.223 43.9318C410.314 39.5903 409.401 35.2867 407.555 31.3576C405.965 27.638 403.319 24.4681 399.947 22.2411ZM397.202 55.6419C395.875 57.1238 394.238 58.2936 392.407 59.068C390.577 59.8424 388.598 60.2023 386.613 60.1216C384.616 60.2031 382.625 59.844 380.782 59.0699C378.939 58.2958 377.288 57.1256 375.946 55.6419C373.229 52.2414 371.836 47.9692 372.024 43.6176C371.819 39.2877 373.215 35.0341 375.946 31.6718C377.274 30.1651 378.92 28.9742 380.765 28.1857C382.611 27.3972 384.609 27.0309 386.613 27.1136C388.606 27.0315 390.592 27.3985 392.424 28.1874C394.257 28.9763 395.889 30.1668 397.202 31.6718C399.959 35.0193 401.359 39.2836 401.124 43.6176C401.37 47.964 400.001 52.2478 397.28 55.6419H397.202Z" fill="white"/>
<path d="M451.559 26.1707C449.874 23.9885 447.696 22.2379 445.205 21.0624C442.479 19.7836 439.508 19.1132 436.498 19.0976C432.21 19.0085 427.978 20.0955 424.262 22.2412C420.869 24.3385 418.147 27.3657 416.418 30.9646C414.657 34.9633 413.748 39.2862 413.748 43.657C413.748 48.0278 414.657 52.3506 416.418 56.3493C418.174 59.9095 420.892 62.9048 424.262 64.9942C427.99 67.181 432.259 68.2705 436.577 68.1378C439.728 68.1815 442.845 67.4814 445.676 66.0944C448.122 65.0502 450.179 63.2636 451.559 60.9861V67.4305H460.657V19.8833H451.559V26.1707ZM448.185 55.642C446.859 57.1239 445.222 58.2937 443.391 59.0681C441.561 59.8425 439.582 60.2024 437.597 60.1217C435.622 60.2072 433.654 59.8492 431.836 59.0741C430.017 58.299 428.394 57.1265 427.086 55.642C424.309 52.2706 422.883 47.9844 423.086 43.6177C422.872 39.2734 424.301 35.0078 427.086 31.6719C428.376 30.1596 429.993 28.9629 431.815 28.1729C433.636 27.3828 435.614 27.0205 437.597 27.1137C439.59 27.0316 441.575 27.3986 443.408 28.1875C445.24 28.9764 446.873 30.1669 448.185 31.6719C450.971 35.0078 452.399 39.2734 452.186 43.6177C452.389 47.9844 450.963 52.2706 448.185 55.642Z" fill="white"/>
<path d="M504.582 26.1707C502.971 23.9478 500.808 22.1866 498.306 21.0624C495.568 19.7392 492.562 19.0669 489.522 19.0976C485.26 19.0228 481.057 20.1093 477.363 22.2412C473.959 24.3246 471.234 27.3556 469.52 30.9646C467.759 34.9633 466.849 39.2862 466.849 43.657C466.849 48.0278 467.759 52.3505 469.52 56.3493C471.258 59.9217 473.979 62.9214 477.363 64.9942C481.064 67.1786 485.307 68.2684 489.6 68.1378C492.759 68.1827 495.89 67.5392 498.776 66.2517C501.194 65.3127 503.236 63.5996 504.582 61.3789V69.2379C504.678 71.8681 503.749 74.4328 501.993 76.3896C501.103 77.2911 500.039 78.0003 498.866 78.4734C497.692 78.9464 496.433 79.1735 495.169 79.1403H473.285V86.9994H496.11C499.277 87.0252 502.402 86.2695 505.209 84.7989C507.829 83.4156 510.004 81.3176 511.484 78.7475C513.013 76.0693 513.797 73.0303 513.758 69.9454V20.1977H504.582V26.1707ZM501.287 55.642C499.912 57.0632 498.267 58.1932 496.448 58.9649C494.629 59.7366 492.674 60.1341 490.698 60.1341C488.723 60.1341 486.768 59.7366 484.949 58.9649C483.13 58.1932 481.484 57.0632 480.11 55.642C477.393 52.2414 476 47.9692 476.188 43.6177C475.983 39.2878 477.379 35.0341 480.11 31.6718C481.422 30.1669 483.054 28.9763 484.886 28.1875C486.719 27.3986 488.705 27.0316 490.698 27.1137C492.684 27.033 494.661 27.3927 496.492 28.1671C498.322 28.9415 499.96 30.1115 501.287 31.5934C503.884 35.0623 505.287 39.2815 505.287 43.6177C505.287 47.9539 503.884 52.173 501.287 55.642Z" fill="white"/>
<path d="M546.309 19.0975C543.017 19.0154 539.764 19.8302 536.897 21.4551C534.276 23.0675 532.22 25.457 531.015 28.2924V19.8832H521.916V67.4304H530.622V41.6528C530.516 37.8926 531.801 34.2258 534.23 31.3575C535.368 30.0501 536.782 29.0122 538.369 28.319C539.956 27.6258 541.677 27.2946 543.407 27.3493C544.888 27.3101 546.36 27.5998 547.716 28.1976C549.072 28.7955 550.279 29.6868 551.251 30.8073C553.365 33.3603 554.455 36.6099 554.31 39.9238V67.4304H563.486V38.1948C563.692 33.1306 561.951 28.1801 558.623 24.3629C557.036 22.693 555.125 21.3648 553.008 20.4595C550.891 19.5542 548.611 19.0909 546.309 19.0975Z" fill="white"/>
<path d="M605.372 51.9482C604.788 54.498 603.241 56.7226 601.058 58.1569C598.5 59.6807 595.562 60.4439 592.587 60.3574C590.68 60.4122 588.782 60.0704 587.014 59.3535C585.245 58.6365 583.644 57.5601 582.311 56.1922C579.542 53.2045 577.905 49.3393 577.684 45.268H613.921C614.002 44.0643 614.002 42.8566 613.921 41.6529C613.942 37.7471 613.027 33.8932 611.255 30.4144C609.496 26.9585 606.771 24.0911 603.411 22.1625C599.71 20.0581 595.508 18.9989 591.253 19.0976C586.942 18.9878 582.691 20.1343 579.018 22.3983C575.619 24.4887 572.896 27.518 571.174 31.1219C569.315 34.9544 568.349 39.16 568.349 43.4213C568.349 47.6825 569.315 51.8879 571.174 55.7204C573.121 59.4264 576.017 62.5462 579.566 64.7585C583.338 67.0712 587.695 68.2445 592.116 68.1378C597.353 68.3087 602.502 66.7636 606.783 63.7367C610.628 60.8976 613.217 56.6688 614 51.9482H605.372ZM582.547 29.55C585.076 27.3975 588.333 26.3001 591.646 26.4849C595.067 26.328 598.414 27.512 600.979 29.7857C602.577 31.561 603.781 33.6558 604.511 35.9318C605.242 38.2078 605.482 40.6131 605.215 42.9888H577.684C577.567 40.5378 577.937 38.0881 578.772 35.7812C579.606 33.4744 580.889 31.3563 582.547 29.55Z" fill="white"/>
<path d="M21.4134 1.25747L0 67.4305H10.1186L15.9228 47.6256H42.5914L48.4741 67.4305H58.5922L37.1792 1.25747H21.4134ZM16.6285 45.4251L28.865 4.08684H29.8062L41.9637 45.268L16.6285 45.4251Z" fill="white"/>
</svg>
