<svg width="227" height="25" viewBox="0 0 227 25" fill="none" xmlns="http://www.w3.org/2000/svg">
<path d="M124.404 5.17944C121.795 5.17944 120.025 7.21961 119.063 9.6387C118.349 6.60756 116.144 5.17944 113.752 5.17944C111.299 5.17944 109.436 6.89901 108.69 9.14323H108.255L108.69 5.41261H106.454V20.6265H108.69V11.6497C108.69 8.61859 110.584 7.0156 113.162 7.0156C115.584 7.0156 117.168 8.67686 117.168 11.0668V20.6265H119.404V11.0668C119.404 8.73521 121.485 7.0156 123.969 7.0156C126.423 7.0156 127.944 8.3271 127.944 11.4457V20.6265H130.18V11.4457C130.242 7.30705 127.913 5.17944 124.404 5.17944Z" fill="black"/>
<path d="M170.24 9.90113C169.184 6.95746 166.203 5.20874 163.377 5.20874C158.688 5.20874 154.837 8.58961 154.837 13.0197C154.837 17.4498 158.688 20.8306 163.377 20.8306C166.172 20.8306 169.154 19.0819 170.24 16.1383H170.675L170.24 20.6557H172.476V5.41276H170.24L170.675 9.90113H170.24ZM163.749 18.9945C160.024 18.9945 157.135 16.3422 157.135 12.9614C157.135 9.60972 159.992 7.01575 163.749 7.01575C167.446 7.01575 170.209 9.63881 170.209 12.9614C170.24 16.3422 167.476 18.9945 163.749 18.9945Z" fill="black"/>
<path d="M99.9957 9.90113C98.94 6.95746 95.959 5.20874 93.1325 5.20874C88.4435 5.20874 84.5928 8.58961 84.5928 13.0197C84.5928 17.4498 88.4435 20.8306 93.1325 20.8306C95.9275 20.8306 98.9086 19.0819 99.9957 16.1383H100.431L99.9957 20.6557H102.232V5.41276H99.9957L100.431 9.90113H99.9957ZM93.5368 18.9945C89.81 18.9945 86.9216 16.3422 86.9216 12.9614C86.9216 9.60972 89.7786 7.01575 93.5368 7.01575C97.2321 7.01575 99.9957 9.63881 99.9957 12.9614C99.9957 16.3422 97.2321 18.9945 93.5368 18.9945Z" fill="black"/>
<path d="M15.403 9.90113C14.3471 6.95746 11.3659 5.20874 8.53996 5.20874C3.85075 5.20874 0 8.58961 0 13.0197C0 17.4498 3.85075 20.8306 8.53996 20.8306C11.3348 20.8306 14.3161 19.0819 15.403 16.1383H15.8377L15.403 20.6557H17.6389V5.41276H15.403L15.8377 9.90113H15.403ZM8.94363 18.9945C5.21714 18.9945 2.32908 16.3422 2.32908 12.9614C2.32908 9.60972 5.18609 7.01575 8.94363 7.01575C12.6392 7.01575 15.403 9.63881 15.403 12.9614C15.403 16.3422 12.6392 18.9945 8.94363 18.9945Z" fill="black"/>
<path d="M36.7995 9.90185C35.7436 6.9582 32.7624 5.20949 29.9365 5.20949C25.2472 5.20949 21.3965 8.59033 21.3965 13.0205C21.3965 17.4505 25.2472 20.8313 29.9365 20.8313C32.7313 20.8313 35.7126 19.0826 36.7995 16.139H37.2342L36.7995 20.6565H39.0354V0.0507812H36.7995L37.2342 9.90185H36.7995ZM30.3091 18.9952C26.5826 18.9952 23.6945 16.3429 23.6945 12.9621C23.6945 9.61044 26.5516 7.0165 30.3091 7.0165C34.0046 7.0165 36.7685 9.63961 36.7685 12.9621C36.7995 16.3429 34.0357 18.9952 30.3091 18.9952Z" fill="black"/>
<path d="M143.564 5.20874C140.77 5.20874 137.788 6.95746 136.702 9.90113H136.267L136.702 5.41276H134.466V24.8818H136.702L136.267 16.1383H136.702C137.758 19.0819 140.739 20.8306 143.564 20.8306C148.254 20.8306 152.105 17.4498 152.105 13.0197C152.105 8.58961 148.254 5.20874 143.564 5.20874ZM143.192 18.9945C139.496 18.9945 136.733 16.3422 136.733 12.9614C136.733 9.63881 139.528 7.01575 143.192 7.01575C146.918 7.01575 149.807 9.60972 149.807 12.9614C149.775 16.3714 146.918 18.9945 143.192 18.9945Z" fill="black"/>
<path d="M224.803 16.5171C223.064 18.4989 221.2 19.0527 219.244 19.0527C215.921 19.0527 213.343 16.8668 213.188 13.8648V13.4859C214.555 13.894 219.71 15.2346 223.499 13.8357C227.225 12.4659 226.511 8.03574 223.375 6.25791C222.194 5.58757 220.703 5.15039 219.058 5.15039C214.337 5.15039 211.015 8.56038 211.015 12.9613C211.015 17.3914 214.337 20.8306 219.244 20.8306C222.039 20.8306 224.492 19.8687 226.48 17.508L224.803 16.5171ZM219.12 7.01568C220.362 7.01568 221.511 7.36543 222.381 7.89003C224.368 9.05585 224.865 11.7955 222.194 12.8447C219.058 14.098 214.4 13.2819 213.188 13.0196V12.8156C213.375 9.4347 215.828 7.01568 219.12 7.01568Z" fill="black"/>
<path d="M208.344 12.1744V20.6264H206.077V11.504C205.891 8.47287 204.587 6.49103 200.922 6.95735C198.065 7.30709 195.643 9.69704 195.395 12.3493V20.6556H193.128V5.41265H195.395L194.96 10.0467H195.395C195.892 8.53122 196.854 7.30709 197.91 6.43274C198.935 5.58752 200.301 5.1795 201.544 5.15035C206.233 4.94633 208.344 7.74426 208.344 12.1744Z" fill="black"/>
<path d="M81.8596 12.1752V20.6274H79.6238V11.5049C79.4374 8.47379 78.1332 6.49188 74.4687 6.95821C71.6117 7.30795 69.1894 9.69788 68.941 12.3501V20.6565H66.7051V0.0507812H68.941L68.5063 10.0476H68.941C69.4379 8.53206 70.4006 7.30795 71.4564 6.43359C72.4813 5.58838 73.8476 5.18034 75.0898 5.1512C79.7479 4.94719 81.8596 7.7451 81.8596 12.1752Z" fill="black"/>
<path d="M61.6125 15.1472C59.9667 17.4204 57.1407 18.9069 53.9732 18.9069C48.9113 18.9069 44.781 15.118 44.781 10.4256C44.781 5.73322 48.5387 1.76946 53.7247 1.5363C57.327 1.36143 60.1219 3.34331 61.6125 5.82065H63.2585V0.049893H61.0225L62.0163 4.71313H61.5504C60.8983 3.54732 60.0909 2.61468 59.1903 1.88604C56.1159 -0.562157 51.8304 -0.474723 48.3523 1.27399C44.8121 3.05185 42.4209 6.491 42.4209 10.4548C42.4209 16.2255 47.607 20.8887 54.0042 20.8887C57.9481 20.8887 61.4262 19.1109 63.5069 16.4004L61.6125 15.1472Z" fill="black"/>
<path d="M190.551 20.1894C189.899 19.1984 188.781 18.6155 187.259 18.2949C184.992 17.8287 181.98 18.499 179.651 19.7814H179.216L181.39 16.7503C181.856 16.8377 182.353 16.896 182.85 16.896C186.576 16.896 189.588 14.2438 189.588 10.9504C189.588 8.91021 188.44 7.13234 186.7 6.05397L189.402 1.97363H187.166L185.24 5.35448C184.496 5.12132 183.719 4.9756 182.881 4.9756C179.154 4.9756 176.142 7.62778 176.142 10.9213C176.142 13.2237 177.632 15.2347 179.807 16.2256L177.012 20.5391H179.247C184.092 18.5573 187.787 19.0527 188.967 20.8306C190.21 22.6959 185.521 25.2607 176.421 21.501L175.583 22.7833C179.185 24.2406 182.477 24.8818 184.837 24.8818C187.166 24.8818 188.843 24.328 189.837 23.5703C191.016 22.6085 191.297 21.3261 190.551 20.1894ZM178.347 10.9504C178.347 8.70616 180.334 6.87004 182.788 6.87004C185.24 6.87004 187.229 8.70616 187.229 10.9504C187.229 13.1946 185.24 15.0307 182.788 15.0307C180.334 15.0307 178.347 13.1946 178.347 10.9504Z" fill="black"/>
</svg>
