<svg width="120" height="220" viewBox="0 0 120 220" fill="none" xmlns="http://www.w3.org/2000/svg">
<path d="M53.7733 220C56.1699 173.186 30.474 126.372 26.6128 119.312C22.7516 112.253 6.54584 84.814 1.04958 92.0036C-1.08038 94.7905 -1.41441 106.416 14.497 132.502C41.1252 176.158 69.7504 184.889 84.3958 180.988C102.971 176.04 111.644 138.474 96.3786 95.7188C79.574 48.6548 57.8893 34.9313 48.8472 42.9601C40.906 50.011 43.7961 87.6054 74.2773 117.083C112.888 154.423 143.952 126.671 142.978 84.2017C141.779 32 113.554 1.16214 97.9763 0.0475006C82.3985 -1.06778 79.3366 17.6954 80.6677 31.071L87.4577 35.3433C86.2597 20.8536 90.387 14.9091 95.4462 13.2368C113.337 7.32474 139.016 54.2273 133.125 90.7032C126.735 130.273 98.4475 126.917 86.7924 118.755C51.7764 94.2335 49.1133 60.98 54.7053 55.5931C65.443 45.2479 84.795 80.4858 90.2539 102.035C95.7128 123.585 98.7747 160.739 79.4697 168.913C45.906 183.124 1.58231 113.182 7.84004 105.565C13.6644 98.4758 49.1133 166.126 43.921 209.04L53.7733 220Z" fill="#E6D2B4"/>
</svg>
