<svg width="46" height="46" viewBox="0 0 46 46" fill="none" xmlns="http://www.w3.org/2000/svg">
<path d="M23 46C35.7025 46 46 35.7025 46 23C46 10.2975 35.7025 0 23 0C10.2975 0 0 10.2975 0 23C0 35.7025 10.2975 46 23 46Z" fill="url(#paint0_linear_376_1441)"/>
<path d="M10.411 22.7576C17.1159 19.8363 21.5869 17.9104 23.824 16.98C30.2114 14.3232 31.5386 13.8617 32.4037 13.8463C32.594 13.8431 33.0194 13.8903 33.2949 14.1139C33.5276 14.3027 33.5916 14.5578 33.6223 14.7368C33.6529 14.9158 33.6911 15.3236 33.6607 15.6422C33.3146 19.2791 31.8169 28.1047 31.0549 32.178C30.7325 33.9016 30.0977 34.4795 29.4831 34.5361C28.1475 34.659 27.1332 33.6534 25.8396 32.8054C23.8153 31.4784 22.6717 30.6524 20.7067 29.3575C18.4359 27.8611 19.908 27.0386 21.2021 25.6945C21.5408 25.3427 27.4257 19.9899 27.5396 19.5044C27.5539 19.4436 27.5671 19.2173 27.4326 19.0977C27.2981 18.9782 27.0996 19.0191 26.9564 19.0516C26.7534 19.0977 23.5195 21.2351 17.2549 25.4639C16.337 26.0942 15.5056 26.4013 14.7606 26.3853C13.9394 26.3675 12.3597 25.9209 11.1854 25.5392C9.745 25.071 8.60021 24.8234 8.6999 24.0283C8.75182 23.6141 9.32217 23.1905 10.411 22.7576Z" fill="white"/>
<defs>
<linearGradient id="paint0_linear_376_1441" x1="23" y1="0" x2="23" y2="45.6587" gradientUnits="userSpaceOnUse">
<stop stop-color="#2AABEE"/>
<stop offset="1" stop-color="#229ED9"/>
</linearGradient>
</defs>
</svg>
