<svg width="8114" height="5317" viewBox="0 0 8114 5317" fill="none" xmlns="http://www.w3.org/2000/svg">
<path d="M2 2460.87C335.909 2407.73 683.227 2442.05 994.08 2580.5C1174.51 2660.86 1334.45 2777.94 1485.49 2903.87C1734.02 3111.09 1960.83 3343.13 2201.56 3559.11C2777.39 4075.75 3454.9 4477.09 4157.15 4797.42C4634.96 5015.37 5123.54 5178.56 5643.34 5261.65C6048.21 5326.36 6478.28 5342.09 6880.93 5252.77C7325.61 5154.12 7841.38 4904.87 8044.41 4469.8C8180.13 4178.98 8082.29 3872.76 8004.26 3582.26C7932.44 3314.9 7820.81 3043.48 7527.91 2957.13C7327.78 2898.12 7099.22 2923.26 6896.37 2949.41C6449.8 3006.98 6014.91 3141.76 5595.86 3302.88C5244.09 3438.13 4898.93 3597.83 4533.14 3693.01C4075.39 3812.12 3612.1 3807.91 3148.86 3721.18C2602.78 3618.94 2069.1 3427.46 1573.11 3178.62C1333.45 3058.39 1102.9 2920.23 888.695 2758.78C685.2 2605.4 478.385 2428.05 355.983 2200.01C298.56 2093.04 260.799 1968.67 278.393 1845.77C303.783 1668.41 436.246 1518.1 568.682 1408.17C961.53 1082.1 1502.32 932.938 1998.51 865.616C2566.33 788.575 3153.52 796.7 3724.42 828.571C4300.31 860.719 4870.74 959.071 5446.47 987.556C5778.86 1004 6251.49 989.197 6347.45 588.935C6369.59 496.571 6372.93 396.484 6372.93 301.834C6372.93 235.782 6378.4 152.674 6352.85 89.9823C6334.87 45.8457 6298.12 28.6901 6262.52 2" stroke="#EBFF00" stroke-width="3" stroke-linecap="round"/>
</svg>
