<svg width="325" height="723" viewBox="0 0 325 723" fill="none" xmlns="http://www.w3.org/2000/svg">
<rect y="0.000488281" width="325" height="108" rx="24.7276" fill="white"/>
<path d="M38.9315 72.728L27.3755 34.928H33.1535L40.0655 58.202C40.8215 60.794 41.4155 63.332 41.8475 65.816C42.3155 63.332 42.9635 60.794 43.7915 58.202L50.9195 34.928H55.7795L62.9075 58.202C63.7355 60.794 64.3655 63.332 64.7976 65.816C65.2655 63.332 65.8775 60.794 66.6335 58.202L73.5996 34.928H79.3236L67.8216 72.728H62.2055L55.2395 49.778C54.4475 47.186 53.8355 44.648 53.4035 42.164C52.9355 44.648 52.3055 47.186 51.5135 49.778L44.4935 72.728H38.9315ZM90.0387 45.08C92.3427 45.08 94.3767 45.512 96.1408 46.376C97.9047 47.204 99.2728 48.392 100.245 49.94C101.217 51.452 101.703 53.198 101.703 55.178V72.728H96.4647V68.3C95.8168 69.776 94.6828 70.964 93.0627 71.864C91.4787 72.728 89.6607 73.16 87.6087 73.16C84.8367 73.16 82.6047 72.404 80.9127 70.892C79.2207 69.38 78.3747 67.4 78.3747 64.952C78.3747 62.36 79.3287 60.308 81.2367 58.796C83.1447 57.248 85.7187 56.474 88.9587 56.474H94.6288C95.2407 56.474 95.6907 56.33 95.9787 56.042C96.3027 55.754 96.4647 55.358 96.4647 54.854C96.4647 53.162 95.8707 51.812 94.6827 50.804C93.5307 49.796 91.9287 49.292 89.8767 49.292C88.0407 49.292 86.4747 49.796 85.1787 50.804C83.9187 51.812 83.2527 53.018 83.1807 54.422H78.3207C78.4647 52.658 79.0587 51.074 80.1027 49.67C81.1467 48.23 82.5327 47.114 84.2607 46.322C85.9887 45.494 87.9147 45.08 90.0387 45.08ZM88.6347 69.002C91.0827 69.002 92.9907 68.264 94.3587 66.788C95.7627 65.312 96.4647 63.314 96.4647 60.794V60.146H89.4447C87.6447 60.146 86.2047 60.578 85.1247 61.442C84.0807 62.27 83.5587 63.404 83.5587 64.844C83.5587 66.068 84.0267 67.076 84.9627 67.868C85.8987 68.624 87.1227 69.002 88.6347 69.002ZM109.559 36.98H114.797V45.512H122.843V50.048H114.797V63.656C114.797 65.096 115.157 66.212 115.877 67.004C116.633 67.796 117.677 68.192 119.009 68.192H122.843V72.728H118.577C115.805 72.728 113.609 71.936 111.989 70.352C110.369 68.768 109.559 66.59 109.559 63.818V50.048H103.997V45.512H109.559V36.98ZM137.531 73.16C134.759 73.16 132.347 72.53 130.295 71.27C128.279 69.974 126.731 68.264 125.651 66.14C124.571 64.016 124.031 61.676 124.031 59.12C124.031 56.564 124.571 54.224 125.651 52.1C126.731 49.976 128.279 48.284 130.295 47.024C132.347 45.728 134.759 45.08 137.531 45.08C139.655 45.08 141.635 45.494 143.471 46.322C145.307 47.114 146.819 48.266 148.007 49.778C149.195 51.254 149.915 53 150.167 55.016H144.929C144.677 53.468 143.849 52.19 142.445 51.182C141.077 50.174 139.475 49.67 137.639 49.67C135.011 49.67 132.995 50.552 131.591 52.316C130.187 54.08 129.485 56.348 129.485 59.12C129.485 61.856 130.187 64.124 131.591 65.924C133.031 67.688 135.047 68.57 137.639 68.57C139.475 68.57 141.041 68.12 142.337 67.22C143.669 66.32 144.551 65.096 144.983 63.548H150.167C149.735 66.428 148.367 68.75 146.063 70.514C143.795 72.278 140.951 73.16 137.531 73.16ZM154.318 72.728V34.118H159.556V50.318C160.276 48.626 161.392 47.33 162.904 46.43C164.452 45.53 166.252 45.08 168.304 45.08C171.364 45.08 173.812 46.088 175.648 48.104C177.52 50.12 178.456 52.748 178.456 55.988V72.728H173.218V57.014C173.218 54.854 172.624 53.108 171.436 51.776C170.284 50.444 168.754 49.778 166.846 49.778C164.722 49.778 162.976 50.552 161.608 52.1C160.24 53.648 159.556 55.61 159.556 57.986V72.728H154.318ZM207.381 73.16C204.609 73.16 202.197 72.53 200.145 71.27C198.129 69.974 196.581 68.264 195.501 66.14C194.421 64.016 193.881 61.676 193.881 59.12C193.881 56.564 194.421 54.224 195.501 52.1C196.581 49.976 198.129 48.284 200.145 47.024C202.197 45.728 204.609 45.08 207.381 45.08C209.505 45.08 211.485 45.494 213.321 46.322C215.157 47.114 216.669 48.266 217.857 49.778C219.045 51.254 219.765 53 220.017 55.016H214.779C214.527 53.468 213.699 52.19 212.295 51.182C210.927 50.174 209.325 49.67 207.489 49.67C204.861 49.67 202.845 50.552 201.441 52.316C200.037 54.08 199.335 56.348 199.335 59.12C199.335 61.856 200.037 64.124 201.441 65.924C202.881 67.688 204.897 68.57 207.489 68.57C209.325 68.57 210.891 68.12 212.187 67.22C213.519 66.32 214.401 65.096 214.833 63.548H220.017C219.585 66.428 218.217 68.75 215.913 70.514C213.645 72.278 210.801 73.16 207.381 73.16ZM235.724 50.048C231.332 50.048 229.136 53.504 229.136 60.416V72.728H223.898V45.512H229.136V50.75C229.748 48.914 230.63 47.582 231.782 46.754C232.934 45.926 234.464 45.512 236.372 45.512H239.666V50.048H235.724ZM266.428 63.872C265.924 66.68 264.538 68.93 262.27 70.622C260.002 72.314 257.194 73.16 253.846 73.16C251.11 73.16 248.698 72.512 246.61 71.216C244.558 69.92 242.974 68.192 241.858 66.032C240.742 63.872 240.184 61.514 240.184 58.958C240.184 56.402 240.706 54.08 241.75 51.992C242.794 49.868 244.306 48.194 246.286 46.97C248.266 45.71 250.606 45.08 253.306 45.08C256.006 45.08 258.328 45.674 260.272 46.862C262.216 48.014 263.692 49.58 264.7 51.56C265.708 53.504 266.212 55.646 266.212 57.986C266.212 58.706 266.176 59.39 266.104 60.038H245.314C245.53 62.63 246.412 64.718 247.96 66.302C249.508 67.886 251.47 68.678 253.846 68.678C255.826 68.678 257.446 68.264 258.706 67.436C259.966 66.608 260.794 65.42 261.19 63.872H266.428ZM253.306 49.292C251.182 49.292 249.436 49.886 248.068 51.074C246.736 52.226 245.872 53.936 245.476 56.204H260.92C260.74 54.116 259.984 52.442 258.652 51.182C257.32 49.922 255.538 49.292 253.306 49.292ZM282.939 73.16C280.239 73.16 277.827 72.566 275.703 71.378C273.579 70.154 271.905 68.48 270.681 66.356C269.493 64.232 268.899 61.82 268.899 59.12C268.899 56.42 269.493 54.008 270.681 51.884C271.905 49.76 273.579 48.104 275.703 46.916C277.827 45.692 280.239 45.08 282.939 45.08C285.639 45.08 288.051 45.692 290.175 46.916C292.299 48.104 293.955 49.76 295.143 51.884C296.331 54.008 296.925 56.42 296.925 59.12C296.925 61.82 296.331 64.232 295.143 66.356C293.955 68.48 292.299 70.154 290.175 71.378C288.051 72.566 285.639 73.16 282.939 73.16ZM282.939 68.57C285.495 68.57 287.565 67.688 289.149 65.924C290.769 64.16 291.579 61.892 291.579 59.12C291.579 56.348 290.769 54.08 289.149 52.316C287.565 50.552 285.495 49.67 282.939 49.67C280.347 49.67 278.241 50.552 276.621 52.316C275.037 54.08 274.245 56.348 274.245 59.12C274.245 61.892 275.037 64.16 276.621 65.924C278.241 67.688 280.347 68.57 282.939 68.57Z" fill="#1E1E1E"/>
<path d="M38.9315 195.728L27.3755 157.928H33.1535L40.0655 181.202C40.8215 183.794 41.4155 186.332 41.8475 188.816C42.3155 186.332 42.9635 183.794 43.7915 181.202L50.9195 157.928H55.7795L62.9075 181.202C63.7355 183.794 64.3655 186.332 64.7976 188.816C65.2655 186.332 65.8775 183.794 66.6335 181.202L73.5996 157.928H79.3236L67.8216 195.728H62.2055L55.2395 172.778C54.4475 170.186 53.8355 167.648 53.4035 165.164C52.9355 167.648 52.3055 170.186 51.5135 172.778L44.4935 195.728H38.9315ZM90.0387 168.08C92.3427 168.08 94.3767 168.512 96.1408 169.376C97.9047 170.204 99.2728 171.392 100.245 172.94C101.217 174.452 101.703 176.198 101.703 178.178V195.728H96.4647V191.3C95.8168 192.776 94.6828 193.964 93.0627 194.864C91.4787 195.728 89.6607 196.16 87.6087 196.16C84.8367 196.16 82.6047 195.404 80.9127 193.892C79.2207 192.38 78.3747 190.4 78.3747 187.952C78.3747 185.36 79.3287 183.308 81.2367 181.796C83.1447 180.248 85.7187 179.474 88.9587 179.474H94.6288C95.2407 179.474 95.6907 179.33 95.9787 179.042C96.3027 178.754 96.4647 178.358 96.4647 177.854C96.4647 176.162 95.8707 174.812 94.6827 173.804C93.5307 172.796 91.9287 172.292 89.8767 172.292C88.0407 172.292 86.4747 172.796 85.1787 173.804C83.9187 174.812 83.2527 176.018 83.1807 177.422H78.3207C78.4647 175.658 79.0587 174.074 80.1027 172.67C81.1467 171.23 82.5327 170.114 84.2607 169.322C85.9887 168.494 87.9147 168.08 90.0387 168.08ZM88.6347 192.002C91.0827 192.002 92.9907 191.264 94.3587 189.788C95.7627 188.312 96.4647 186.314 96.4647 183.794V183.146H89.4447C87.6447 183.146 86.2047 183.578 85.1247 184.442C84.0807 185.27 83.5587 186.404 83.5587 187.844C83.5587 189.068 84.0267 190.076 84.9627 190.868C85.8987 191.624 87.1227 192.002 88.6347 192.002ZM109.559 159.98H114.797V168.512H122.843V173.048H114.797V186.656C114.797 188.096 115.157 189.212 115.877 190.004C116.633 190.796 117.677 191.192 119.009 191.192H122.843V195.728H118.577C115.805 195.728 113.609 194.936 111.989 193.352C110.369 191.768 109.559 189.59 109.559 186.818V173.048H103.997V168.512H109.559V159.98ZM137.531 196.16C134.759 196.16 132.347 195.53 130.295 194.27C128.279 192.974 126.731 191.264 125.651 189.14C124.571 187.016 124.031 184.676 124.031 182.12C124.031 179.564 124.571 177.224 125.651 175.1C126.731 172.976 128.279 171.284 130.295 170.024C132.347 168.728 134.759 168.08 137.531 168.08C139.655 168.08 141.635 168.494 143.471 169.322C145.307 170.114 146.819 171.266 148.007 172.778C149.195 174.254 149.915 176 150.167 178.016H144.929C144.677 176.468 143.849 175.19 142.445 174.182C141.077 173.174 139.475 172.67 137.639 172.67C135.011 172.67 132.995 173.552 131.591 175.316C130.187 177.08 129.485 179.348 129.485 182.12C129.485 184.856 130.187 187.124 131.591 188.924C133.031 190.688 135.047 191.57 137.639 191.57C139.475 191.57 141.041 191.12 142.337 190.22C143.669 189.32 144.551 188.096 144.983 186.548H150.167C149.735 189.428 148.367 191.75 146.063 193.514C143.795 195.278 140.951 196.16 137.531 196.16ZM154.318 195.728V157.118H159.556V173.318C160.276 171.626 161.392 170.33 162.904 169.43C164.452 168.53 166.252 168.08 168.304 168.08C171.364 168.08 173.812 169.088 175.648 171.104C177.52 173.12 178.456 175.748 178.456 178.988V195.728H173.218V180.014C173.218 177.854 172.624 176.108 171.436 174.776C170.284 173.444 168.754 172.778 166.846 172.778C164.722 172.778 162.976 173.552 161.608 175.1C160.24 176.648 159.556 178.61 159.556 180.986V195.728H154.318ZM207.381 196.16C204.609 196.16 202.197 195.53 200.145 194.27C198.129 192.974 196.581 191.264 195.501 189.14C194.421 187.016 193.881 184.676 193.881 182.12C193.881 179.564 194.421 177.224 195.501 175.1C196.581 172.976 198.129 171.284 200.145 170.024C202.197 168.728 204.609 168.08 207.381 168.08C209.505 168.08 211.485 168.494 213.321 169.322C215.157 170.114 216.669 171.266 217.857 172.778C219.045 174.254 219.765 176 220.017 178.016H214.779C214.527 176.468 213.699 175.19 212.295 174.182C210.927 173.174 209.325 172.67 207.489 172.67C204.861 172.67 202.845 173.552 201.441 175.316C200.037 177.08 199.335 179.348 199.335 182.12C199.335 184.856 200.037 187.124 201.441 188.924C202.881 190.688 204.897 191.57 207.489 191.57C209.325 191.57 210.891 191.12 212.187 190.22C213.519 189.32 214.401 188.096 214.833 186.548H220.017C219.585 189.428 218.217 191.75 215.913 193.514C213.645 195.278 210.801 196.16 207.381 196.16ZM235.724 173.048C231.332 173.048 229.136 176.504 229.136 183.416V195.728H223.898V168.512H229.136V173.75C229.748 171.914 230.63 170.582 231.782 169.754C232.934 168.926 234.464 168.512 236.372 168.512H239.666V173.048H235.724ZM266.428 186.872C265.924 189.68 264.538 191.93 262.27 193.622C260.002 195.314 257.194 196.16 253.846 196.16C251.11 196.16 248.698 195.512 246.61 194.216C244.558 192.92 242.974 191.192 241.858 189.032C240.742 186.872 240.184 184.514 240.184 181.958C240.184 179.402 240.706 177.08 241.75 174.992C242.794 172.868 244.306 171.194 246.286 169.97C248.266 168.71 250.606 168.08 253.306 168.08C256.006 168.08 258.328 168.674 260.272 169.862C262.216 171.014 263.692 172.58 264.7 174.56C265.708 176.504 266.212 178.646 266.212 180.986C266.212 181.706 266.176 182.39 266.104 183.038H245.314C245.53 185.63 246.412 187.718 247.96 189.302C249.508 190.886 251.47 191.678 253.846 191.678C255.826 191.678 257.446 191.264 258.706 190.436C259.966 189.608 260.794 188.42 261.19 186.872H266.428ZM253.306 172.292C251.182 172.292 249.436 172.886 248.068 174.074C246.736 175.226 245.872 176.936 245.476 179.204H260.92C260.74 177.116 259.984 175.442 258.652 174.182C257.32 172.922 255.538 172.292 253.306 172.292ZM282.939 196.16C280.239 196.16 277.827 195.566 275.703 194.378C273.579 193.154 271.905 191.48 270.681 189.356C269.493 187.232 268.899 184.82 268.899 182.12C268.899 179.42 269.493 177.008 270.681 174.884C271.905 172.76 273.579 171.104 275.703 169.916C277.827 168.692 280.239 168.08 282.939 168.08C285.639 168.08 288.051 168.692 290.175 169.916C292.299 171.104 293.955 172.76 295.143 174.884C296.331 177.008 296.925 179.42 296.925 182.12C296.925 184.82 296.331 187.232 295.143 189.356C293.955 191.48 292.299 193.154 290.175 194.378C288.051 195.566 285.639 196.16 282.939 196.16ZM282.939 191.57C285.495 191.57 287.565 190.688 289.149 188.924C290.769 187.16 291.579 184.892 291.579 182.12C291.579 179.348 290.769 177.08 289.149 175.316C287.565 173.552 285.495 172.67 282.939 172.67C280.347 172.67 278.241 173.552 276.621 175.316C275.037 177.08 274.245 179.348 274.245 182.12C274.245 184.892 275.037 187.16 276.621 188.924C278.241 190.688 280.347 191.57 282.939 191.57Z" fill="white"/>
<rect x="1" y="124" width="323" height="106" rx="23.7276" stroke="white" stroke-width="2"/>
<rect y="246" width="325" height="108" rx="24.7276" fill="#EBFF00"/>
<path d="M38.9315 318.728L27.3755 280.928H33.1535L40.0655 304.202C40.8215 306.794 41.4155 309.332 41.8475 311.816C42.3155 309.332 42.9635 306.794 43.7915 304.202L50.9195 280.928H55.7795L62.9075 304.202C63.7355 306.794 64.3655 309.332 64.7976 311.816C65.2655 309.332 65.8775 306.794 66.6335 304.202L73.5996 280.928H79.3236L67.8216 318.728H62.2055L55.2395 295.778C54.4475 293.186 53.8355 290.648 53.4035 288.164C52.9355 290.648 52.3055 293.186 51.5135 295.778L44.4935 318.728H38.9315ZM90.0387 291.08C92.3427 291.08 94.3767 291.512 96.1408 292.376C97.9047 293.204 99.2728 294.392 100.245 295.94C101.217 297.452 101.703 299.198 101.703 301.178V318.728H96.4647V314.3C95.8168 315.776 94.6828 316.964 93.0627 317.864C91.4787 318.728 89.6607 319.16 87.6087 319.16C84.8367 319.16 82.6047 318.404 80.9127 316.892C79.2207 315.38 78.3747 313.4 78.3747 310.952C78.3747 308.36 79.3287 306.308 81.2367 304.796C83.1447 303.248 85.7187 302.474 88.9587 302.474H94.6288C95.2407 302.474 95.6907 302.33 95.9787 302.042C96.3027 301.754 96.4647 301.358 96.4647 300.854C96.4647 299.162 95.8707 297.812 94.6827 296.804C93.5307 295.796 91.9287 295.292 89.8767 295.292C88.0407 295.292 86.4747 295.796 85.1787 296.804C83.9187 297.812 83.2527 299.018 83.1807 300.422H78.3207C78.4647 298.658 79.0587 297.074 80.1027 295.67C81.1467 294.23 82.5327 293.114 84.2607 292.322C85.9887 291.494 87.9147 291.08 90.0387 291.08ZM88.6347 315.002C91.0827 315.002 92.9907 314.264 94.3587 312.788C95.7627 311.312 96.4647 309.314 96.4647 306.794V306.146H89.4447C87.6447 306.146 86.2047 306.578 85.1247 307.442C84.0807 308.27 83.5587 309.404 83.5587 310.844C83.5587 312.068 84.0267 313.076 84.9627 313.868C85.8987 314.624 87.1227 315.002 88.6347 315.002ZM109.559 282.98H114.797V291.512H122.843V296.048H114.797V309.656C114.797 311.096 115.157 312.212 115.877 313.004C116.633 313.796 117.677 314.192 119.009 314.192H122.843V318.728H118.577C115.805 318.728 113.609 317.936 111.989 316.352C110.369 314.768 109.559 312.59 109.559 309.818V296.048H103.997V291.512H109.559V282.98ZM137.531 319.16C134.759 319.16 132.347 318.53 130.295 317.27C128.279 315.974 126.731 314.264 125.651 312.14C124.571 310.016 124.031 307.676 124.031 305.12C124.031 302.564 124.571 300.224 125.651 298.1C126.731 295.976 128.279 294.284 130.295 293.024C132.347 291.728 134.759 291.08 137.531 291.08C139.655 291.08 141.635 291.494 143.471 292.322C145.307 293.114 146.819 294.266 148.007 295.778C149.195 297.254 149.915 299 150.167 301.016H144.929C144.677 299.468 143.849 298.19 142.445 297.182C141.077 296.174 139.475 295.67 137.639 295.67C135.011 295.67 132.995 296.552 131.591 298.316C130.187 300.08 129.485 302.348 129.485 305.12C129.485 307.856 130.187 310.124 131.591 311.924C133.031 313.688 135.047 314.57 137.639 314.57C139.475 314.57 141.041 314.12 142.337 313.22C143.669 312.32 144.551 311.096 144.983 309.548H150.167C149.735 312.428 148.367 314.75 146.063 316.514C143.795 318.278 140.951 319.16 137.531 319.16ZM154.318 318.728V280.118H159.556V296.318C160.276 294.626 161.392 293.33 162.904 292.43C164.452 291.53 166.252 291.08 168.304 291.08C171.364 291.08 173.812 292.088 175.648 294.104C177.52 296.12 178.456 298.748 178.456 301.988V318.728H173.218V303.014C173.218 300.854 172.624 299.108 171.436 297.776C170.284 296.444 168.754 295.778 166.846 295.778C164.722 295.778 162.976 296.552 161.608 298.1C160.24 299.648 159.556 301.61 159.556 303.986V318.728H154.318ZM207.381 319.16C204.609 319.16 202.197 318.53 200.145 317.27C198.129 315.974 196.581 314.264 195.501 312.14C194.421 310.016 193.881 307.676 193.881 305.12C193.881 302.564 194.421 300.224 195.501 298.1C196.581 295.976 198.129 294.284 200.145 293.024C202.197 291.728 204.609 291.08 207.381 291.08C209.505 291.08 211.485 291.494 213.321 292.322C215.157 293.114 216.669 294.266 217.857 295.778C219.045 297.254 219.765 299 220.017 301.016H214.779C214.527 299.468 213.699 298.19 212.295 297.182C210.927 296.174 209.325 295.67 207.489 295.67C204.861 295.67 202.845 296.552 201.441 298.316C200.037 300.08 199.335 302.348 199.335 305.12C199.335 307.856 200.037 310.124 201.441 311.924C202.881 313.688 204.897 314.57 207.489 314.57C209.325 314.57 210.891 314.12 212.187 313.22C213.519 312.32 214.401 311.096 214.833 309.548H220.017C219.585 312.428 218.217 314.75 215.913 316.514C213.645 318.278 210.801 319.16 207.381 319.16ZM235.724 296.048C231.332 296.048 229.136 299.504 229.136 306.416V318.728H223.898V291.512H229.136V296.75C229.748 294.914 230.63 293.582 231.782 292.754C232.934 291.926 234.464 291.512 236.372 291.512H239.666V296.048H235.724ZM266.428 309.872C265.924 312.68 264.538 314.93 262.27 316.622C260.002 318.314 257.194 319.16 253.846 319.16C251.11 319.16 248.698 318.512 246.61 317.216C244.558 315.92 242.974 314.192 241.858 312.032C240.742 309.872 240.184 307.514 240.184 304.958C240.184 302.402 240.706 300.08 241.75 297.992C242.794 295.868 244.306 294.194 246.286 292.97C248.266 291.71 250.606 291.08 253.306 291.08C256.006 291.08 258.328 291.674 260.272 292.862C262.216 294.014 263.692 295.58 264.7 297.56C265.708 299.504 266.212 301.646 266.212 303.986C266.212 304.706 266.176 305.39 266.104 306.038H245.314C245.53 308.63 246.412 310.718 247.96 312.302C249.508 313.886 251.47 314.678 253.846 314.678C255.826 314.678 257.446 314.264 258.706 313.436C259.966 312.608 260.794 311.42 261.19 309.872H266.428ZM253.306 295.292C251.182 295.292 249.436 295.886 248.068 297.074C246.736 298.226 245.872 299.936 245.476 302.204H260.92C260.74 300.116 259.984 298.442 258.652 297.182C257.32 295.922 255.538 295.292 253.306 295.292ZM282.939 319.16C280.239 319.16 277.827 318.566 275.703 317.378C273.579 316.154 271.905 314.48 270.681 312.356C269.493 310.232 268.899 307.82 268.899 305.12C268.899 302.42 269.493 300.008 270.681 297.884C271.905 295.76 273.579 294.104 275.703 292.916C277.827 291.692 280.239 291.08 282.939 291.08C285.639 291.08 288.051 291.692 290.175 292.916C292.299 294.104 293.955 295.76 295.143 297.884C296.331 300.008 296.925 302.42 296.925 305.12C296.925 307.82 296.331 310.232 295.143 312.356C293.955 314.48 292.299 316.154 290.175 317.378C288.051 318.566 285.639 319.16 282.939 319.16ZM282.939 314.57C285.495 314.57 287.565 313.688 289.149 311.924C290.769 310.16 291.579 307.892 291.579 305.12C291.579 302.348 290.769 300.08 289.149 298.316C287.565 296.552 285.495 295.67 282.939 295.67C280.347 295.67 278.241 296.552 276.621 298.316C275.037 300.08 274.245 302.348 274.245 305.12C274.245 307.892 275.037 310.16 276.621 311.924C278.241 313.688 280.347 314.57 282.939 314.57Z" fill="#1E1E1E"/>
<rect y="369" width="325" height="108" rx="24.7276" fill="white"/>
<path d="M38.9315 441.728L27.3755 403.928H33.1535L40.0655 427.202C40.8215 429.794 41.4155 432.332 41.8475 434.816C42.3155 432.332 42.9635 429.794 43.7915 427.202L50.9195 403.928H55.7795L62.9075 427.202C63.7355 429.794 64.3655 432.332 64.7976 434.816C65.2655 432.332 65.8775 429.794 66.6335 427.202L73.5996 403.928H79.3236L67.8216 441.728H62.2055L55.2395 418.778C54.4475 416.186 53.8355 413.648 53.4035 411.164C52.9355 413.648 52.3055 416.186 51.5135 418.778L44.4935 441.728H38.9315ZM90.0387 414.08C92.3427 414.08 94.3767 414.512 96.1408 415.376C97.9047 416.204 99.2728 417.392 100.245 418.94C101.217 420.452 101.703 422.198 101.703 424.178V441.728H96.4647V437.3C95.8168 438.776 94.6828 439.964 93.0627 440.864C91.4787 441.728 89.6607 442.16 87.6087 442.16C84.8367 442.16 82.6047 441.404 80.9127 439.892C79.2207 438.38 78.3747 436.4 78.3747 433.952C78.3747 431.36 79.3287 429.308 81.2367 427.796C83.1447 426.248 85.7187 425.474 88.9587 425.474H94.6288C95.2407 425.474 95.6907 425.33 95.9787 425.042C96.3027 424.754 96.4647 424.358 96.4647 423.854C96.4647 422.162 95.8707 420.812 94.6827 419.804C93.5307 418.796 91.9287 418.292 89.8767 418.292C88.0407 418.292 86.4747 418.796 85.1787 419.804C83.9187 420.812 83.2527 422.018 83.1807 423.422H78.3207C78.4647 421.658 79.0587 420.074 80.1027 418.67C81.1467 417.23 82.5327 416.114 84.2607 415.322C85.9887 414.494 87.9147 414.08 90.0387 414.08ZM88.6347 438.002C91.0827 438.002 92.9907 437.264 94.3587 435.788C95.7627 434.312 96.4647 432.314 96.4647 429.794V429.146H89.4447C87.6447 429.146 86.2047 429.578 85.1247 430.442C84.0807 431.27 83.5587 432.404 83.5587 433.844C83.5587 435.068 84.0267 436.076 84.9627 436.868C85.8987 437.624 87.1227 438.002 88.6347 438.002ZM109.559 405.98H114.797V414.512H122.843V419.048H114.797V432.656C114.797 434.096 115.157 435.212 115.877 436.004C116.633 436.796 117.677 437.192 119.009 437.192H122.843V441.728H118.577C115.805 441.728 113.609 440.936 111.989 439.352C110.369 437.768 109.559 435.59 109.559 432.818V419.048H103.997V414.512H109.559V405.98ZM137.531 442.16C134.759 442.16 132.347 441.53 130.295 440.27C128.279 438.974 126.731 437.264 125.651 435.14C124.571 433.016 124.031 430.676 124.031 428.12C124.031 425.564 124.571 423.224 125.651 421.1C126.731 418.976 128.279 417.284 130.295 416.024C132.347 414.728 134.759 414.08 137.531 414.08C139.655 414.08 141.635 414.494 143.471 415.322C145.307 416.114 146.819 417.266 148.007 418.778C149.195 420.254 149.915 422 150.167 424.016H144.929C144.677 422.468 143.849 421.19 142.445 420.182C141.077 419.174 139.475 418.67 137.639 418.67C135.011 418.67 132.995 419.552 131.591 421.316C130.187 423.08 129.485 425.348 129.485 428.12C129.485 430.856 130.187 433.124 131.591 434.924C133.031 436.688 135.047 437.57 137.639 437.57C139.475 437.57 141.041 437.12 142.337 436.22C143.669 435.32 144.551 434.096 144.983 432.548H150.167C149.735 435.428 148.367 437.75 146.063 439.514C143.795 441.278 140.951 442.16 137.531 442.16ZM154.318 441.728V403.118H159.556V419.318C160.276 417.626 161.392 416.33 162.904 415.43C164.452 414.53 166.252 414.08 168.304 414.08C171.364 414.08 173.812 415.088 175.648 417.104C177.52 419.12 178.456 421.748 178.456 424.988V441.728H173.218V426.014C173.218 423.854 172.624 422.108 171.436 420.776C170.284 419.444 168.754 418.778 166.846 418.778C164.722 418.778 162.976 419.552 161.608 421.1C160.24 422.648 159.556 424.61 159.556 426.986V441.728H154.318ZM207.381 442.16C204.609 442.16 202.197 441.53 200.145 440.27C198.129 438.974 196.581 437.264 195.501 435.14C194.421 433.016 193.881 430.676 193.881 428.12C193.881 425.564 194.421 423.224 195.501 421.1C196.581 418.976 198.129 417.284 200.145 416.024C202.197 414.728 204.609 414.08 207.381 414.08C209.505 414.08 211.485 414.494 213.321 415.322C215.157 416.114 216.669 417.266 217.857 418.778C219.045 420.254 219.765 422 220.017 424.016H214.779C214.527 422.468 213.699 421.19 212.295 420.182C210.927 419.174 209.325 418.67 207.489 418.67C204.861 418.67 202.845 419.552 201.441 421.316C200.037 423.08 199.335 425.348 199.335 428.12C199.335 430.856 200.037 433.124 201.441 434.924C202.881 436.688 204.897 437.57 207.489 437.57C209.325 437.57 210.891 437.12 212.187 436.22C213.519 435.32 214.401 434.096 214.833 432.548H220.017C219.585 435.428 218.217 437.75 215.913 439.514C213.645 441.278 210.801 442.16 207.381 442.16ZM235.724 419.048C231.332 419.048 229.136 422.504 229.136 429.416V441.728H223.898V414.512H229.136V419.75C229.748 417.914 230.63 416.582 231.782 415.754C232.934 414.926 234.464 414.512 236.372 414.512H239.666V419.048H235.724ZM266.428 432.872C265.924 435.68 264.538 437.93 262.27 439.622C260.002 441.314 257.194 442.16 253.846 442.16C251.11 442.16 248.698 441.512 246.61 440.216C244.558 438.92 242.974 437.192 241.858 435.032C240.742 432.872 240.184 430.514 240.184 427.958C240.184 425.402 240.706 423.08 241.75 420.992C242.794 418.868 244.306 417.194 246.286 415.97C248.266 414.71 250.606 414.08 253.306 414.08C256.006 414.08 258.328 414.674 260.272 415.862C262.216 417.014 263.692 418.58 264.7 420.56C265.708 422.504 266.212 424.646 266.212 426.986C266.212 427.706 266.176 428.39 266.104 429.038H245.314C245.53 431.63 246.412 433.718 247.96 435.302C249.508 436.886 251.47 437.678 253.846 437.678C255.826 437.678 257.446 437.264 258.706 436.436C259.966 435.608 260.794 434.42 261.19 432.872H266.428ZM253.306 418.292C251.182 418.292 249.436 418.886 248.068 420.074C246.736 421.226 245.872 422.936 245.476 425.204H260.92C260.74 423.116 259.984 421.442 258.652 420.182C257.32 418.922 255.538 418.292 253.306 418.292ZM282.939 442.16C280.239 442.16 277.827 441.566 275.703 440.378C273.579 439.154 271.905 437.48 270.681 435.356C269.493 433.232 268.899 430.82 268.899 428.12C268.899 425.42 269.493 423.008 270.681 420.884C271.905 418.76 273.579 417.104 275.703 415.916C277.827 414.692 280.239 414.08 282.939 414.08C285.639 414.08 288.051 414.692 290.175 415.916C292.299 417.104 293.955 418.76 295.143 420.884C296.331 423.008 296.925 425.42 296.925 428.12C296.925 430.82 296.331 433.232 295.143 435.356C293.955 437.48 292.299 439.154 290.175 440.378C288.051 441.566 285.639 442.16 282.939 442.16ZM282.939 437.57C285.495 437.57 287.565 436.688 289.149 434.924C290.769 433.16 291.579 430.892 291.579 428.12C291.579 425.348 290.769 423.08 289.149 421.316C287.565 419.552 285.495 418.67 282.939 418.67C280.347 418.67 278.241 419.552 276.621 421.316C275.037 423.08 274.245 425.348 274.245 428.12C274.245 430.892 275.037 433.16 276.621 434.924C278.241 436.688 280.347 437.57 282.939 437.57Z" fill="#1E1E1E"/>
<path d="M38.9315 564.728L27.3755 526.928H33.1535L40.0655 550.202C40.8215 552.794 41.4155 555.332 41.8475 557.816C42.3155 555.332 42.9635 552.794 43.7915 550.202L50.9195 526.928H55.7795L62.9075 550.202C63.7355 552.794 64.3655 555.332 64.7976 557.816C65.2655 555.332 65.8775 552.794 66.6335 550.202L73.5996 526.928H79.3236L67.8216 564.728H62.2055L55.2395 541.778C54.4475 539.186 53.8355 536.648 53.4035 534.164C52.9355 536.648 52.3055 539.186 51.5135 541.778L44.4935 564.728H38.9315ZM90.0387 537.08C92.3427 537.08 94.3767 537.512 96.1408 538.376C97.9047 539.204 99.2728 540.392 100.245 541.94C101.217 543.452 101.703 545.198 101.703 547.178V564.728H96.4647V560.3C95.8168 561.776 94.6828 562.964 93.0627 563.864C91.4787 564.728 89.6607 565.16 87.6087 565.16C84.8367 565.16 82.6047 564.404 80.9127 562.892C79.2207 561.38 78.3747 559.4 78.3747 556.952C78.3747 554.36 79.3287 552.308 81.2367 550.796C83.1447 549.248 85.7187 548.474 88.9587 548.474H94.6288C95.2407 548.474 95.6907 548.33 95.9787 548.042C96.3027 547.754 96.4647 547.358 96.4647 546.854C96.4647 545.162 95.8707 543.812 94.6827 542.804C93.5307 541.796 91.9287 541.292 89.8767 541.292C88.0407 541.292 86.4747 541.796 85.1787 542.804C83.9187 543.812 83.2527 545.018 83.1807 546.422H78.3207C78.4647 544.658 79.0587 543.074 80.1027 541.67C81.1467 540.23 82.5327 539.114 84.2607 538.322C85.9887 537.494 87.9147 537.08 90.0387 537.08ZM88.6347 561.002C91.0827 561.002 92.9907 560.264 94.3587 558.788C95.7627 557.312 96.4647 555.314 96.4647 552.794V552.146H89.4447C87.6447 552.146 86.2047 552.578 85.1247 553.442C84.0807 554.27 83.5587 555.404 83.5587 556.844C83.5587 558.068 84.0267 559.076 84.9627 559.868C85.8987 560.624 87.1227 561.002 88.6347 561.002ZM109.559 528.98H114.797V537.512H122.843V542.048H114.797V555.656C114.797 557.096 115.157 558.212 115.877 559.004C116.633 559.796 117.677 560.192 119.009 560.192H122.843V564.728H118.577C115.805 564.728 113.609 563.936 111.989 562.352C110.369 560.768 109.559 558.59 109.559 555.818V542.048H103.997V537.512H109.559V528.98ZM137.531 565.16C134.759 565.16 132.347 564.53 130.295 563.27C128.279 561.974 126.731 560.264 125.651 558.14C124.571 556.016 124.031 553.676 124.031 551.12C124.031 548.564 124.571 546.224 125.651 544.1C126.731 541.976 128.279 540.284 130.295 539.024C132.347 537.728 134.759 537.08 137.531 537.08C139.655 537.08 141.635 537.494 143.471 538.322C145.307 539.114 146.819 540.266 148.007 541.778C149.195 543.254 149.915 545 150.167 547.016H144.929C144.677 545.468 143.849 544.19 142.445 543.182C141.077 542.174 139.475 541.67 137.639 541.67C135.011 541.67 132.995 542.552 131.591 544.316C130.187 546.08 129.485 548.348 129.485 551.12C129.485 553.856 130.187 556.124 131.591 557.924C133.031 559.688 135.047 560.57 137.639 560.57C139.475 560.57 141.041 560.12 142.337 559.22C143.669 558.32 144.551 557.096 144.983 555.548H150.167C149.735 558.428 148.367 560.75 146.063 562.514C143.795 564.278 140.951 565.16 137.531 565.16ZM154.318 564.728V526.118H159.556V542.318C160.276 540.626 161.392 539.33 162.904 538.43C164.452 537.53 166.252 537.08 168.304 537.08C171.364 537.08 173.812 538.088 175.648 540.104C177.52 542.12 178.456 544.748 178.456 547.988V564.728H173.218V549.014C173.218 546.854 172.624 545.108 171.436 543.776C170.284 542.444 168.754 541.778 166.846 541.778C164.722 541.778 162.976 542.552 161.608 544.1C160.24 545.648 159.556 547.61 159.556 549.986V564.728H154.318ZM207.381 565.16C204.609 565.16 202.197 564.53 200.145 563.27C198.129 561.974 196.581 560.264 195.501 558.14C194.421 556.016 193.881 553.676 193.881 551.12C193.881 548.564 194.421 546.224 195.501 544.1C196.581 541.976 198.129 540.284 200.145 539.024C202.197 537.728 204.609 537.08 207.381 537.08C209.505 537.08 211.485 537.494 213.321 538.322C215.157 539.114 216.669 540.266 217.857 541.778C219.045 543.254 219.765 545 220.017 547.016H214.779C214.527 545.468 213.699 544.19 212.295 543.182C210.927 542.174 209.325 541.67 207.489 541.67C204.861 541.67 202.845 542.552 201.441 544.316C200.037 546.08 199.335 548.348 199.335 551.12C199.335 553.856 200.037 556.124 201.441 557.924C202.881 559.688 204.897 560.57 207.489 560.57C209.325 560.57 210.891 560.12 212.187 559.22C213.519 558.32 214.401 557.096 214.833 555.548H220.017C219.585 558.428 218.217 560.75 215.913 562.514C213.645 564.278 210.801 565.16 207.381 565.16ZM235.724 542.048C231.332 542.048 229.136 545.504 229.136 552.416V564.728H223.898V537.512H229.136V542.75C229.748 540.914 230.63 539.582 231.782 538.754C232.934 537.926 234.464 537.512 236.372 537.512H239.666V542.048H235.724ZM266.428 555.872C265.924 558.68 264.538 560.93 262.27 562.622C260.002 564.314 257.194 565.16 253.846 565.16C251.11 565.16 248.698 564.512 246.61 563.216C244.558 561.92 242.974 560.192 241.858 558.032C240.742 555.872 240.184 553.514 240.184 550.958C240.184 548.402 240.706 546.08 241.75 543.992C242.794 541.868 244.306 540.194 246.286 538.97C248.266 537.71 250.606 537.08 253.306 537.08C256.006 537.08 258.328 537.674 260.272 538.862C262.216 540.014 263.692 541.58 264.7 543.56C265.708 545.504 266.212 547.646 266.212 549.986C266.212 550.706 266.176 551.39 266.104 552.038H245.314C245.53 554.63 246.412 556.718 247.96 558.302C249.508 559.886 251.47 560.678 253.846 560.678C255.826 560.678 257.446 560.264 258.706 559.436C259.966 558.608 260.794 557.42 261.19 555.872H266.428ZM253.306 541.292C251.182 541.292 249.436 541.886 248.068 543.074C246.736 544.226 245.872 545.936 245.476 548.204H260.92C260.74 546.116 259.984 544.442 258.652 543.182C257.32 541.922 255.538 541.292 253.306 541.292ZM282.939 565.16C280.239 565.16 277.827 564.566 275.703 563.378C273.579 562.154 271.905 560.48 270.681 558.356C269.493 556.232 268.899 553.82 268.899 551.12C268.899 548.42 269.493 546.008 270.681 543.884C271.905 541.76 273.579 540.104 275.703 538.916C277.827 537.692 280.239 537.08 282.939 537.08C285.639 537.08 288.051 537.692 290.175 538.916C292.299 540.104 293.955 541.76 295.143 543.884C296.331 546.008 296.925 548.42 296.925 551.12C296.925 553.82 296.331 556.232 295.143 558.356C293.955 560.48 292.299 562.154 290.175 563.378C288.051 564.566 285.639 565.16 282.939 565.16ZM282.939 560.57C285.495 560.57 287.565 559.688 289.149 557.924C290.769 556.16 291.579 553.892 291.579 551.12C291.579 548.348 290.769 546.08 289.149 544.316C287.565 542.552 285.495 541.67 282.939 541.67C280.347 541.67 278.241 542.552 276.621 544.316C275.037 546.08 274.245 548.348 274.245 551.12C274.245 553.892 275.037 556.16 276.621 557.924C278.241 559.688 280.347 560.57 282.939 560.57Z" fill="white"/>
<rect x="1" y="493" width="323" height="106" rx="23.7276" stroke="white" stroke-width="2"/>
<rect y="615" width="325" height="108" rx="24.7276" fill="#EBFF00"/>
<path d="M38.9315 687.728L27.3755 649.928H33.1535L40.0655 673.202C40.8215 675.794 41.4155 678.332 41.8475 680.816C42.3155 678.332 42.9635 675.794 43.7915 673.202L50.9195 649.928H55.7795L62.9075 673.202C63.7355 675.794 64.3655 678.332 64.7976 680.816C65.2655 678.332 65.8775 675.794 66.6335 673.202L73.5996 649.928H79.3236L67.8216 687.728H62.2055L55.2395 664.778C54.4475 662.186 53.8355 659.648 53.4035 657.164C52.9355 659.648 52.3055 662.186 51.5135 664.778L44.4935 687.728H38.9315ZM90.0387 660.08C92.3427 660.08 94.3767 660.512 96.1408 661.376C97.9047 662.204 99.2728 663.392 100.245 664.94C101.217 666.452 101.703 668.198 101.703 670.178V687.728H96.4647V683.3C95.8168 684.776 94.6828 685.964 93.0627 686.864C91.4787 687.728 89.6607 688.16 87.6087 688.16C84.8367 688.16 82.6047 687.404 80.9127 685.892C79.2207 684.38 78.3747 682.4 78.3747 679.952C78.3747 677.36 79.3287 675.308 81.2367 673.796C83.1447 672.248 85.7187 671.474 88.9587 671.474H94.6288C95.2407 671.474 95.6907 671.33 95.9787 671.042C96.3027 670.754 96.4647 670.358 96.4647 669.854C96.4647 668.162 95.8707 666.812 94.6827 665.804C93.5307 664.796 91.9287 664.292 89.8767 664.292C88.0407 664.292 86.4747 664.796 85.1787 665.804C83.9187 666.812 83.2527 668.018 83.1807 669.422H78.3207C78.4647 667.658 79.0587 666.074 80.1027 664.67C81.1467 663.23 82.5327 662.114 84.2607 661.322C85.9887 660.494 87.9147 660.08 90.0387 660.08ZM88.6347 684.002C91.0827 684.002 92.9907 683.264 94.3587 681.788C95.7627 680.312 96.4647 678.314 96.4647 675.794V675.146H89.4447C87.6447 675.146 86.2047 675.578 85.1247 676.442C84.0807 677.27 83.5587 678.404 83.5587 679.844C83.5587 681.068 84.0267 682.076 84.9627 682.868C85.8987 683.624 87.1227 684.002 88.6347 684.002ZM109.559 651.98H114.797V660.512H122.843V665.048H114.797V678.656C114.797 680.096 115.157 681.212 115.877 682.004C116.633 682.796 117.677 683.192 119.009 683.192H122.843V687.728H118.577C115.805 687.728 113.609 686.936 111.989 685.352C110.369 683.768 109.559 681.59 109.559 678.818V665.048H103.997V660.512H109.559V651.98ZM137.531 688.16C134.759 688.16 132.347 687.53 130.295 686.27C128.279 684.974 126.731 683.264 125.651 681.14C124.571 679.016 124.031 676.676 124.031 674.12C124.031 671.564 124.571 669.224 125.651 667.1C126.731 664.976 128.279 663.284 130.295 662.024C132.347 660.728 134.759 660.08 137.531 660.08C139.655 660.08 141.635 660.494 143.471 661.322C145.307 662.114 146.819 663.266 148.007 664.778C149.195 666.254 149.915 668 150.167 670.016H144.929C144.677 668.468 143.849 667.19 142.445 666.182C141.077 665.174 139.475 664.67 137.639 664.67C135.011 664.67 132.995 665.552 131.591 667.316C130.187 669.08 129.485 671.348 129.485 674.12C129.485 676.856 130.187 679.124 131.591 680.924C133.031 682.688 135.047 683.57 137.639 683.57C139.475 683.57 141.041 683.12 142.337 682.22C143.669 681.32 144.551 680.096 144.983 678.548H150.167C149.735 681.428 148.367 683.75 146.063 685.514C143.795 687.278 140.951 688.16 137.531 688.16ZM154.318 687.728V649.118H159.556V665.318C160.276 663.626 161.392 662.33 162.904 661.43C164.452 660.53 166.252 660.08 168.304 660.08C171.364 660.08 173.812 661.088 175.648 663.104C177.52 665.12 178.456 667.748 178.456 670.988V687.728H173.218V672.014C173.218 669.854 172.624 668.108 171.436 666.776C170.284 665.444 168.754 664.778 166.846 664.778C164.722 664.778 162.976 665.552 161.608 667.1C160.24 668.648 159.556 670.61 159.556 672.986V687.728H154.318ZM207.381 688.16C204.609 688.16 202.197 687.53 200.145 686.27C198.129 684.974 196.581 683.264 195.501 681.14C194.421 679.016 193.881 676.676 193.881 674.12C193.881 671.564 194.421 669.224 195.501 667.1C196.581 664.976 198.129 663.284 200.145 662.024C202.197 660.728 204.609 660.08 207.381 660.08C209.505 660.08 211.485 660.494 213.321 661.322C215.157 662.114 216.669 663.266 217.857 664.778C219.045 666.254 219.765 668 220.017 670.016H214.779C214.527 668.468 213.699 667.19 212.295 666.182C210.927 665.174 209.325 664.67 207.489 664.67C204.861 664.67 202.845 665.552 201.441 667.316C200.037 669.08 199.335 671.348 199.335 674.12C199.335 676.856 200.037 679.124 201.441 680.924C202.881 682.688 204.897 683.57 207.489 683.57C209.325 683.57 210.891 683.12 212.187 682.22C213.519 681.32 214.401 680.096 214.833 678.548H220.017C219.585 681.428 218.217 683.75 215.913 685.514C213.645 687.278 210.801 688.16 207.381 688.16ZM235.724 665.048C231.332 665.048 229.136 668.504 229.136 675.416V687.728H223.898V660.512H229.136V665.75C229.748 663.914 230.63 662.582 231.782 661.754C232.934 660.926 234.464 660.512 236.372 660.512H239.666V665.048H235.724ZM266.428 678.872C265.924 681.68 264.538 683.93 262.27 685.622C260.002 687.314 257.194 688.16 253.846 688.16C251.11 688.16 248.698 687.512 246.61 686.216C244.558 684.92 242.974 683.192 241.858 681.032C240.742 678.872 240.184 676.514 240.184 673.958C240.184 671.402 240.706 669.08 241.75 666.992C242.794 664.868 244.306 663.194 246.286 661.97C248.266 660.71 250.606 660.08 253.306 660.08C256.006 660.08 258.328 660.674 260.272 661.862C262.216 663.014 263.692 664.58 264.7 666.56C265.708 668.504 266.212 670.646 266.212 672.986C266.212 673.706 266.176 674.39 266.104 675.038H245.314C245.53 677.63 246.412 679.718 247.96 681.302C249.508 682.886 251.47 683.678 253.846 683.678C255.826 683.678 257.446 683.264 258.706 682.436C259.966 681.608 260.794 680.42 261.19 678.872H266.428ZM253.306 664.292C251.182 664.292 249.436 664.886 248.068 666.074C246.736 667.226 245.872 668.936 245.476 671.204H260.92C260.74 669.116 259.984 667.442 258.652 666.182C257.32 664.922 255.538 664.292 253.306 664.292ZM282.939 688.16C280.239 688.16 277.827 687.566 275.703 686.378C273.579 685.154 271.905 683.48 270.681 681.356C269.493 679.232 268.899 676.82 268.899 674.12C268.899 671.42 269.493 669.008 270.681 666.884C271.905 664.76 273.579 663.104 275.703 661.916C277.827 660.692 280.239 660.08 282.939 660.08C285.639 660.08 288.051 660.692 290.175 661.916C292.299 663.104 293.955 664.76 295.143 666.884C296.331 669.008 296.925 671.42 296.925 674.12C296.925 676.82 296.331 679.232 295.143 681.356C293.955 683.48 292.299 685.154 290.175 686.378C288.051 687.566 285.639 688.16 282.939 688.16ZM282.939 683.57C285.495 683.57 287.565 682.688 289.149 680.924C290.769 679.16 291.579 676.892 291.579 674.12C291.579 671.348 290.769 669.08 289.149 667.316C287.565 665.552 285.495 664.67 282.939 664.67C280.347 664.67 278.241 665.552 276.621 667.316C275.037 669.08 274.245 671.348 274.245 674.12C274.245 676.892 275.037 679.16 276.621 680.924C278.241 682.688 280.347 683.57 282.939 683.57Z" fill="#1E1E1E"/>
</svg>
