<svg width="812" height="116" viewBox="0 0 812 116" fill="none" xmlns="http://www.w3.org/2000/svg">
<path d="M129.04 35.8372C127.065 32.6321 124.27 30.0253 120.95 28.2926C117.365 26.4026 113.376 25.4312 109.332 25.4634C103.661 25.3446 98.0651 26.7939 93.1501 29.6549C88.6291 32.4561 85.0222 36.537 82.7771 41.3909C80.3007 46.6211 79.0576 52.3599 79.1462 58.1569C79.0603 63.9872 80.3028 69.7593 82.7771 75.0274C85.054 79.8326 88.6559 83.8717 93.1501 86.6589C98.0808 89.5746 103.725 91.0272 109.436 90.8503C113.412 90.8697 117.331 89.898 120.846 88.0212C124.233 86.3454 127.075 83.728 129.04 80.4765V89.9073H141.592V0H129.456L129.04 35.8372ZM124.788 74.1893C122.97 76.0842 120.793 77.591 118.387 78.6199C115.982 79.6488 113.397 80.1788 110.784 80.1788C108.172 80.1788 105.586 79.6488 103.181 78.6199C100.775 77.591 98.5985 76.0842 96.7804 74.1893C93.1077 69.694 91.2218 63.9792 91.4901 58.1569C91.2075 52.3645 93.0965 46.6771 96.7804 42.2291C98.5832 40.3075 100.755 38.7772 103.162 37.7313C105.57 36.6855 108.164 36.1462 110.784 36.1462C113.405 36.1462 115.998 36.6855 118.406 37.7313C120.813 38.7772 122.985 40.3075 124.788 42.2291C128.472 46.6771 130.361 52.3645 130.078 58.1569C130.346 63.9792 128.46 69.694 124.788 74.1893Z" fill="white"/>
<path d="M178.831 16.3469C183.464 13.6511 188.734 12.2752 194.079 12.3652C199.902 12.2286 205.613 13.9922 210.365 17.3948C212.534 18.8241 214.377 20.7031 215.772 22.9072C217.167 25.1113 218.082 27.5901 218.456 30.1788H232.044C231.298 24.5887 229.077 19.3044 225.613 14.88C222.044 10.3591 217.456 6.76625 212.232 4.40133C206.531 1.93297 200.386 0.684161 194.183 0.733725C186.957 0.709995 179.834 2.47266 173.437 5.86818C166.854 9.28273 161.434 14.6117 157.878 21.1673C153.744 28.6866 151.701 37.1952 151.965 45.7919C151.73 54.3728 153.733 62.8654 157.774 70.4169C161.361 76.9493 166.772 82.2704 173.333 85.716C179.913 89.1103 187.211 90.8363 194.598 90.7456C200.835 90.8066 207.016 89.5576 212.751 87.078C217.991 84.7418 222.586 81.144 226.132 76.5993C229.559 72.2345 231.65 66.9539 232.148 61.4054H219.078C218.653 64.7819 217.245 67.9547 215.033 70.5218C212.657 73.3249 209.626 75.4857 206.215 76.8091C201.882 78.5672 197.219 79.3378 192.557 79.0661C187.895 78.7944 183.35 77.4872 179.246 75.2373C174.751 72.5442 171.143 68.5707 168.873 63.8153C166.275 58.143 165.031 51.9339 165.243 45.6874C165.034 39.4074 166.277 33.1645 168.873 27.4542C171.071 22.8647 174.527 19.0095 178.831 16.3469Z" fill="white"/>
<path d="M272.914 25.4634C268.593 25.3573 264.325 26.4441 260.57 28.6069C257.051 30.6938 254.315 33.8995 252.79 37.7233V0H240.654V89.9073H252.79V55.5372C252.611 50.5357 254.275 45.6448 257.458 41.8102C258.968 40.0726 260.838 38.6928 262.936 37.7691C265.034 36.8453 267.308 36.4003 269.595 36.4659C271.554 36.4137 273.499 36.7999 275.293 37.597C277.086 38.3942 278.683 39.5825 279.968 41.0766C282.764 44.4805 284.205 48.8133 284.013 53.2319V89.9073H296.15V50.9266C296.421 44.1742 294.12 37.5737 289.719 32.484C287.563 30.1869 284.952 28.3747 282.057 27.165C279.161 25.9553 276.046 25.3756 272.914 25.4634Z" fill="white"/>
<path d="M353.72 34.8942C351.516 31.9613 348.63 29.6221 345.318 28.0831C341.721 26.3552 337.787 25.4602 333.804 25.4635C328.168 25.3637 322.61 26.8124 317.726 29.6549C313.224 32.4328 309.619 36.4741 307.353 41.2861C305.023 46.6177 303.82 52.3816 303.82 58.2094C303.82 64.0371 305.023 69.8007 307.353 75.1323C309.651 79.8956 313.25 83.8953 317.726 86.659C322.656 89.5746 328.301 91.0273 334.011 90.8504C338.146 90.92 342.237 89.9856 345.94 88.1258C349.211 86.7917 351.948 84.3953 353.72 81.3147V89.9073H365.857V26.5111H353.72V34.8942ZM349.364 74.1893C347.546 76.0843 345.369 77.591 342.964 78.6199C340.558 79.6488 337.972 80.1788 335.36 80.1788C332.747 80.1788 330.162 79.6488 327.756 78.6199C325.35 77.591 323.175 76.0843 321.356 74.1893C317.764 69.6552 315.921 63.959 316.17 58.1569C315.899 52.3837 317.745 46.7122 321.356 42.2291C323.159 40.3076 325.331 38.7772 327.738 37.7313C330.146 36.6855 332.739 36.1462 335.36 36.1462C337.981 36.1462 340.574 36.6855 342.981 37.7313C345.389 38.7772 347.561 40.3076 349.364 42.2291C353.048 46.6771 354.936 52.3645 354.653 58.1569C354.835 64.0204 352.837 69.74 349.052 74.1893H349.364Z" fill="white"/>
<path d="M448.218 25.4635C443.655 25.4058 439.179 26.7186 435.356 29.2357C431.836 31.3136 429.155 34.5789 427.784 38.457C426.651 34.4616 424.055 31.0519 420.522 28.9213C416.594 26.5037 412.05 25.3017 407.452 25.4635C403.318 25.3698 399.258 26.5783 395.835 28.9213C392.619 31.0461 390.179 34.1737 388.885 37.8283V26.5111H376.852V89.9073H388.885V53.0222C388.685 48.5527 390.167 44.1728 393.034 40.7623C394.455 39.2143 396.194 37.9993 398.13 37.2028C400.065 36.4062 402.149 36.0475 404.237 36.1516C406.091 36.0941 407.932 36.4818 409.609 37.2833C411.286 38.0849 412.752 39.2774 413.884 40.7623C416.411 44.3221 417.656 48.6485 417.411 53.0222V89.9073H429.547V53.0222C429.319 48.5666 430.763 44.1883 433.593 40.7623C435.026 39.231 436.768 38.0274 438.7 37.2322C440.632 36.437 442.71 36.0685 444.795 36.1516C446.668 36.0684 448.533 36.4443 450.231 37.2472C451.929 38.0501 453.409 39.2561 454.546 40.7623C457.11 44.3085 458.392 48.6361 458.177 53.0222V89.9073H470.209V49.8787C470.569 43.4586 468.449 37.1481 464.296 32.2746C462.266 30.0287 459.777 28.2562 457 27.08C454.224 25.9038 451.227 25.3523 448.218 25.4635Z" fill="white"/>
<path d="M528.921 29.6548C524.083 26.7908 518.552 25.3398 512.946 25.4634C508.836 25.4307 504.779 26.4012 501.12 28.2925C497.749 30.0385 494.915 32.6841 492.926 35.9421V26.511H480.893V115.58H492.926V81.3146C494.854 84.4426 497.625 86.9506 500.913 88.5449C504.432 90.4019 508.354 91.3387 512.323 91.2695C518 91.4323 523.607 89.9796 528.505 87.0778C532.966 84.2504 536.559 80.2226 538.878 75.4466C541.353 70.1785 542.595 64.4061 542.509 58.5757C542.63 52.787 541.423 47.0489 538.982 41.8101C536.878 36.8507 533.38 32.6242 528.921 29.6548ZM525.29 74.1892C523.535 76.1651 521.37 77.7248 518.949 78.7573C516.528 79.7898 513.912 80.2697 511.286 80.1621C508.645 80.2707 506.013 79.792 503.575 78.7599C501.137 77.7278 498.954 76.1675 497.179 74.1892C493.587 69.6551 491.744 63.9589 491.993 58.1568C491.721 52.3836 493.568 46.7121 497.179 42.229C498.935 40.2201 501.112 38.6323 503.553 37.581C505.993 36.5296 508.636 36.0412 511.286 36.1515C513.922 36.042 516.548 36.5314 518.972 37.5832C521.395 38.635 523.554 40.2225 525.29 42.229C528.936 46.6924 530.788 52.3782 530.476 58.1568C530.803 63.952 528.992 69.6638 525.394 74.1892H525.29Z" fill="white"/>
<path d="M597.175 34.8942C594.947 31.9847 592.067 29.6505 588.773 28.0832C585.168 26.3781 581.239 25.4843 577.259 25.4635C571.587 25.3447 565.991 26.794 561.076 29.6549C556.589 32.4513 552.99 36.4875 550.703 41.2861C548.374 46.6177 547.172 52.3816 547.172 58.2094C547.172 64.0371 548.374 69.8007 550.703 75.1324C553.025 79.8794 556.619 83.873 561.076 86.659C566.007 89.5747 571.652 91.0273 577.362 90.8504C581.529 90.9086 585.652 89.9752 589.396 88.1258C592.63 86.7336 595.351 84.3514 597.175 81.3147V89.9073H609.207V26.5111H597.175V34.8942ZM592.714 74.1893C590.96 76.1652 588.795 77.7249 586.374 78.7574C583.953 79.7899 581.337 80.2698 578.711 80.1622C576.1 80.2763 573.497 79.7989 571.092 78.7654C568.687 77.732 566.541 76.1686 564.811 74.1893C561.139 69.6941 559.253 63.9792 559.521 58.1569C559.239 52.3645 561.128 46.6771 564.811 42.2291C566.516 40.2128 568.655 38.6172 571.064 37.5638C573.473 36.5104 576.089 36.0273 578.711 36.1516C581.346 36.0422 583.972 36.5315 586.396 37.5833C588.819 38.6351 590.979 40.2226 592.714 42.2291C596.398 46.6771 598.287 52.3645 598.005 58.1569C598.273 63.9792 596.387 69.6941 592.714 74.1893Z" fill="white"/>
<path d="M667.297 34.8942C665.167 31.9304 662.306 29.5821 658.998 28.0831C655.376 26.319 651.401 25.4225 647.38 25.4635C641.744 25.3637 636.186 26.8124 631.302 29.6549C626.8 32.4328 623.196 36.4741 620.929 41.2861C618.599 46.6177 617.397 52.3816 617.397 58.2094C617.397 64.0371 618.599 69.8007 620.929 75.1323C623.227 79.8956 626.826 83.8953 631.302 86.659C636.196 89.5714 641.807 91.0245 647.484 90.8504C651.662 90.9102 655.802 90.0522 659.62 88.3356C662.817 87.0837 665.517 84.7995 667.297 81.8385V92.3172C667.424 95.8241 666.196 99.2437 663.873 101.853C662.697 103.055 661.29 104 659.737 104.631C658.185 105.262 656.521 105.565 654.849 105.52H625.907V115.999H656.093C660.282 116.034 664.415 115.026 668.126 113.065C671.591 111.221 674.468 108.423 676.425 104.997C678.447 101.426 679.484 97.3737 679.433 93.2606V26.9303H667.297V34.8942ZM662.94 74.1893C661.122 76.0843 658.946 77.591 656.54 78.6199C654.135 79.6488 651.549 80.1788 648.937 80.1788C646.324 80.1788 643.738 79.6488 641.333 78.6199C638.927 77.591 636.751 76.0843 634.933 74.1893C631.341 69.6552 629.498 63.959 629.747 58.1569C629.475 52.3837 631.322 46.7122 634.933 42.2291C636.669 40.2226 638.827 38.6351 641.25 37.5833C643.674 36.5315 646.301 36.0421 648.937 36.1516C651.562 36.044 654.178 36.5236 656.599 37.5561C659.019 38.5886 661.185 40.1487 662.94 42.1245C666.374 46.7498 668.23 52.3754 668.23 58.1569C668.23 63.9385 666.374 69.564 662.94 74.1893Z" fill="white"/>
<path d="M722.481 25.4633C718.127 25.3539 713.825 26.4403 710.034 28.6068C706.567 30.7567 703.848 33.9426 702.254 37.7232V26.5109H690.221V89.9071H701.735V55.5371C701.594 50.5234 703.294 45.6344 706.506 41.81C708.011 40.0667 709.881 38.6829 711.98 37.7587C714.079 36.8344 716.354 36.3928 718.643 36.4658C720.602 36.4135 722.548 36.7997 724.341 37.5969C726.134 38.394 727.731 39.5824 729.016 41.0764C731.811 44.4804 733.253 48.8131 733.061 53.2317V89.9071H745.197V50.9264C745.468 44.1741 743.167 37.5735 738.766 32.4838C736.666 30.2573 734.139 28.4864 731.339 27.2793C728.539 26.0723 725.525 25.4545 722.481 25.4633Z" fill="white"/>
<path d="M800.59 69.2643C799.817 72.6639 797.772 75.6301 794.884 77.5425C791.501 79.5743 787.616 80.5919 783.682 80.4766C781.16 80.5496 778.65 80.0938 776.311 79.1379C773.972 78.1821 771.855 76.7468 770.093 74.9229C766.431 70.9393 764.266 65.7857 763.973 60.3573H811.896C812.003 58.7524 812.003 57.1422 811.896 55.5372C811.923 50.3295 810.714 45.1909 808.37 40.5525C806.044 35.9447 802.439 32.1215 797.997 29.55C793.102 26.7441 787.545 25.3319 781.918 25.4635C776.216 25.317 770.595 26.8458 765.737 29.8643C761.243 32.6516 757.641 36.6906 755.364 41.4958C752.905 46.6059 751.627 52.2133 751.627 57.895C751.627 63.5767 752.905 69.1838 755.364 74.2939C757.938 79.2352 761.769 83.3949 766.462 86.3446C771.45 89.4282 777.213 90.9926 783.059 90.8504C789.985 91.0783 796.795 89.0181 802.456 84.9823C807.541 81.1968 810.964 75.5583 812 69.2643H800.59ZM770.404 39.4C773.748 36.53 778.056 35.0669 782.437 35.3131C786.962 35.104 791.388 36.6826 794.78 39.7143C796.894 42.0814 798.486 44.8745 799.452 47.9091C800.417 50.9438 800.735 54.1508 800.382 57.3184H763.973C763.818 54.0504 764.307 50.7841 765.411 47.7083C766.515 44.6325 768.212 41.8085 770.404 39.4Z" fill="white"/>
<path d="M28.3188 1.67663L0 89.9073H13.3816L21.0575 63.5008H56.326L64.1058 89.9073H77.4868L49.1686 1.67663H28.3188ZM21.9907 60.5668L38.1733 5.44912H39.418L55.496 60.3573L21.9907 60.5668Z" fill="white"/>
</svg>
