<svg width="688" height="400" viewBox="0 0 688 400" fill="none" xmlns="http://www.w3.org/2000/svg">
<path d="M459.6 -347C468.424 -183.436 571.731 205.525 914.365 452.857" stroke="#F468D5" stroke-width="5.31788"/>
<path d="M459.603 -347C464.923 -183.436 527.208 205.525 733.785 452.857" stroke="#F468D5" stroke-width="5.31788"/>
<path d="M459.6 -347C466.682 -183.436 549.585 205.525 824.547 452.857" stroke="#F468D5" stroke-width="5.31788"/>
<path d="M459.601 -347C461.84 -183.436 488.042 205.525 574.947 452.857" stroke="#F468D5" stroke-width="5.31788"/>
<path d="M459.601 -347C460.665 -183.436 473.122 205.525 514.438 452.857" stroke="#F468D5" stroke-width="5.31788"/>
<path d="M459.601 -347C463.38 -183.436 507.624 205.525 654.365 452.857" stroke="#F468D5" stroke-width="5.31788"/>
<path d="M455.82 -347C455.893 -183.436 456.752 205.525 459.602 452.857" stroke="#F468D5" stroke-width="5.31788"/>
<path d="M456.765 -347C447.941 -183.436 344.634 205.525 2 452.857" stroke="#F468D5" stroke-width="5.31788"/>
<path d="M456.765 -347C451.444 -183.436 389.16 205.525 182.582 452.857" stroke="#F468D5" stroke-width="5.31788"/>
<path d="M456.765 -347C449.684 -183.436 366.78 205.525 91.8184 452.857" stroke="#F468D5" stroke-width="5.31788"/>
<path d="M456.766 -347C454.528 -183.436 428.325 205.525 341.42 452.857" stroke="#F468D5" stroke-width="5.31788"/>
<path d="M456.764 -347C455.7 -183.436 443.243 205.525 401.928 452.857" stroke="#F468D5" stroke-width="5.31788"/>
<path d="M456.764 -347C452.985 -183.436 408.741 205.525 262 452.857" stroke="#F468D5" stroke-width="5.31788"/>
</svg>
