<svg width="132" height="28" viewBox="0 0 132 28" fill="none" xmlns="http://www.w3.org/2000/svg">
<g opacity="0.3">
<path d="M51.4336 7.83789H47.2324L46.4062 10H45.2871L48.7207 1.29883H49.9336L53.4023 10H52.2598L51.4336 7.83789ZM51.1172 7L49.3301 2.30664L47.543 7H51.1172ZM64.1484 1.52734C64.1484 1.73828 64.0781 1.91016 63.9375 2.04297C63.7969 2.17188 63.6152 2.23633 63.3926 2.23633C63.1582 2.23633 62.9688 2.17188 62.8242 2.04297C62.6836 1.91016 62.6133 1.73828 62.6133 1.52734C62.6133 1.33203 62.6855 1.16992 62.8301 1.04102C62.9746 0.908203 63.1621 0.841797 63.3926 0.841797C63.6074 0.841797 63.7871 0.908203 63.9316 1.04102C64.0762 1.16992 64.1484 1.33203 64.1484 1.52734ZM63.8848 10H62.8887V4.69727H60.0469V10H59.0508V4.69727H55.9102V10H54.9141V4.69727H53.3613V3.8418H54.9141V2.89844C54.9141 2.39453 55.0371 1.94141 55.2832 1.53906C55.5332 1.13281 56.0488 0.929688 56.8301 0.929688C57.0449 0.929688 57.2891 0.953125 57.5625 1V1.7793C57.4219 1.76367 57.291 1.75586 57.1699 1.75586C56.7012 1.75586 56.373 1.84766 56.1855 2.03125C56.002 2.21094 55.9102 2.51172 55.9102 2.93359V3.8418H59.0508V2.89844C59.0508 2.39844 59.1758 1.94531 59.4258 1.53906C59.6758 1.13281 60.1914 0.929688 60.9727 0.929688C61.1836 0.929688 61.4277 0.953125 61.7051 1V1.7793C61.5645 1.76367 61.4316 1.75586 61.3066 1.75586C60.8379 1.75586 60.5098 1.84766 60.3223 2.03125C60.1387 2.21094 60.0469 2.51172 60.0469 2.93359V3.8418H63.8848V10ZM65.9883 1H66.9844V10H65.9883V1ZM68.8301 1.52734C68.8301 1.33203 68.9023 1.16992 69.0469 1.04102C69.1914 0.908203 69.3789 0.841797 69.6094 0.841797C69.8242 0.841797 70.0039 0.908203 70.1484 1.04102C70.293 1.16992 70.3652 1.33203 70.3652 1.52734C70.3652 1.73828 70.2949 1.91016 70.1543 2.04297C70.0137 2.17188 69.832 2.23633 69.6094 2.23633C69.375 2.23633 69.1855 2.17188 69.041 2.04297C68.9004 1.91016 68.8301 1.73828 68.8301 1.52734ZM69.1055 3.8418H70.1016V10H69.1055V3.8418ZM71.8535 8.39453C71.8535 7.85938 72.0469 7.4375 72.4336 7.12891C72.8242 6.82031 73.3867 6.625 74.1211 6.54297L76.2949 6.29102V6.07422C76.2949 5.57812 76.1504 5.20117 75.8613 4.94336C75.5762 4.68164 75.1797 4.55078 74.6719 4.55078C74.1367 4.55078 73.7148 4.67383 73.4062 4.91992C73.1016 5.16211 72.9629 5.49219 72.9902 5.91016H72.0469C72.0586 5.23438 72.3066 4.70117 72.791 4.31055C73.2754 3.91992 73.918 3.72461 74.7188 3.72461C75.5117 3.72461 76.1367 3.93945 76.5938 4.36914C77.0508 4.79883 77.2793 5.42383 77.2793 6.24414V10H76.3887L76.3301 8.76367C76.1426 9.17773 75.8223 9.50586 75.3691 9.74805C74.9121 9.99414 74.4082 10.1172 73.8574 10.1172C73.2637 10.1172 72.7832 9.96289 72.416 9.6543C72.041 9.32617 71.8535 8.90625 71.8535 8.39453ZM76.2949 7.26367V7L74.3145 7.24023C73.8066 7.31055 73.4395 7.43555 73.2129 7.61523C72.9863 7.79102 72.873 8.02539 72.873 8.31836C72.873 8.62305 72.9844 8.86133 73.207 9.0332C73.4336 9.20508 73.7422 9.29102 74.1328 9.29102C74.4492 9.29102 74.7461 9.22852 75.0234 9.10352C75.3008 8.97461 75.5273 8.81055 75.7031 8.61133C75.8828 8.41211 76.0234 8.19531 76.125 7.96094C76.2305 7.72266 76.2871 7.49023 76.2949 7.26367ZM79.916 8.20117V4.69727H78.3809V3.8418H79.916V1.7207H80.9004V3.8418H82.6758V4.69727H80.9004V8.1543C80.9004 8.54883 80.9922 8.83008 81.1758 8.99805C81.3594 9.16211 81.6562 9.24414 82.0664 9.24414C82.1367 9.24414 82.3008 9.23633 82.5586 9.2207V10C82.2461 10.0547 81.9453 10.082 81.6562 10.082C81.168 10.082 80.7891 9.98438 80.5195 9.78906C80.2539 9.58984 80.082 9.34375 80.0039 9.05078C79.9453 8.78516 79.916 8.50195 79.916 8.20117ZM89.748 8.21289C89.5762 8.80664 89.2285 9.27344 88.7051 9.61328C88.1855 9.94922 87.5645 10.1172 86.8418 10.1172C85.877 10.1172 85.1016 9.82422 84.5156 9.23828C83.9297 8.64844 83.6367 7.875 83.6367 6.91797C83.6367 5.97656 83.9297 5.20898 84.5156 4.61523C85.1016 4.02148 85.8535 3.72461 86.7715 3.72461C87.627 3.72461 88.3223 3.97656 88.8574 4.48047C89.3926 4.98438 89.6602 5.64062 89.6602 6.44922C89.6602 6.57422 89.6484 6.73438 89.625 6.92969H84.668V7.10547C84.668 7.78906 84.8613 8.32227 85.248 8.70508C85.6387 9.08789 86.1699 9.2793 86.8418 9.2793C87.3027 9.2793 87.6992 9.18555 88.0312 8.99805C88.3672 8.80664 88.6035 8.54492 88.7402 8.21289H89.748ZM84.709 6.19727H88.6406C88.6406 5.73242 88.4609 5.3457 88.1016 5.03711C87.7461 4.72852 87.2949 4.57422 86.748 4.57422C86.2207 4.57422 85.7715 4.72266 85.4004 5.01953C85.0293 5.31641 84.7988 5.70898 84.709 6.19727ZM94.4883 1.29883L96.4395 8.83398L98.5195 1.29883H99.7676L101.842 8.8457L103.688 1.29883H104.795L102.551 10H101.168L99.1406 2.58203L97.125 10H95.748L93.3809 1.29883H94.4883ZM106.863 4.12891C107.367 3.85938 107.934 3.72461 108.562 3.72461C109.191 3.72461 109.756 3.85938 110.256 4.12891C110.756 4.39453 111.148 4.77148 111.434 5.25977C111.719 5.74805 111.861 6.30078 111.861 6.91797C111.861 7.86719 111.551 8.63867 110.93 9.23242C110.312 9.82227 109.523 10.1172 108.562 10.1172C107.602 10.1172 106.811 9.82227 106.189 9.23242C105.568 8.63867 105.258 7.86719 105.258 6.91797C105.258 6.30078 105.4 5.74805 105.686 5.25977C105.971 4.77148 106.363 4.39453 106.863 4.12891ZM108.574 9.23242C109.25 9.23242 109.795 9.02148 110.209 8.59961C110.623 8.17383 110.83 7.61328 110.83 6.91797C110.83 6.22266 110.623 5.66211 110.209 5.23633C109.795 4.81055 109.25 4.59766 108.574 4.59766C107.895 4.59766 107.342 4.81055 106.916 5.23633C106.498 5.6543 106.289 6.21875 106.289 6.92969C106.289 7.625 106.496 8.18359 106.91 8.60547C107.328 9.02344 107.883 9.23242 108.574 9.23242ZM116.643 3.80664V4.73242C116.518 4.7168 116.389 4.70898 116.256 4.70898C115.705 4.70898 115.275 4.89258 114.967 5.25977C114.658 5.62305 114.504 6.11133 114.504 6.72461V10H113.508V3.8418H114.387L114.504 4.89062C114.648 4.52734 114.869 4.24805 115.166 4.05273C115.467 3.85742 115.822 3.75977 116.232 3.75977C116.412 3.75977 116.549 3.77539 116.643 3.80664ZM117.973 1H118.969V10H117.973V1ZM127.02 1V10H126.123L126.047 8.91016C125.852 9.27734 125.535 9.57031 125.098 9.78906C124.664 10.0078 124.17 10.1172 123.615 10.1172C122.686 10.1172 121.941 9.82227 121.383 9.23242C120.828 8.64258 120.551 7.87891 120.551 6.94141C120.551 5.97656 120.844 5.19922 121.43 4.60938C122.016 4.01953 122.768 3.72461 123.686 3.72461C124.193 3.72461 124.65 3.81836 125.057 4.00586C125.467 4.18945 125.793 4.44727 126.035 4.7793V1H127.02ZM126.035 7.01172V6.8418C126.035 6.16602 125.828 5.62305 125.414 5.21289C125.004 4.80273 124.463 4.59766 123.791 4.59766C123.1 4.59766 122.559 4.80859 122.168 5.23047C121.777 5.64844 121.582 6.21875 121.582 6.94141C121.582 7.65625 121.779 8.21875 122.174 8.62891C122.568 9.03906 123.096 9.24414 123.756 9.24414C124.439 9.24414 124.99 9.04492 125.408 8.64648C125.826 8.24805 126.035 7.70312 126.035 7.01172ZM50.0273 15.1816C51.0781 15.1816 51.9727 15.457 52.7109 16.0078C53.4492 16.5547 53.9023 17.2754 54.0703 18.1699H52.9922C52.8086 17.541 52.4551 17.0469 51.9316 16.6875C51.4082 16.3242 50.7852 16.1426 50.0625 16.1426C49.082 16.1426 48.291 16.4648 47.6895 17.1094C47.0879 17.7539 46.7871 18.5996 46.7871 19.6465C46.7871 20.6934 47.084 21.5391 47.6777 22.1836C48.2715 22.8281 49.0547 23.1504 50.0273 23.1504C50.7695 23.1504 51.4062 22.9668 51.9375 22.5996C52.4688 22.2324 52.8203 21.7383 52.9922 21.1172H54.0703C53.9023 22.0117 53.4473 22.7363 52.7051 23.291C51.9668 23.8418 51.0742 24.1172 50.0273 24.1172C49.1875 24.1289 48.4375 23.9473 47.7773 23.5723C47.1172 23.1934 46.6055 22.6621 46.2422 21.9785C45.8828 21.2949 45.709 20.5176 45.7207 19.6465C45.7207 18.3184 46.1172 17.2422 46.9102 16.418C47.7031 15.5938 48.7422 15.1816 50.0273 15.1816ZM56.9883 18.1289C57.4922 17.8594 58.0586 17.7246 58.6875 17.7246C59.3164 17.7246 59.8809 17.8594 60.3809 18.1289C60.8809 18.3945 61.2734 18.7715 61.5586 19.2598C61.8438 19.748 61.9863 20.3008 61.9863 20.918C61.9863 21.8672 61.6758 22.6387 61.0547 23.2324C60.4375 23.8223 59.6484 24.1172 58.6875 24.1172C57.7266 24.1172 56.9355 23.8223 56.3145 23.2324C55.6934 22.6387 55.3828 21.8672 55.3828 20.918C55.3828 20.3008 55.5254 19.748 55.8105 19.2598C56.0957 18.7715 56.4883 18.3945 56.9883 18.1289ZM58.6992 23.2324C59.375 23.2324 59.9199 23.0215 60.334 22.5996C60.748 22.1738 60.9551 21.6133 60.9551 20.918C60.9551 20.2227 60.748 19.6621 60.334 19.2363C59.9199 18.8105 59.375 18.5977 58.6992 18.5977C58.0195 18.5977 57.4668 18.8105 57.041 19.2363C56.623 19.6543 56.4141 20.2188 56.4141 20.9297C56.4141 21.625 56.6211 22.1836 57.0352 22.6055C57.4531 23.0234 58.0078 23.2324 58.6992 23.2324ZM63.6328 17.8418H64.5L64.6289 18.9141C64.8203 18.5391 65.1055 18.248 65.4844 18.041C65.8633 17.8301 66.2871 17.7246 66.7559 17.7246C67.4902 17.7246 68.0547 17.9375 68.4492 18.3633C68.8477 18.7852 69.0469 19.3848 69.0469 20.1621V24H68.0625V20.2324C68.0625 19.6973 67.9297 19.291 67.6641 19.0137C67.3984 18.7363 67.0234 18.5977 66.5391 18.5977C65.9609 18.5977 65.498 18.791 65.1504 19.1777C64.8027 19.5605 64.6289 20.0723 64.6289 20.7129V24H63.6328V17.8418ZM74.3789 15V15.7793C74.2383 15.7637 74.1074 15.7559 73.9863 15.7559C73.5176 15.7559 73.1895 15.8477 73.002 16.0312C72.8184 16.2109 72.7266 16.5117 72.7266 16.9336V17.8418H74.6191V18.6973H72.7266V24H71.7305V18.6973H70.1777V17.8418H71.7305V16.8984C71.7305 16.3945 71.8535 15.9414 72.0996 15.5391C72.3496 15.1328 72.8652 14.9297 73.6465 14.9297C73.8613 14.9297 74.1055 14.9531 74.3789 15ZM81.5098 22.2129C81.3379 22.8066 80.9902 23.2734 80.4668 23.6133C79.9473 23.9492 79.3262 24.1172 78.6035 24.1172C77.6387 24.1172 76.8633 23.8242 76.2773 23.2383C75.6914 22.6484 75.3984 21.875 75.3984 20.918C75.3984 19.9766 75.6914 19.209 76.2773 18.6152C76.8633 18.0215 77.6152 17.7246 78.5332 17.7246C79.3887 17.7246 80.084 17.9766 80.6191 18.4805C81.1543 18.9844 81.4219 19.6406 81.4219 20.4492C81.4219 20.5742 81.4102 20.7344 81.3867 20.9297H76.4297V21.1055C76.4297 21.7891 76.623 22.3223 77.0098 22.7051C77.4004 23.0879 77.9316 23.2793 78.6035 23.2793C79.0645 23.2793 79.4609 23.1855 79.793 22.998C80.1289 22.8066 80.3652 22.5449 80.502 22.2129H81.5098ZM76.4707 20.1973H80.4023C80.4023 19.7324 80.2227 19.3457 79.8633 19.0371C79.5078 18.7285 79.0566 18.5742 78.5098 18.5742C77.9824 18.5742 77.5332 18.7227 77.1621 19.0195C76.791 19.3164 76.5605 19.709 76.4707 20.1973ZM86.291 17.8066V18.7324C86.166 18.7168 86.0371 18.709 85.9043 18.709C85.3535 18.709 84.9238 18.8926 84.6152 19.2598C84.3066 19.623 84.1523 20.1113 84.1523 20.7246V24H83.1562V17.8418H84.0352L84.1523 18.8906C84.2969 18.5273 84.5176 18.248 84.8145 18.0527C85.1152 17.8574 85.4707 17.7598 85.8809 17.7598C86.0605 17.7598 86.1973 17.7754 86.291 17.8066ZM93.2168 22.2129C93.0449 22.8066 92.6973 23.2734 92.1738 23.6133C91.6543 23.9492 91.0332 24.1172 90.3105 24.1172C89.3457 24.1172 88.5703 23.8242 87.9844 23.2383C87.3984 22.6484 87.1055 21.875 87.1055 20.918C87.1055 19.9766 87.3984 19.209 87.9844 18.6152C88.5703 18.0215 89.3223 17.7246 90.2402 17.7246C91.0957 17.7246 91.791 17.9766 92.3262 18.4805C92.8613 18.9844 93.1289 19.6406 93.1289 20.4492C93.1289 20.5742 93.1172 20.7344 93.0938 20.9297H88.1367V21.1055C88.1367 21.7891 88.3301 22.3223 88.7168 22.7051C89.1074 23.0879 89.6387 23.2793 90.3105 23.2793C90.7715 23.2793 91.168 23.1855 91.5 22.998C91.8359 22.8066 92.0723 22.5449 92.209 22.2129H93.2168ZM88.1777 20.1973H92.1094C92.1094 19.7324 91.9297 19.3457 91.5703 19.0371C91.2148 18.7285 90.7637 18.5742 90.2168 18.5742C89.6895 18.5742 89.2402 18.7227 88.8691 19.0195C88.498 19.3164 88.2676 19.709 88.1777 20.1973ZM94.8633 17.8418H95.7305L95.8594 18.9141C96.0508 18.5391 96.3359 18.248 96.7148 18.041C97.0938 17.8301 97.5176 17.7246 97.9863 17.7246C98.7207 17.7246 99.2852 17.9375 99.6797 18.3633C100.078 18.7852 100.277 19.3848 100.277 20.1621V24H99.293V20.2324C99.293 19.6973 99.1602 19.291 98.8945 19.0137C98.6289 18.7363 98.2539 18.5977 97.7695 18.5977C97.1914 18.5977 96.7285 18.791 96.3809 19.1777C96.0332 19.5605 95.8594 20.0723 95.8594 20.7129V24H94.8633V17.8418ZM105.029 17.7246C105.814 17.7246 106.471 17.9199 106.998 18.3105C107.549 18.709 107.896 19.2246 108.041 19.8574H107.01C106.885 19.4707 106.645 19.166 106.289 18.9434C105.934 18.7207 105.514 18.6094 105.029 18.6094C104.377 18.6094 103.857 18.8203 103.471 19.2422C103.084 19.6641 102.891 20.2266 102.891 20.9297C102.891 21.6289 103.086 22.1875 103.477 22.6055C103.867 23.0234 104.389 23.2324 105.041 23.2324C105.533 23.2324 105.951 23.123 106.295 22.9043C106.643 22.6816 106.881 22.3789 107.01 21.9961H108.041C107.893 22.6406 107.543 23.1562 106.992 23.543C106.445 23.9258 105.795 24.1172 105.041 24.1172C104.111 24.1172 103.348 23.8223 102.75 23.2324C102.156 22.6387 101.859 21.8672 101.859 20.918C101.859 20.293 101.996 19.7363 102.27 19.248C102.543 18.7598 102.92 18.3848 103.4 18.123C103.881 17.8574 104.424 17.7246 105.029 17.7246ZM115.342 22.2129C115.17 22.8066 114.822 23.2734 114.299 23.6133C113.779 23.9492 113.158 24.1172 112.436 24.1172C111.471 24.1172 110.695 23.8242 110.109 23.2383C109.523 22.6484 109.23 21.875 109.23 20.918C109.23 19.9766 109.523 19.209 110.109 18.6152C110.695 18.0215 111.447 17.7246 112.365 17.7246C113.221 17.7246 113.916 17.9766 114.451 18.4805C114.986 18.9844 115.254 19.6406 115.254 20.4492C115.254 20.5742 115.242 20.7344 115.219 20.9297H110.262V21.1055C110.262 21.7891 110.455 22.3223 110.842 22.7051C111.232 23.0879 111.764 23.2793 112.436 23.2793C112.896 23.2793 113.293 23.1855 113.625 22.998C113.961 22.8066 114.197 22.5449 114.334 22.2129H115.342ZM110.303 20.1973H114.234C114.234 19.7324 114.055 19.3457 113.695 19.0371C113.34 18.7285 112.889 18.5742 112.342 18.5742C111.814 18.5742 111.365 18.7227 110.994 19.0195C110.623 19.3164 110.393 19.709 110.303 20.1973ZM116.631 22.1895H117.604C117.627 22.5449 117.783 22.8242 118.072 23.0273C118.361 23.2266 118.74 23.3262 119.209 23.3262C119.666 23.3262 120.021 23.2344 120.275 23.0508C120.533 22.8672 120.662 22.6191 120.662 22.3066C120.662 22.0527 120.58 21.8477 120.416 21.6914C120.256 21.5352 120.029 21.4336 119.736 21.3867L118.523 21.1816C117.332 20.9746 116.736 20.4297 116.736 19.5469C116.736 18.9961 116.951 18.5547 117.381 18.2227C117.814 17.8906 118.385 17.7246 119.092 17.7246C119.811 17.7246 120.387 17.8887 120.82 18.2168C121.258 18.5449 121.488 18.9961 121.512 19.5703H120.58C120.564 19.2383 120.422 18.9785 120.152 18.791C119.887 18.5996 119.537 18.5039 119.104 18.5039C118.697 18.5039 118.367 18.5957 118.113 18.7793C117.859 18.959 117.732 19.1953 117.732 19.4883C117.732 19.7383 117.816 19.9238 117.984 20.0449C118.156 20.166 118.404 20.2559 118.729 20.3145L120.047 20.543C120.57 20.6328 120.969 20.8281 121.242 21.1289C121.52 21.4258 121.658 21.7949 121.658 22.2363C121.658 22.8066 121.434 23.2637 120.984 23.6074C120.539 23.9473 119.943 24.1172 119.197 24.1172C118.447 24.1172 117.842 23.9453 117.381 23.6016C116.92 23.2539 116.67 22.7832 116.631 22.1895Z" fill="black"/>
<path d="M3.1535 14.0383L8.96708 11.6016V13.7251L5.07206 15.4256V18.2991L3.15626 19.0655V14.0383H3.1535ZM7.55296 2.20102C10.5686 2.20102 13.0468 4.58276 13.0468 7.79138V14.14C12.9227 16.6536 15.0508 18.7029 17.5096 18.7029C19.9685 18.7029 21.8926 16.6536 21.8926 14.1372V7.09087L19.974 7.85732V14.1372C19.974 15.5163 18.8493 16.6398 17.5096 16.6398C16.1672 16.6398 15.026 15.5163 15.026 14.1372V7.79138C15.026 3.56908 11.6878 0.137939 7.55296 0.137939C3.41813 0.137939 0 3.56908 0 7.79138V20.2193L2.10325 19.4364V7.79138C2.10325 4.70638 4.53729 2.20102 7.55296 2.20102ZM27.5352 18.7029C30.0492 18.7029 32.0312 16.6536 32.0312 14.1372V3.04163L30.1154 3.80808V14.1372C30.1154 15.4915 28.908 16.6398 27.5352 16.6398C26.1625 16.6398 25.0433 15.4915 25.0433 14.1372V5.91236L22.9401 6.70628V14.1372C22.9401 16.6536 25.0213 18.7029 27.5352 18.7029ZM33.0814 2.6488V14.1372C33.0814 17.2222 30.595 19.7743 27.5242 19.7743C25.2804 19.7743 23.2764 18.398 22.3915 16.475C21.526 18.3952 19.7039 19.7743 17.5014 19.7743C14.4857 19.7743 12.0599 17.2222 12.0599 14.1372V7.79138C12.0599 5.27503 10.0146 3.23118 7.55572 3.23118C5.09687 3.23118 3.15626 5.27503 3.15626 7.79138V12.8241L8.96983 10.3819V8.28037L5.06931 9.99457V7.79138C5.06931 6.41234 6.1995 5.29426 7.54194 5.29426C8.81271 5.29426 10.0421 6.38761 10.0421 7.79138C10.0807 7.86281 10.0394 14.14 10.0394 14.14C10.0752 18.332 13.3748 21.8621 17.4876 21.8621C19.3979 21.8621 21.0959 20.983 22.4218 19.777C23.7643 20.983 25.5864 21.8621 27.5242 21.8621C31.7142 21.8621 35 18.3623 35 14.14V1.90982L33.0814 2.6488Z" fill="black"/>
</g>
</svg>
