<svg width="0" height="0" class="hidden">
   <symbol xmlns="http://www.w3.org/2000/svg" viewBox="0 0 180 26" id="icon-logo">
      <path d="M37.4913 19.3177C36.0996 18.4774 34.9915 17.2639 34.3025 15.8253C33.5122 14.1627 33.1295 12.3465 33.1842 10.5179C33.1315 8.69679 33.5142 6.88845 34.3025 5.23331C34.9915 3.79479 36.0996 2.58125 37.4913 1.74096C38.8011 1.01403 40.2691 0.59378 41.7776 0.513974C43.2861 0.434169 44.7928 0.697003 46.177 1.28141C47.2907 1.76526 48.2694 2.49761 49.0326 3.41818C49.8071 4.35279 50.3303 5.45785 50.5556 6.63489V6.77274H48.057V6.47404C47.8138 5.73093 47.4172 5.0431 46.891 4.45213C46.364 3.89688 45.7128 3.46477 44.9872 3.18847C44.1851 2.8815 43.3273 2.73304 42.4647 2.75192C41.2243 2.72352 40.0044 3.06004 38.9667 3.71688C37.9238 4.37502 37.098 5.30793 36.5871 6.40512C36.0183 7.7051 35.7424 9.10707 35.7779 10.5179C35.7424 11.9287 36.0183 13.3306 36.5871 14.6305C37.0971 15.7405 37.9221 16.6884 38.9667 17.3647C40.0056 18.0189 41.2247 18.3552 42.4647 18.3297C43.3211 18.3395 44.1708 18.1832 44.9635 17.8702C45.706 17.6023 46.3625 17.1507 46.8672 16.5605C47.4357 15.9437 47.8579 15.2145 48.1045 14.4238H50.6271C50.4075 15.6095 49.8839 16.7232 49.1041 17.6634C48.3409 18.584 47.3621 19.3163 46.2484 19.8002C45.0517 20.3179 43.7523 20.5767 42.4411 20.5584C40.7022 20.6107 38.9843 20.1801 37.4913 19.3177Z"></path>
      <path d="M20.572 19.7312C19.6209 19.0995 18.871 18.2242 18.4064 17.2038C17.8784 15.9901 17.619 14.6831 17.6449 13.3669C17.6124 12.0478 17.8806 10.7378 18.4303 9.52982C18.8861 8.51102 19.628 7.63565 20.572 7.0025C21.5177 6.40156 22.6287 6.0893 23.7607 6.10639C24.7319 6.08841 25.6887 6.33527 26.5211 6.81865C27.32 7.27965 27.9771 7.93796 28.4248 8.72571V0.936763H30.8045V20.3516H28.4248V18.054C27.9861 18.8466 27.3373 19.5126 26.5448 19.984C25.724 20.4739 24.7729 20.7215 23.8083 20.6963C22.653 20.6994 21.5242 20.3628 20.572 19.7312ZM26.4735 17.9162C27.1242 17.449 27.6336 16.8223 27.9489 16.101C28.326 15.2362 28.5124 14.3051 28.4961 13.3669C28.5124 12.4287 28.326 11.4975 27.9489 10.6327C27.6254 9.91589 27.1074 9.29673 26.4497 8.84056C25.8223 8.39658 25.062 8.1626 24.2843 8.17423C23.4953 8.1621 22.722 8.3869 22.0712 8.81756C21.4237 9.26696 20.9271 9.89014 20.6433 10.6097C20.2919 11.4884 20.1221 12.4251 20.1435 13.3669C20.1221 14.3086 20.2919 15.2452 20.6433 16.124C20.9326 16.8468 21.4277 17.476 22.0712 17.9391C22.7241 18.363 23.4977 18.5799 24.2843 18.5595C25.0649 18.5654 25.8287 18.3409 26.4735 17.9162Z"></path>
      <path d="M53.0542 0.936763H55.4338V8.58779C55.7998 7.81489 56.4074 7.17213 57.1711 6.74972C58.0191 6.28726 58.9817 6.05687 59.9552 6.0834C60.9076 6.06313 61.8443 6.31927 62.6443 6.81865C63.4464 7.29522 64.084 7.99087 64.4765 8.81756C64.9218 9.74535 65.1416 10.7592 65.1191 11.7815V20.3516H62.7394V12.1951C62.7877 11.1304 62.4511 10.0826 61.7875 9.23112C61.4547 8.87072 61.0427 8.58678 60.5815 8.39994C60.1204 8.2131 59.6218 8.12816 59.1223 8.1513C58.4328 8.14304 57.7555 8.32644 57.1711 8.67971C56.6066 9.01831 56.1527 9.50424 55.8622 10.0813C55.5316 10.7393 55.3685 11.4639 55.3863 12.1951V20.3516H53.0067L53.0542 0.936763Z"></path>
      <path d="M70.3543 19.7312C69.4041 19.1046 68.6606 18.2272 68.2126 17.2038C67.6687 15.994 67.401 14.6854 67.4274 13.3669C67.3949 12.0477 67.6629 10.7378 68.2126 9.5298C68.6769 8.51599 69.4171 7.64264 70.3543 7.00248C71.3074 6.39842 72.427 6.08608 73.5668 6.10638C74.5338 6.07337 75.4911 6.30092 76.3317 6.76352C77.1722 7.22613 77.8629 7.90557 78.3261 8.7257V6.42808H80.7058V20.4205H78.3261V18.1229C77.8855 18.9329 77.2207 19.6088 76.4056 20.0754C75.5905 20.5419 74.657 20.7807 73.7096 20.7652C72.506 20.772 71.3313 20.41 70.3543 19.7312ZM76.2559 17.9162C76.9065 17.449 77.4159 16.8223 77.7312 16.101C78.1084 15.2362 78.2949 14.305 78.2786 13.3669C78.2949 12.4287 78.1084 11.4975 77.7312 10.6327C77.4151 9.91156 76.8957 9.29062 76.232 8.84055C75.6047 8.39657 74.8443 8.16258 74.0666 8.17422C73.2777 8.16208 72.5044 8.38688 71.8535 8.81755C71.206 9.26694 70.7094 9.89013 70.4257 10.6097C70.0743 11.4884 69.9046 12.4251 69.926 13.3669C69.9046 14.3086 70.0743 15.2452 70.4257 16.1239C70.715 16.8468 71.21 17.476 71.8535 17.9391C72.5065 18.363 73.2801 18.5799 74.0666 18.5595C74.8472 18.5654 75.611 18.3409 76.2559 17.9162Z"></path>
      <path d="M83.6803 6.35908H86.06V8.40399C86.3832 7.71087 86.9136 7.12677 87.583 6.72671C88.3005 6.30638 89.1235 6.08388 89.9627 6.08338C90.5734 6.07903 91.1794 6.18828 91.7474 6.40508C92.2744 6.60507 92.7467 6.91953 93.1276 7.32411C93.5374 7.73523 93.8464 8.22989 94.0319 8.77162C94.5719 7.70506 95.5185 6.88168 96.6733 6.47401C97.2839 6.26137 97.9279 6.15251 98.577 6.15231C99.4464 6.14048 100.305 6.33788 101.076 6.72671C101.773 7.0972 102.344 7.65616 102.718 8.33507C103.134 9.08225 103.339 9.92232 103.312 10.7705V20.4205H100.933V11.2301C100.996 10.3941 100.714 9.56802 100.148 8.93247C99.8572 8.64889 99.5074 8.42841 99.1217 8.28577C98.7359 8.14314 98.3231 8.08158 97.9108 8.10529C97.3169 8.09951 96.7327 8.25046 96.2212 8.54184C95.7254 8.81796 95.3211 9.22433 95.0552 9.71365C94.7715 10.2375 94.6323 10.823 94.6507 11.4139V20.3056H92.271V10.9314C92.2865 10.5554 92.2227 10.1803 92.0836 9.82878C91.9446 9.47729 91.733 9.15672 91.4619 8.88647C91.1724 8.62438 90.832 8.42036 90.4603 8.28627C90.0885 8.15217 89.693 8.09067 89.2964 8.10529C88.6917 8.0985 88.0974 8.2579 87.583 8.56484C87.09 8.86454 86.6878 9.28461 86.417 9.78258C86.1066 10.3149 85.9504 10.918 85.9649 11.5287V20.3056H83.5852L83.6803 6.35908Z"></path>
      <path d="M106.287 6.35911H108.667V8.65672C108.96 8.12892 109.347 7.65465 109.809 7.25521C110.267 6.86713 110.79 6.55644 111.356 6.33618C111.966 6.12355 112.61 6.01468 113.259 6.01448C114.415 5.99062 115.551 6.30287 116.52 6.91058C117.47 7.53719 118.213 8.41456 118.661 9.43797C119.2 10.6566 119.46 11.9733 119.423 13.2979C119.463 14.6153 119.203 15.9251 118.661 17.1349C118.197 18.1487 117.457 19.0222 116.52 19.6623C115.768 20.1268 114.917 20.4199 114.03 20.5194C113.144 20.619 112.245 20.5223 111.403 20.2367C110.82 20.0342 110.28 19.7306 109.809 19.3407C109.347 18.9412 108.96 18.4669 108.667 17.9391V24.9928H106.287V6.35911ZM115.116 17.8472C115.763 17.3978 116.26 16.7746 116.543 16.055C116.895 15.1763 117.065 14.2397 117.043 13.2979C117.069 12.3484 116.899 11.4034 116.543 10.5179C116.26 9.7983 115.763 9.17511 115.116 8.72572C114.463 8.29779 113.691 8.07318 112.903 8.08232C112.118 8.07394 111.351 8.30737 110.713 8.74865C110.064 9.20703 109.554 9.82615 109.238 10.5408C108.861 11.4138 108.675 12.3524 108.691 13.2979C108.671 14.2364 108.858 15.1681 109.238 16.0321C109.553 16.7534 110.063 17.38 110.713 17.8472C111.358 18.272 112.122 18.4965 112.903 18.4906C113.685 18.5308 114.46 18.3297 115.116 17.9162V17.8472Z"></path>
      <path d="M124.063 19.7312C123.112 19.0994 122.362 18.2242 121.898 17.2038C121.37 15.99 121.11 14.6831 121.136 13.3668C121.108 12.0504 121.368 10.743 121.898 9.5298C122.362 8.5094 123.112 7.63425 124.063 7.00248C125.007 6.39758 126.119 6.08495 127.252 6.10637C128.223 6.08839 129.18 6.33525 130.012 6.81863C130.81 7.27375 131.461 7.93404 131.892 8.72569V6.42807H134.272V20.4205H131.892V18.1229C131.47 18.9193 130.827 19.5873 130.036 20.0529C129.215 20.5428 128.264 20.7904 127.299 20.7652C126.137 20.7481 125.007 20.3872 124.063 19.7312ZM129.941 17.9161C130.605 17.4571 131.124 16.8286 131.44 16.101C131.809 15.2345 131.987 14.3034 131.964 13.3668C131.992 12.4277 131.805 11.4941 131.416 10.6327C131.1 9.91805 130.591 9.29893 129.941 8.84054C129.312 8.39956 128.553 8.1659 127.775 8.17421C126.987 8.16208 126.213 8.38688 125.562 8.81754C124.901 9.25843 124.394 9.88363 124.111 10.6097C123.759 11.4884 123.59 12.4251 123.611 13.3668C123.59 14.3086 123.759 15.2452 124.111 16.1239C124.401 16.8529 124.905 17.4839 125.562 17.9391C126.213 18.3503 126.974 18.5693 127.752 18.5693C128.529 18.5693 129.29 18.3503 129.941 17.9391V17.9161Z"></path>
      <path d="M140.435 24.8549C139.632 24.5621 138.902 24.1078 138.293 23.5223C137.77 23.0005 137.407 22.3481 137.246 21.6383V21.6153H139.626V21.7301C139.912 22.2747 140.395 22.6997 140.982 22.9249C141.736 23.2277 142.546 23.3764 143.362 23.3615C144.435 23.4269 145.492 23.0893 146.313 22.4195C146.67 22.0844 146.948 21.6792 147.129 21.2312C147.31 20.7833 147.388 20.3031 147.36 19.8231V18.031C147.08 18.5473 146.7 19.0073 146.242 19.3866C145.258 20.1711 144.019 20.5944 142.743 20.5813C141.604 20.6016 140.484 20.2894 139.531 19.6853C138.581 19.0625 137.83 18.1948 137.365 17.1809C136.826 15.9786 136.566 14.6767 136.604 13.3668C136.568 12.0623 136.837 10.7667 137.389 9.5758C137.854 8.56187 138.605 7.69421 139.555 7.0714C140.516 6.46682 141.644 6.15464 142.791 6.1753C143.443 6.1674 144.09 6.28453 144.695 6.51993C145.26 6.74019 145.783 7.05088 146.242 7.43896C146.685 7.84034 147.063 8.30533 147.36 8.81754V6.51993H149.74V20.1218C149.767 21.1247 149.494 22.1139 148.954 22.9709C148.419 23.7848 147.65 24.4313 146.741 24.8319C145.672 25.2949 144.51 25.5225 143.338 25.4982C142.34 25.4424 141.359 25.2249 140.435 24.8549ZM145.551 17.7782C146.206 17.3302 146.71 16.7073 147.003 15.9861C147.372 15.1277 147.55 14.2041 147.527 13.2749C147.55 12.3458 147.372 11.4221 147.003 10.5638C146.704 9.85231 146.2 9.23843 145.551 8.79461C144.917 8.36753 144.16 8.14261 143.386 8.15129C142.59 8.14185 141.81 8.36621 141.149 8.79461C140.5 9.23843 139.997 9.85231 139.698 10.5638C139.344 11.4258 139.174 12.3479 139.198 13.2749C139.174 14.2094 139.344 15.139 139.698 16.0091C139.99 16.7303 140.495 17.3532 141.149 17.8012C141.813 18.2215 142.593 18.4378 143.386 18.4216C144.161 18.4415 144.922 18.2156 145.551 17.7782Z"></path>
      <path d="M152.738 6.35912H155.118V8.3581C155.535 7.68161 156.125 7.11984 156.831 6.72675C157.676 6.28053 158.629 6.05855 159.591 6.08342C160.278 6.04402 160.966 6.14892 161.607 6.39088C162.248 6.63285 162.827 7.00615 163.304 7.485C164.22 8.54401 164.687 9.89819 164.612 11.276V20.3517H162.233V11.6896C162.298 10.7473 162.002 9.81473 161.4 9.07036C161.078 8.7504 160.688 8.50229 160.256 8.34352C159.824 8.18475 159.362 8.11919 158.901 8.15133C158.2 8.14335 157.51 8.3179 156.902 8.65673C156.333 8.97987 155.878 9.46 155.594 10.0353C155.267 10.6864 155.104 11.4028 155.118 12.1262V20.3517H152.738V6.35912Z"></path>
      <path d="M7.48381 0.913787H9.33995V3.83176H8.69744L3.08145 20.3516H0.344849L7.48381 0.913787Z"></path>
      <path d="M17.1928 20.3516H14.4562L8.84022 3.83176H8.19771V0.913787H10.0538L17.1928 20.3516Z"></path>
      <path d="M13.9565 14.3319H3.60498V14.9752H13.9565V14.3319Z"></path>
      <path d="M169.848 19.7312C168.813 19.1451 167.984 18.2727 167.468 17.2268C166.91 16.0288 166.633 14.7262 166.659 13.4128C166.643 12.1003 166.919 10.7997 167.468 9.59875C167.993 8.54099 168.818 7.64872 169.848 7.02543C170.882 6.40373 172.08 6.08453 173.298 6.1064C174.499 6.07593 175.683 6.38762 176.701 7.0025C177.669 7.59273 178.431 8.44886 178.89 9.4609C179.428 10.6233 179.688 11.8875 179.652 13.1601V14.0102H167.968V13.7115H178.462L177.225 13.8723V12.9762C177.256 12.0562 177.085 11.1403 176.725 10.2881C176.438 9.63228 175.947 9.07845 175.321 8.70271C174.702 8.34885 173.994 8.16603 173.274 8.17424C172.544 8.16625 171.827 8.35743 171.204 8.72571C170.562 9.11653 170.056 9.68492 169.753 10.357C169.377 11.1811 169.198 12.0763 169.229 12.9762V13.8723C169.199 14.7426 169.378 15.6077 169.753 16.3997C170.062 17.075 170.577 17.6437 171.228 18.031C171.916 18.4087 172.697 18.5993 173.489 18.5824C174.057 18.5903 174.621 18.4968 175.154 18.3067C175.607 18.1445 176.02 17.8943 176.368 17.5715C176.677 17.2643 176.912 16.8957 177.058 16.4916V16.3767H179.438V16.5146C179.316 17.0883 179.082 17.6342 178.748 18.1229C178.388 18.6316 177.946 19.0814 177.439 19.4555C176.887 19.8366 176.277 20.1312 175.63 20.3286C174.914 20.5432 174.167 20.6516 173.417 20.6503C172.161 20.6761 170.924 20.3575 169.848 19.7312Z"></path>
      <path d="M178.795 13.3439H168.444V13.9872H178.795V13.3439Z"></path>
   </symbol>
   <symbol xmlns="http://www.w3.org/2000/svg" viewBox="0 0 26 22" id="icon-telegram">
      <path fill-rule="evenodd" clip-rule="evenodd" d="M19.916 21.7571C20.2648 22.0079 20.7144 22.0706 21.1152 21.9166C21.516 21.7615 21.8107 21.4139 21.8995 20.9926C22.8409 16.5002 25.1245 5.12947 25.9814 1.04296C26.0464 0.734964 25.9381 0.414864 25.6998 0.209163C25.4614 0.00346312 25.131 -0.0559371 24.8364 0.0551631C20.2941 1.76236 6.30529 7.09187 0.587584 9.24017C0.224676 9.37657 -0.0114854 9.73077 0.000430998 10.1191C0.0134307 10.5085 0.271258 10.8462 0.642833 10.9595C3.20702 11.7383 6.57286 12.8218 6.57286 12.8218C6.57286 12.8218 8.14583 17.6453 8.96589 20.0983C9.06881 20.4063 9.30605 20.6483 9.61913 20.7319C9.93112 20.8144 10.2648 20.7275 10.4977 20.5042C11.815 19.2414 13.8516 17.2889 13.8516 17.2889C13.8516 17.2889 17.7212 20.1698 19.916 21.7571ZM7.98875 12.2124L9.80762 18.3042L10.2117 14.4465C10.2117 14.4465 17.2391 8.01037 21.2452 4.34187C21.3622 4.23407 21.3784 4.05367 21.2809 3.92717C21.1845 3.80067 21.0069 3.77097 20.8736 3.85677C16.2306 6.86747 7.98875 12.2124 7.98875 12.2124Z"></path>
   </symbol>
   <symbol xmlns="http://www.w3.org/2000/svg" viewBox="0 0 24 24" id="icon-linkedin">
      <path d="M4.98 2.6087C4.98 4.04974 3.87 5.21739 2.5 5.21739C1.13 5.21739 0.02 4.04974 0.02 2.6087C0.02 1.1687 1.13 0 2.5 0C3.87 0 4.98 1.1687 4.98 2.6087ZM5 7.30435H0V24H5V7.30435ZM12.982 7.30435H8.014V24H12.983V15.2358C12.983 10.3628 19.012 9.96417 19.012 15.2358V24H24V13.4285C24 5.20591 15.078 5.50539 12.982 9.55304V7.30435Z"></path>
   </symbol>
   <symbol xmlns="http://www.w3.org/2000/svg" viewBox="0 0 28 19" id="icon-vk">
      <path d="M15.355 18.9916C16.0655 18.9916 16.356 18.4406 16.3478 17.7498C16.3117 15.1482 17.1808 13.7477 18.7499 15.573C20.4858 17.5924 20.8451 18.9916 22.9532 18.9916H26.6864C27.629 18.9916 28 18.6388 28 18.0851C28 16.9139 26.3422 14.8469 24.9376 13.3297C22.9707 11.2058 22.8785 11.1556 24.5725 8.59875C26.6736 5.42443 29.4221 1.35713 26.9909 1.35713H22.3466C21.4459 1.35713 21.3806 1.94747 21.0598 2.82689C19.899 6.01206 17.6929 10.1377 16.8553 9.50666C15.9792 8.84846 16.3805 6.24142 16.447 2.36683C16.4645 1.34355 16.4598 0.64192 15.1159 0.278211C14.3821 0.0814274 13.6681 0 13.0055 0C10.3537 0 8.52448 1.29334 9.56394 1.51862C11.3967 1.91626 11.2205 6.52913 10.7936 8.52139C10.0492 11.9902 7.2517 5.77457 6.08625 2.67897C5.80509 1.93526 5.71876 1.35713 4.71547 1.35713H0.918128C0.344152 1.35713 0 1.57426 0 2.0574C0 2.87439 3.45319 11.1773 6.75005 15.3165C9.96525 19.354 13.1431 18.9916 15.355 18.9916Z"></path>
   </symbol>
   <symbol xmlns="http://www.w3.org/2000/svg" viewBox="0 0 15 28" id="icon-facebook">
      <path d="M3.75 9.33333H0V14H3.75V28H10V14H14.5525L15 9.33333H10V7.3885C10 6.27433 10.24 5.83333 11.3937 5.83333H15V0H10.24C5.745 0 3.75 1.84683 3.75 5.38417V9.33333Z"></path>
   </symbol>
   <symbol xmlns="http://www.w3.org/2000/svg" viewBox="0 0 26 20" id="icon-youtube">
      <path d="M21.2496 0.739762C17.3453 0.480099 8.64933 0.481154 4.75042 0.739762C0.528667 1.02054 0.0314167 3.50528 0 10.0454C0.0314167 16.5739 0.524334 19.0692 4.75042 19.3511C8.65042 19.6097 17.3453 19.6107 21.2496 19.3511C25.4713 19.0703 25.9686 16.5855 26 10.0454C25.9686 3.51689 25.4757 1.02159 21.2496 0.739762ZM9.75 14.2676V5.82326L18.4167 10.038L9.75 14.2676Z"></path>
   </symbol>
   <symbol xmlns="http://www.w3.org/2000/svg" viewBox="0 0 17 17" id="icon-close">
      <rect y="0.707092" width="1" height="23" transform="rotate(-45 0 0.707092)"></rect>
      <rect x="16.2656" y="6.10352e-05" width="1" height="23" transform="rotate(45 16.2656 6.10352e-05)"></rect>
   </symbol>
</svg>